<?xml version="1.0" encoding="UTF-8" standalone="no"?>


<svg version="1.1" id="Layer_1" xmlns="http://www.w3.org/2000/svg"  x="0px" y="0px" viewBox="0 0 16 16" style="enable-background:new 0 0 16 16;" xml:space="preserve">
    <title>app_icons</title>
    <g>
        <path class="st0" d="M15.1,2.1l-1.2-1.2c-1.1-1.1-2.9-1.1-4,0L7.7,3.1c0.6,0,1.3,0.2,1.8,0.5l1.5-1.5c0.5-0.5,1.2-0.5,1.6,0l1.2,1.2c0.2,0.2,0.3,0.5,0.3,0.8s-0.1,0.6-0.3,0.8L9.3,9.5C8.9,10,8.1,10,7.7,9.5L7.1,8.9c-0.3-0.3-0.9-0.3-1.2,0c-0.3,0.3-0.3,0.9,0,1.2l0.6,0.6c0.6,0.6,1.3,0.8,2,0.8c0.7,0,1.5-0.3,2-0.8l4.6-4.6C16.2,5,16.2,3.2,15.1,2.1z"/><path class="st0" d="M4.9,13.9c-0.5,0.5-1.2,0.5-1.7,0l-1.2-1.2c-0.5-0.5-0.5-1.2,0-1.6l4.6-4.6C7.1,6,7.9,6,8.3,6.5l0.6,0.6c0.3,0.3,0.9,0.3,1.2,0c0.3-0.3,0.3-0.9,0-1.2L9.5,5.3c-1.1-1.1-2.9-1.1-4,0L0.9,9.9c-1.1,1.1-1.1,2.9,0,4l1.2,1.2c0.5,0.5,1.2,0.8,2,0.8s1.5-0.3,2-0.8l2.2-2.2c-0.6,0-1.3-0.2-1.8-0.5L4.9,13.9z"/>
    </g>
</svg>

