<?xml version="1.0" encoding="UTF-8" standalone="no"?>
<svg
        xmlns="http://www.w3.org/2000/svg"
        id="Layer_1"
        data-name="Layer 1"
        viewBox="0 0 600 600"
>
    <defs/>
    <title>lock</title>
    <path class="object"
          d="M459.64,245.25H448.17V161.08a161.46,161.46,0,0,0-98.5-148.59A161.16,161.16,0,0,0,172.86,47.05a160.92,160.92,0,0,0-47.23,114v84.17H114.15a43.7,43.7,0,0,0-43.66,43.66V553.28a43.7,43.7,0,0,0,43.66,43.66H459.64a43.7,43.7,0,0,0,43.65-43.66V288.91A43.7,43.7,0,0,0,459.64,245.25Zm-292.55,0V161.08a119.81,119.81,0,0,1,239.61,0v84.17Zm294.74,43.66V553.28a2.19,2.19,0,0,1-2.19,2.2H114.15a2.2,2.2,0,0,1-2.2-2.2V288.91a2.2,2.2,0,0,1,2.2-2.2H459.64A2.19,2.19,0,0,1,461.83,288.91Z"/>
</svg>
