<?xml version="1.0" encoding="UTF-8" standalone="no"?>

<svg
    xmlns="http://www.w3.org/2000/svg"
    id="Layer_1"
    data-name="Layer 1"
    viewBox="0 0 600 600">
    <title>settings</title>
    <g>
        <path
              d="M303.8,185.3c-63.3,0-114.7,51.5-114.7,114.7s51.5,114.7,114.7,114.7S418.6,363.3,418.6,300S367.1,185.3,303.8,185.3z M303.8,377.8c-43,0-77.8-34.8-77.8-77.8s34.8-77.8,77.8-77.8c43,0,77.8,34.8,77.8,77.8C381.6,343,346.8,377.8,303.8,377.8z"/>
        <path
              d="M564.6,167.6l-15.7-27.2c-11.8-20.5-33.8-33.2-57.5-33.2c-11.6,0-23.1,3.1-33.1,8.9l-9.8,5.7c-18.9-15.3-39.9-27.5-62.6-36.1V74.4c0-36.6-29.8-66.4-66.4-66.4h-31.4c-36.6,0-66.4,29.8-66.4,66.4v11.3c-22.7,8.7-43.8,20.9-62.6,36.2l-9.7-5.7c-10.1-5.8-21.5-8.9-33.1-8.9c-23.7,0-45.7,12.7-57.5,33.2l-15.7,27.2c-18.3,31.7-7.4,72.3,24.3,90.6l9.7,5.6c-1.9,12-2.9,24.1-2.9,36.2c0,12.1,1,24.2,2.9,36.2l-9.7,5.6c-31.7,18.3-42.6,59-24.3,90.6l15.7,27.2c11.8,20.5,33.8,33.2,57.5,33.2c11.6,0,23.1-3.1,33.1-8.9l9.8-5.7c18.9,15.3,39.9,27.5,62.6,36.1v11.3c0,36.6,29.8,66.4,66.4,66.4h31.4c36.6,0,66.4-29.8,66.4-66.4v-11.3c22.7-8.7,43.8-20.9,62.6-36.2l9.7,5.7c10.1,5.8,21.5,8.9,33.1,8.9c23.6,0,45.7-12.7,57.5-33.2l15.7-27.2c18.3-31.7,7.4-72.3-24.3-90.6l-9.7-5.6c1.9-12,2.9-24.1,2.9-36.2s-1-24.2-2.9-36.2l9.7-5.6C572,239.9,582.8,199.3,564.6,167.6z M521.8,226.2l-10.2,5.9c-12.9,7.4-20,22-17.6,36.7c1.7,10.1,2.6,20.5,2.6,31.2c0,10.6-0.9,21-2.6,31.2c-2.4,14.7,4.7,29.2,17.6,36.7l10.2,5.9c14.1,8.1,18.9,26.1,10.8,40.2l-15.7,27.2c-5.4,9.4-15.3,14.7-25.5,14.7c-5,0-10-1.3-14.7-3.9l-10.4-6c-5.6-3.2-11.9-4.9-18.1-4.9c-8,0-15.9,2.7-22.4,8c-16.1,13.2-34.3,23.7-54,31.2c-13.9,5.2-22.9,18.7-22.9,33.5v11.9c0,16.2-13.2,29.4-29.4,29.4h-31.4c-16.2,0-29.4-13.2-29.4-29.4v-12c0-14.8-9-28.3-22.9-33.5c-19.8-7.4-38-18-54-31.2c-6.5-5.3-14.4-8-22.4-8c-6.2,0-12.5,1.6-18.1,4.9l-10.4,6c-4.6,2.7-9.7,3.9-14.7,3.9c-10.2,0-20-5.3-25.5-14.7l-15.7-27.2c-8.1-14.1-3.3-32,10.8-40.2l10.2-5.9c12.9-7.4,20-22,17.6-36.7c-1.7-10.1-2.6-20.5-2.6-31.2s0.9-21,2.6-31.2c2.4-14.7-4.7-29.2-17.6-36.7l-10.2-5.9C71.8,218.1,67,200.1,75.1,186l15.7-27.2c5.4-9.4,15.3-14.7,25.5-14.7c5,0,10,1.3,14.7,3.9l10.4,6c5.6,3.2,11.9,4.9,18.1,4.9c8,0,15.9-2.7,22.4-8c16.1-13.1,34.3-23.7,54-31.2c13.9-5.2,22.9-18.7,22.9-33.5V74.3c0-16.2,13.2-29.4,29.4-29.4h31.4c16.2,0,29.4,13.2,29.4,29.4v11.9c0,14.8,9,28.3,22.9,33.5c19.8,7.4,38,18,54,31.2c6.5,5.3,14.4,8,22.4,8c6.2,0,12.5-1.6,18.1-4.9l10.4-6c4.6-2.7,9.7-3.9,14.7-3.9c10.2,0,20,5.3,25.5,14.7l15.7,27.2C540.7,200.1,535.9,218.1,521.8,226.2z"/>
    </g>
</svg>
