<?xml version="1.0" encoding="UTF-8" standalone="no"?>

<svg id="Layer_1" data-name="Layer 1" xmlns="http://www.w3.org/2000/svg" viewBox="0 0 600 600">
    <title>tag</title>
    <path
          d="M589.59,285.49l-140-160.27c-8.92-10.23-23.75-10.23-32.71,0a27.14,27.14,0,0,0,0,34.93L541.63,303,416.92,445.76a27.14,27.14,0,0,0,0,34.93c9,10.23,23.79,10.23,32.71,0l140-160.27a27.09,27.09,0,0,0,0-34.93M181.69,125.22c-8.93-10.23-23.77-10.23-32.7,0L9,285.49a27.14,27.14,0,0,0,0,34.93L149,480.68c8.93,10.24,23.77,10.24,32.7,0a27.11,27.11,0,0,0,0-34.93L57,303l124.7-142.8a27.11,27.11,0,0,0,0-34.93M344.58,81.14a19.8,19.8,0,0,0-24.22,14L211.72,500.57A19.79,19.79,0,0,0,250,510.81L358.58,105.36a19.8,19.8,0,0,0-14-24.22"/>
</svg>
