<?xml version="1.0" encoding="UTF-8" standalone="no"?>

<svg id="Layer_1" data-name="Layer 1" xmlns="http://www.w3.org/2000/svg" viewBox="0 0 600 600">
    <title>unlink</title>
    <g>
        <path class="st0"
              d="M31.5,428.7c0,26.8,10.4,51.9,29.3,70.8l42.8,42.9c19.5,19.5,45.2,29.2,70.8,29.2c25.6,0,51.3-9.7,70.8-29.2l90.3-90.3L298,414.6l-90.3,90.3c-18.4,18.4-48.3,18.4-66.6,0L98.2,462c-8.9-8.9-13.8-20.7-13.8-33.3c0-12.6,4.9-24.4,13.8-33.3l91.3-91.3l-37.4-37.5L60.8,358C41.9,376.9,31.5,402,31.5,428.7z"/>
        <path class="st0"
              d="M408.6,303.9l37.4,37.4l97.8-97.8c39-39,39-102.5,0-141.5l-42.8-42.8c-18.9-18.9-44-29.4-70.8-29.4c0,0,0,0,0,0c-26.7,0-51.8,10.4-70.7,29.4L257.3,161.4l37.4,37.4L397,96.7c8.9-8.9,20.7-13.8,33.3-13.8c0,0,0,0,0,0c12.6,0,24.4,4.9,33.3,13.8l42.8,42.8c18.3,18.3,18.3,48.2,0,66.6L408.6,303.9z"/>
        <rect x="100.5" y="60.3" transform="matrix(0.7073 -0.7069 0.7069 0.7073 -49.3274 118.2875)" class="st0"
              width="35.3" height="116.8"/>
        <rect x="9.7" y="220.5" transform="matrix(0.9997 -2.440006e-02 2.440006e-02 0.9997 -5.7906 1.705)" class="st0"
              width="114.5" height="35.3"/>
        <rect x="181.2" y="49.5" transform="matrix(1.709921e-02 -0.9999 0.9999 1.709921e-02 166.8196 303.9632)"
              class="st0" width="113.7" height="35.3"/>
        <rect x="464.6" y="424.4" transform="matrix(0.7071 -0.7071 0.7071 0.7071 -200.1276 482.3989)" class="st0"
              width="35.3" height="116.8"/>
        <rect x="305.6" y="516.3" transform="matrix(2.430011e-02 -0.9997 0.9997 2.430011e-02 -179.7892 883.7021)"
              class="st0" width="114.5" height="35.3"/>
        <rect x="477.1" y="345.3" transform="matrix(0.9999 -1.729914e-02 1.729914e-02 0.9999 -6.1996 9.2901)"
              class="st0" width="113.6" height="35.3"/>
    </g>
</svg>
