<svg id="Layer_1" data-name="Layer 1" xmlns="http://www.w3.org/2000/svg" viewBox="0 0 600 600"><defs><style>.cls-1{fill:#ed6e7e;}</style></defs><title>app_icons</title><path class="cls-1" d="M473.28,593.52H127.84A54.63,54.63,0,0,1,73.28,539V61.81A54.62,54.62,0,0,1,127.84,7.25H473.28a54.61,54.61,0,0,1,54.56,54.56V539A54.62,54.62,0,0,1,473.28,593.52ZM127.84,58.17a3.73,3.73,0,0,0-3.63,3.64V539a3.73,3.73,0,0,0,3.63,3.64H473.28a3.73,3.73,0,0,0,3.64-3.64V61.81a3.73,3.73,0,0,0-3.64-3.64Z"/><rect class="cls-1" x="181.61" y="123.07" width="241.29" height="50.92"/><rect class="cls-1" x="181.61" y="224.42" width="241.29" height="50.92"/><rect class="cls-1" x="181.6" y="325.75" width="164.93" height="50.92" transform="translate(-4.29 3.27) rotate(-0.7)"/></svg>