<svg id="Layer_1" data-name="Layer 1" xmlns="http://www.w3.org/2000/svg" viewBox="0 0 600 600"><defs><style>.cls-1{fill:#ed6e7e;}</style></defs><title>app_icons</title><path class="cls-1" d="M558.83,102.48a40.35,40.35,0,0,0-29.36-12.37H487.74V58.43a50.76,50.76,0,0,0-15.45-37.09,50.75,50.75,0,0,0-37.1-15.46H414.33a50.73,50.73,0,0,0-37.09,15.46,50.73,50.73,0,0,0-15.46,37.09V90.11H235.83V58.43a50.73,50.73,0,0,0-15.46-37.09A50.73,50.73,0,0,0,183.28,5.88H162.42a50.75,50.75,0,0,0-37.1,15.46,50.76,50.76,0,0,0-15.45,37.09V90.11H68.14c-11.59,0-20.86,3.87-29.36,12.37s-12.37,17.77-12.37,29.36V552.21c0,11.59,3.87,20.87,12.37,29.37s17.77,12.36,29.36,12.36h462.1c11.59,0,20.87-3.86,29.37-12.36A40.36,40.36,0,0,0,572,552.21V131.84A44.57,44.57,0,0,0,558.83,102.48ZM403.51,59.2h41.73v74.19H403.51ZM151.6,58.43h41.72v74.18H151.6Zm10,493.78H67.37V457.94h94.27Zm0-115.14H67.37V332h94.27Zm0-125.95H67.37V216.84h94.27Zm126,241.09H182.51V457.94H287.6Zm0-115.14H182.51V332H287.6Zm0-125.95H182.51V216.84H287.6Zm126,241.09H308.46V457.94h105.1Zm0-115.14H308.46V332h105.1Zm0-125.95H308.46V216.84h105.1ZM529.47,552.21H435.19V457.94h94.28Zm0-115.14H435.19V332h94.28Zm0-125.95H435.19V216.84h94.28Z"/></svg>