<svg id="Layer_1" data-name="Layer 1" xmlns="http://www.w3.org/2000/svg" viewBox="0 0 600 600"><defs><style>.cls-1{fill:#4f7fc0;}</style></defs><title>app_icons</title><path class="cls-1" d="M466.22,593.52H120.78A54.62,54.62,0,0,1,66.22,539V61.81A54.61,54.61,0,0,1,120.78,7.25H466.22a54.62,54.62,0,0,1,54.56,54.56V539A54.63,54.63,0,0,1,466.22,593.52ZM120.78,58.17a3.73,3.73,0,0,0-3.64,3.64V539a3.73,3.73,0,0,0,3.64,3.64H466.22a3.73,3.73,0,0,0,3.64-3.64V61.81a3.73,3.73,0,0,0-3.64-3.64Z"/><rect class="cls-1" x="174.55" y="123.07" width="241.29" height="50.92"/><rect class="cls-1" x="174.55" y="224.42" width="241.29" height="50.92"/><rect class="cls-1" x="174.54" y="325.75" width="164.93" height="50.92" transform="translate(-4.29 3.18) rotate(-0.7)"/></svg>