<svg id="Layer_1" data-name="Layer 1" xmlns="http://www.w3.org/2000/svg" viewBox="0 0 600 600"><defs><style>.cls-1{fill:#b8c4cf;}</style></defs><title>app_icons</title><path class="cls-1" d="M557.81,102.47a40.58,40.58,0,0,0-29.5-12.42H486.4V58.23A51,51,0,0,0,470.88,21,51,51,0,0,0,433.63,5.46h-21A51,51,0,0,0,375.42,21a51,51,0,0,0-15.53,37.25V90.05H233.39V58.23A51,51,0,0,0,217.86,21,51,51,0,0,0,180.61,5.46h-21A51,51,0,0,0,122.4,21a51,51,0,0,0-15.52,37.25V90.05H65c-11.65,0-21,3.89-29.5,12.42S23.06,120.32,23.06,132V554.18c0,11.64,3.88,21,12.41,29.49S53.32,596.09,65,596.09H529.09c11.64,0,20.95-3.88,29.49-12.42A40.53,40.53,0,0,0,571,554.18V132C570.22,121.1,566.34,111,557.81,102.47ZM401.8,59h41.92v74.51H401.8Zm-253-.78H190.7v74.51H148.79Zm10.09,495.95H64.19V459.49h94.69Zm0-115.64H64.19V333h94.69Zm0-126.51H64.19V217.34h94.69ZM285.39,554.18H179.83V459.49H285.39Zm0-115.64H179.83V333H285.39Zm0-126.51H179.83V217.34H285.39Zm126.5,242.15H306.34V459.49H411.89Zm0-115.64H306.34V333H411.89Zm0-126.51H306.34V217.34H411.89ZM528.31,554.18H433.63V459.49h94.68Zm0-115.64H433.63V333h94.68Zm0-126.51H433.63V217.34h94.68Z"/></svg>