<svg id="Layer_1" data-name="Layer 1" xmlns="http://www.w3.org/2000/svg" viewBox="0 0 600 600"><defs><style>.cls-1{fill:#6e8393;}</style></defs><title>app_icons</title><path class="cls-1" d="M471.16,593.52H125.72A54.62,54.62,0,0,1,71.16,539V61.81A54.61,54.61,0,0,1,125.72,7.25H471.16a54.62,54.62,0,0,1,54.56,54.56V539A54.63,54.63,0,0,1,471.16,593.52ZM125.72,58.17a3.73,3.73,0,0,0-3.64,3.64V539a3.73,3.73,0,0,0,3.64,3.64H471.16a3.73,3.73,0,0,0,3.63-3.64V61.81a3.73,3.73,0,0,0-3.63-3.64Z"/><rect class="cls-1" x="179.49" y="123.07" width="241.29" height="50.92"/><rect class="cls-1" x="179.49" y="224.42" width="241.29" height="50.92"/><rect class="cls-1" x="179.48" y="325.75" width="164.93" height="50.92" transform="translate(-4.29 3.24) rotate(-0.7)"/></svg>