<svg id="Layer_1" data-name="Layer 1" xmlns="http://www.w3.org/2000/svg" viewBox="0 0 600 600"><defs><style>.cls-1{fill:#4f7fc0;}</style></defs><title>app_icons</title><path class="cls-1" d="M557.66,102.48a40.37,40.37,0,0,0-29.37-12.37H486.56V58.43a50.76,50.76,0,0,0-15.45-37.09A50.74,50.74,0,0,0,434,5.88H413.15a50.74,50.74,0,0,0-37.09,15.46,50.76,50.76,0,0,0-15.45,37.09V90.11h-126V58.43a50.73,50.73,0,0,0-15.46-37.09A50.73,50.73,0,0,0,182.1,5.88H161.24a50.73,50.73,0,0,0-37.09,15.46,50.73,50.73,0,0,0-15.46,37.09V90.11H67C55.37,90.11,46.1,94,37.6,102.48s-12.37,17.77-12.37,29.36V552.21c0,11.59,3.87,20.87,12.37,29.37S55.37,593.94,67,593.94h462.1c11.6,0,20.87-3.86,29.37-12.36a40.36,40.36,0,0,0,12.36-29.37V131.84A44.56,44.56,0,0,0,557.66,102.48ZM402.33,59.2h41.73v74.19H402.33Zm-251.91-.77h41.73v74.18H150.42Zm10,493.78H66.19V457.94h94.27Zm0-115.14H66.19V332h94.27Zm0-125.95H66.19V216.84h94.27Zm126,241.09H181.33V457.94H286.42Zm0-115.14H181.33V332H286.42Zm0-125.95H181.33V216.84H286.42Zm126,241.09H307.29V457.94H412.38Zm0-115.14H307.29V332H412.38Zm0-125.95H307.29V216.84H412.38ZM528.29,552.21H434V457.94h94.27Zm0-115.14H434V332h94.27Zm0-125.95H434V216.84h94.27Z"/></svg>