<svg id="Layer_1" data-name="Layer 1" xmlns="http://www.w3.org/2000/svg" viewBox="0 0 600 600"><defs><style>.cls-1{fill:#a0b4c5;}</style></defs><title>app_icons</title><path class="cls-1" d="M517.85,597.42c20.41,0,40.82-7.85,54.94-23.55,31.4-31.39,31.4-80.06,0-111.45L411.11,300.74,574.36,137.48c31.4-31.39,31.4-80.06,0-111.45s-80.05-31.4-111.45,0L299.66,189.28,136.41,26C105-5.37,56.35-5.37,25,26s-31.39,80.06,0,111.45L188.21,300.74,25,464c-31.39,31.39-31.39,80.06,0,111.45,15.7,15.7,36.11,23.55,55,23.55s40.81-7.85,54.94-23.55L299.66,412.19,462.91,575.44C478.61,589.57,497.45,597.42,517.85,597.42Z"/></svg>