<?xml version="1.0" encoding="utf-8"?>
<!-- Generator: Adobe Illustrator 22.1.0, SVG Export Plug-In . SVG Version: 6.00 Build 0)  -->
<svg version="1.1" id="Layer_1" xmlns="http://www.w3.org/2000/svg" xmlns:xlink="http://www.w3.org/1999/xlink" x="0px" y="0px"
	 viewBox="0 0 357.4 345.5" style="enable-background:new 0 0 357.4 345.5;" xml:space="preserve">
<style type="text/css">
	.st0{fill:#ECEEF0;}
	.st1{fill:#00A1E0;}
	.st2{fill:#FFFFFF;}
	.st3{fill-rule:evenodd;clip-rule:evenodd;fill:#FFFFFF;}
	.st4{fill:url(#SVGID_1_);}
	.st5{fill:#0CB0F2;}
	.st6{fill:url(#SVGID_2_);}
	.st7{fill:#684C46;}
	.st8{fill:#F5DCBA;}
	.st9{fill:#0788BF;}
	.st10{fill:#46B8E3;}
	.st11{fill:#FFD14F;}
	.st12{fill:#122030;}
	.st13{fill:#EABE8D;}
	.st14{fill:#9C7356;}
	.st15{fill:#264970;}
	.st16{fill:#2A4C68;}
	.st17{fill:#95BF46;}
	.st18{fill:#5E8E3E;}
	.st19{fill:#02B7E3;}
	.st20{fill:#89C6BE;}
	.st21{fill:#33393F;}
	.st22{fill:#DFA22F;}
	.st23{fill:#3CB187;}
	.st24{fill:#CE1E5B;}
	.st25{fill:#392538;}
	.st26{fill:#BB242A;}
	.st27{fill:#72C5CD;}
	.st28{fill:#248C73;}
	.st29{fill:#62803A;}
</style>
<circle class="st0" cx="173.9" cy="173.3" r="137.9"/>
<g>
	<g>
		<path class="st1" d="M295.3,80.9c2.7-2.8,6.5-4.6,10.6-4.6c5.5,0,10.4,3.1,12.9,7.7c2.2-1,4.7-1.6,7.3-1.6
			c10,0,18.1,8.2,18.1,18.2c0,10.1-8.1,18.2-18.1,18.2c-1.2,0-2.4-0.1-3.6-0.4c-2.3,4-6.6,6.8-11.5,6.8c-2.1,0-4-0.5-5.8-1.3
			c-2.3,5.4-7.6,9.2-13.9,9.2c-6.5,0-12-4.1-14.2-9.9c-0.9,0.2-1.9,0.3-2.9,0.3c-7.7,0-14-6.3-14-14.1c0-5.2,2.8-9.8,7-12.3
			c-0.9-2-1.3-4.2-1.3-6.5c0-9,7.3-16.3,16.3-16.3C287.6,74.5,292.3,77,295.3,80.9z"/>
	</g>
	<g>
		<g>
			<path class="st2" d="M272.5,105c-0.1,0.1,0,0.2,0,0.2c0.2,0.1,0.3,0.2,0.5,0.3c0.9,0.5,1.7,0.6,2.5,0.6c1.7,0,2.8-0.9,2.8-2.4v0
				c0-1.4-1.2-1.9-2.3-2.2l-0.1,0c-0.9-0.3-1.6-0.5-1.6-1.1v0c0-0.5,0.4-0.8,1.1-0.8c0.7,0,1.6,0.2,2.2,0.6c0,0,0.2,0.1,0.2-0.1
				c0-0.1,0.3-0.9,0.3-0.9c0-0.1,0-0.2-0.1-0.2c-0.6-0.4-1.5-0.7-2.5-0.7l-0.2,0c-1.6,0-2.7,1-2.7,2.3v0c0,1.4,1.2,1.9,2.3,2.2
				l0.2,0.1c0.8,0.3,1.5,0.5,1.5,1.1v0c0,0.5-0.5,0.9-1.2,0.9c-0.3,0-1.2,0-2.2-0.6c-0.1-0.1-0.2-0.1-0.3-0.2c0,0-0.2-0.1-0.2,0.1
				L272.5,105z"/>
			<path class="st2" d="M297.7,105c-0.1,0.1,0,0.2,0,0.2c0.2,0.1,0.3,0.2,0.5,0.3c0.9,0.5,1.7,0.6,2.5,0.6c1.7,0,2.8-0.9,2.8-2.4v0
				c0-1.4-1.2-1.9-2.3-2.2l-0.1,0c-0.9-0.3-1.6-0.5-1.6-1.1v0c0-0.5,0.4-0.8,1.1-0.8c0.7,0,1.6,0.2,2.2,0.6c0,0,0.2,0.1,0.2-0.1
				c0-0.1,0.3-0.9,0.3-0.9c0-0.1,0-0.2-0.1-0.2c-0.6-0.4-1.5-0.7-2.5-0.7l-0.2,0c-1.6,0-2.7,1-2.7,2.3v0c0,1.4,1.2,1.9,2.3,2.2
				l0.2,0.1c0.8,0.3,1.5,0.5,1.5,1.1v0c0,0.5-0.5,0.9-1.2,0.9c-0.3,0-1.2,0-2.2-0.6c-0.1-0.1-0.2-0.1-0.3-0.2c0,0-0.2-0.1-0.2,0.1
				L297.7,105z"/>
			<path class="st2" d="M316.3,100.6c-0.1-0.5-0.4-0.9-0.7-1.2c-0.3-0.4-0.7-0.6-1.1-0.8c-0.4-0.2-1-0.3-1.5-0.3s-1.1,0.1-1.5,0.3
				c-0.4,0.2-0.8,0.5-1.1,0.8c-0.3,0.4-0.5,0.8-0.7,1.2c-0.1,0.5-0.2,1-0.2,1.5c0,0.6,0.1,1.1,0.2,1.5c0.1,0.5,0.4,0.9,0.7,1.2
				c0.3,0.4,0.7,0.6,1.1,0.8c0.4,0.2,1,0.3,1.5,0.3s1.1-0.1,1.5-0.3c0.4-0.2,0.8-0.5,1.1-0.8c0.3-0.4,0.5-0.8,0.7-1.2
				c0.1-0.5,0.2-1,0.2-1.5C316.5,101.5,316.5,101,316.3,100.6 M314.9,102.1c0,0.8-0.2,1.5-0.5,2c-0.3,0.5-0.8,0.7-1.4,0.7
				c-0.6,0-1.1-0.2-1.4-0.7c-0.3-0.5-0.5-1.1-0.5-2c0-0.8,0.2-1.5,0.5-1.9c0.3-0.5,0.8-0.7,1.4-0.7c0.6,0,1.1,0.2,1.4,0.7
				C314.7,100.6,314.9,101.3,314.9,102.1"/>
			<path class="st3" d="M328.1,104.5c0-0.1-0.2-0.1-0.2-0.1c-0.2,0.1-0.4,0.2-0.7,0.2c-0.2,0-0.5,0.1-0.8,0.1
				c-0.7,0-1.2-0.2-1.6-0.6c-0.4-0.4-0.6-1.1-0.6-2c0-0.8,0.2-1.4,0.6-1.9c0.3-0.5,0.9-0.7,1.6-0.7c0.6,0,1,0.1,1.5,0.2
				c0,0,0.1,0,0.2-0.1c0.1-0.3,0.2-0.6,0.4-1c0-0.1-0.1-0.2-0.1-0.2c-0.2-0.1-0.6-0.2-1-0.2c-0.3,0-0.7-0.1-1.1-0.1
				c-0.6,0-1.1,0.1-1.6,0.3c-0.5,0.2-0.8,0.5-1.2,0.8c-0.3,0.4-0.5,0.8-0.7,1.2c-0.2,0.5-0.2,1-0.2,1.5c0,1.2,0.3,2.2,1,2.9
				c0.6,0.7,1.6,1.1,2.8,1.1c0.7,0,1.5-0.1,2-0.4c0,0,0.1,0,0.1-0.2L328.1,104.5z"/>
			<path class="st3" d="M335.5,100.3c-0.1-0.5-0.4-0.9-0.6-1.1c-0.3-0.3-0.6-0.6-0.9-0.7c-0.4-0.2-0.9-0.3-1.4-0.3
				c-0.6,0-1.2,0.1-1.6,0.3c-0.4,0.2-0.8,0.5-1.1,0.9c-0.3,0.4-0.5,0.8-0.7,1.3c-0.1,0.5-0.2,1-0.2,1.6c0,0.6,0.1,1.1,0.2,1.6
				c0.1,0.5,0.4,0.9,0.7,1.2c0.3,0.3,0.7,0.6,1.2,0.8c0.5,0.2,1.1,0.3,1.8,0.3c1.4,0,2.1-0.3,2.4-0.5c0.1,0,0.1-0.1,0-0.2l-0.3-0.9
				c0-0.1-0.2-0.1-0.2-0.1c-0.3,0.1-0.8,0.4-2,0.4c-0.8,0-1.3-0.2-1.7-0.6c-0.4-0.4-0.5-0.9-0.6-1.6l4.9,0c0,0,0.1,0,0.1-0.1
				C335.6,102.3,335.8,101.4,335.5,100.3z M330.6,101.3c0.1-0.5,0.2-0.8,0.4-1.1c0.3-0.5,0.8-0.7,1.4-0.7c0.6,0,1.1,0.3,1.4,0.7
				c0.2,0.3,0.3,0.7,0.3,1.1L330.6,101.3z"/>
			<path class="st3" d="M296.5,100.3c-0.1-0.5-0.4-0.9-0.6-1.1c-0.3-0.3-0.6-0.6-0.9-0.7c-0.4-0.2-0.9-0.3-1.4-0.3
				c-0.6,0-1.2,0.1-1.6,0.3c-0.4,0.2-0.8,0.5-1.1,0.9c-0.3,0.4-0.5,0.8-0.7,1.3c-0.1,0.5-0.2,1-0.2,1.6c0,0.6,0.1,1.1,0.2,1.6
				c0.1,0.5,0.4,0.9,0.7,1.2c0.3,0.3,0.7,0.6,1.2,0.8c0.5,0.2,1.1,0.3,1.8,0.3c1.4,0,2.1-0.3,2.4-0.5c0.1,0,0.1-0.1,0-0.2l-0.3-0.9
				c0-0.1-0.2-0.1-0.2-0.1c-0.3,0.1-0.8,0.4-2,0.4c-0.8,0-1.3-0.2-1.7-0.6c-0.4-0.4-0.5-0.9-0.6-1.6l4.9,0c0,0,0.1,0,0.1-0.1
				C296.7,102.3,296.9,101.4,296.5,100.3z M291.7,101.3c0.1-0.5,0.2-0.8,0.4-1.1c0.3-0.5,0.8-0.7,1.4-0.7c0.6,0,1.1,0.3,1.4,0.7
				c0.2,0.3,0.3,0.7,0.3,1.1L291.7,101.3z"/>
			<path class="st2" d="M283.1,101.1c-0.2,0-0.5,0-0.8,0c-0.4,0-0.8,0.1-1.2,0.2c-0.4,0.1-0.7,0.3-1,0.5c-0.3,0.2-0.5,0.5-0.7,0.8
				c-0.2,0.3-0.3,0.7-0.3,1.1c0,0.4,0.1,0.8,0.2,1.1c0.1,0.3,0.4,0.6,0.6,0.8c0.3,0.2,0.6,0.3,1,0.4c0.4,0.1,0.8,0.1,1.3,0.1
				c0.5,0,1,0,1.5-0.1c0.5-0.1,1.1-0.2,1.2-0.2c0.2,0,0.3-0.1,0.3-0.1c0.1,0,0.1-0.2,0.1-0.2l0-4.4c0-1-0.3-1.7-0.8-2.1
				c-0.5-0.4-1.3-0.7-2.2-0.7c-0.4,0-1,0-1.3,0.1c0,0-1.1,0.2-1.5,0.5c0,0-0.1,0.1,0,0.2l0.3,0.9c0,0.1,0.2,0.1,0.2,0.1s0,0,0.1,0
				c0.9-0.5,2.1-0.5,2.1-0.5c0.5,0,0.9,0.1,1.2,0.3c0.3,0.2,0.4,0.5,0.4,1.2v0.2C283.5,101.1,283.1,101.1,283.1,101.1z M281.2,104.5
				c-0.2-0.2-0.2-0.2-0.3-0.3c-0.1-0.1-0.1-0.4-0.1-0.6c0-0.4,0.1-0.7,0.4-0.9c0,0,0.4-0.4,1.4-0.4c0.7,0,1.3,0.1,1.3,0.1v2.2h0
				c0,0-0.6,0.1-1.3,0.2C281.6,104.8,281.2,104.5,281.2,104.5z"/>
			<path class="st3" d="M322.3,98.6c0-0.1,0-0.2-0.1-0.2c-0.1,0-0.5-0.1-0.8-0.1c-0.6,0-1,0.1-1.3,0.2c-0.3,0.1-0.6,0.4-0.8,0.6
				l0-0.6c0-0.1-0.1-0.1-0.1-0.1H318c-0.1,0-0.1,0.1-0.1,0.1v7.3c0,0.1,0.1,0.1,0.1,0.1h1.3c0.1,0,0.1-0.1,0.1-0.1v-3.6
				c0-0.5,0.1-1,0.2-1.3c0.1-0.3,0.2-0.5,0.4-0.7c0.2-0.2,0.4-0.3,0.6-0.4c0.2-0.1,0.5-0.1,0.7-0.1c0.3,0,0.5,0.1,0.5,0.1
				c0.1,0,0.1,0,0.2-0.1C322.1,99.4,322.3,98.7,322.3,98.6z"/>
			<path class="st3" d="M310.4,95.2c-0.2,0-0.3-0.1-0.5-0.1c-0.2,0-0.4-0.1-0.7-0.1c-0.9,0-1.6,0.2-2.1,0.7c-0.5,0.5-0.8,1.2-1,2.2
				l-0.1,0.3H305c0,0-0.1,0-0.2,0.1l-0.2,1c0,0.1,0,0.2,0.2,0.2h1.1l-1.1,6.1c-0.1,0.5-0.2,0.9-0.3,1.2c-0.1,0.3-0.2,0.5-0.3,0.7
				c-0.1,0.2-0.2,0.3-0.4,0.3c-0.2,0.1-0.4,0.1-0.6,0.1c-0.1,0-0.3,0-0.4,0c-0.1,0-0.2,0-0.3-0.1c0,0-0.1,0-0.2,0.1
				c0,0.1-0.3,0.9-0.4,1c0,0.1,0,0.2,0.1,0.2c0.1,0.1,0.2,0.1,0.4,0.1c0.3,0.1,0.5,0.1,0.7,0.1c0.4,0,0.9-0.1,1.2-0.2
				c0.3-0.1,0.6-0.3,0.9-0.6c0.3-0.3,0.5-0.6,0.6-1.1c0.2-0.4,0.3-1,0.4-1.6l1.1-6.2h1.6c0,0,0.1,0,0.2-0.1l0.2-1
				c0-0.1,0-0.2-0.2-0.2h-1.6c0,0,0.1-0.6,0.3-1.1c0.1-0.2,0.2-0.4,0.3-0.5c0.1-0.1,0.3-0.2,0.4-0.3c0.2-0.1,0.3-0.1,0.5-0.1
				c0.1,0,0.3,0,0.4,0c0.2,0,0.2,0,0.2,0.1c0.2,0,0.2,0,0.2-0.1l0.4-1C310.5,95.3,310.4,95.2,310.4,95.2z"/>
			<path class="st3" d="M288.6,105.7c0,0.1-0.1,0.1-0.1,0.1h-1.3c-0.1,0-0.1-0.1-0.1-0.1V95.3c0-0.1,0.1-0.1,0.1-0.1h1.3
				c0.1,0,0.1,0.1,0.1,0.1V105.7z"/>
		</g>
	</g>
</g>
<g>
	<g>
		
			<linearGradient id="SVGID_1_" gradientUnits="userSpaceOnUse" x1="363.5746" y1="489.0968" x2="363.5746" y2="488.861" gradientTransform="matrix(256 0 0 -256 -92820 125463.2344)">
			<stop  offset="0" style="stop-color:#0091E6"/>
			<stop  offset="1" style="stop-color:#0079BF"/>
		</linearGradient>
		<path class="st4" d="M230.8,254.5h48.6c3.3,0,5.9,2.6,5.9,5.9v48.6c0,3.3-2.6,5.9-5.9,5.9h-48.6c-3.3,0-5.9-2.6-5.9-5.9v-48.6
			C224.9,257.1,227.6,254.5,230.8,254.5z"/>
		<path class="st2" d="M261.9,262.3h12.8c1.6,0,2.8,1.3,2.8,2.8v20.8c0,1.6-1.3,2.8-2.8,2.8h-12.8c-1.6,0-2.8-1.3-2.8-2.8v-20.8
			C259,263.6,260.3,262.3,261.9,262.3z"/>
		<path class="st2" d="M235.6,262.3h12.8c1.6,0,2.8,1.3,2.8,2.8V301c0,1.6-1.3,2.8-2.8,2.8h-12.8c-1.6,0-2.8-1.3-2.8-2.8v-35.8
			C232.8,263.6,234,262.3,235.6,262.3z"/>
	</g>
</g>
<g>
	<path class="st5" d="M25.2,162.4c9.8-8.9,20.6-18.9,21-19.2c0.5-0.5,1-1,1.6-1.4c4.1-3,9.8-2.8,13.6,0.6c3.8,3.4,4.7,9,2.2,13.5
		c-0.5,0.8-1,1.6-1.7,2.2c-2.2,2.2-10.5,11-10.5,11s10.9,10.5,11.1,10.6c2.7,2.2,3.4,6,1.6,9c-1.1,1.8-2.8,3-4.9,3.3
		c-0.6,0.1-8.5-7.5-17.3-13.7c-5.5,6.2-16.5,18.6-16.6,18.6c-4.7,3.3-10.4,1.5-13,0c-3.6-2.1-6-5.8-6.4-9.9c-0.4-4.1,1.1-8.2,4.2-11
		C11.7,174.7,18.2,168.8,25.2,162.4L25.2,162.4z"/>
	
		<linearGradient id="SVGID_2_" gradientUnits="userSpaceOnUse" x1="362.0236" y1="489.7468" x2="361.8764" y2="489.8879" gradientTransform="matrix(168.25 0 0 -154.8884 -60878.9961 76019.6797)">
		<stop  offset="0" style="stop-color:#905CFB"/>
		<stop  offset="7.000000e-02" style="stop-color:#A554E6"/>
		<stop  offset="0.25" style="stop-color:#D641B5"/>
		<stop  offset="0.39" style="stop-color:#F43597"/>
		<stop  offset="0.47" style="stop-color:#FF318C"/>
	</linearGradient>
	<path class="st6" d="M44.6,165.6c-0.3-2.2-1.5-4.1-3.2-5.5l-17-17.2c-2.9-2.9-7.1-3.9-11-2.7s-6.7,4.6-7.4,8.6s1,8.1,4.3,10.5
		l20.6,14.4c2.8,2.2,6.6,2.4,9.6,0.6C43.6,172.5,45.2,169.1,44.6,165.6L44.6,165.6z"/>
	<rect x="16.9" y="151" width="36.8" height="36.8"/>
	<path class="st2" d="M20.7,180.3h13.5v2.4H20.7V180.3z M25.6,165.6l-6.2-9.8h4.1l3.9,6.5l3.9-6.5h4l-6.2,9.7v6.4h-3.5L25.6,165.6
		L25.6,165.6z M40.8,159.1h-4.9v-3.3h13.3v3.3h-4.9v12.8h-3.5V159.1z"/>
</g>
<g>
	<path class="st7" d="M191.2,318c-0.1,0.2-4.8,18.5-23.5,18.5c-16.2,0-23.8-14.1-23.8-14.1c-1.2,0.1-2.3-0.1-3.4-0.5
		c-4.7-1.7-7-7.2-5.4-11.7l-2.6-2c-10.1-7.7,18.5-42.9,28.6-34.9c0.1,0,2.4,1.9,2.4,1.9c3.6-2.2,7.2-3.4,10.2-3.4
		c2.1,0,3.8,0.6,5,1.9c2.6,2.8,1.7,8.3-1.9,13.8c0.8,0.7,1.4,1.7,1.9,2.7c1.1,0.9,1.9,2.2,2.2,4.1c0.4,2.1,0.5,5,0.8,6.2
		c1,0.4,0.6,0.2,1.6,0.7c1.1,0.5,2.4,1.2,3.8,2.6c2.6,0.6,3.6,3.4,2,5.2c0,0.1-0.2,0.3-0.4,0.5c0,0.1,0.5,0.9,0.9,2.5
		c1.1,0.3,1.9,0.9,2.4,1.9C192.7,315.8,191.2,318,191.2,318z M183.8,331.9v0.8h0.3v-0.8h0.3v-0.2h-0.9v0.2H183.8z M184.5,331.6v1
		h0.3v-0.7l0.2,0.7h0.2l0.2-0.7v0.7h0.3v-1h-0.4l-0.2,0.6l-0.2-0.6H184.5z"/>
	<path class="st8" d="M147.7,311.2L147.7,311.2L147.7,311.2c0.4-1,0.6-1.9,0.6-1.9c0.5,1.4,0.7,2.9,0.6,4.4l0,0l0,0
		c0.4-0.5,0.8-1.5,0.8-1.5c0.7,4.2-2.4,8.1-6.4,8.1c-3.6,0-6.5-3.1-6.5-6.9c0-3.8,2.9-6.9,6.5-6.9c0.9,0,1.8,0.2,2.6,0.6
		C145.9,307.2,147.3,307.9,147.7,311.2z M183.3,326.1c5.1-4,6-8.8,6-8.9c1.2-1.5,0.9-3-0.7-3c-0.5,0-0.9,0.1-0.9,0.1s0-2.2-1-3.9
		c-0.8,0.9-2.9,2.6-5.8,4c-2.7,1.3-6.2,2.4-10.6,2.5h0c-1.2,0.1-2-0.1-2.4,1.3c-0.1,0.5-0.1,1.3,0,1.5c0.3,1.2,1.3,1.7,2.4,2
		c0.9,0.2,1.9,0.2,1.9,0.2c8.9,0.3,16.1-6.7,16.2-6.8c0.1-0.1,0.2-0.1,0.2-0.1s-0.1,0.2-0.1,0.2c-1.3,2.9-8.7,8.2-16.2,8l0,0
		c-1.7,0-3.8-0.4-4.9-1.8c-1.7-2.1-0.8-5.7,1.9-5.8c0,0,0.6,0,0.9,0c6.8-0.2,12.9-2.7,17.2-7.9c0.6-0.7-0.1-1.8-1.4-1.8c0,0,0,0,0,0
		c-1.5-1.7-2.9-2.2-4.1-2.8c-2.5-1.3-2.3-0.2-2.9-6.4c-0.2-1.7-0.5-4-2-4.9c-0.4-0.2-0.8-0.3-1.3-0.3c-0.4,0-0.6,0.1-0.7,0.1
		c-0.8,0.2-1.3,0.6-1.8,1.2c-2.7,2.5-4.9,1.8-8.2,1.8c-3.1,0-5.8,2.1-6.3,5.4l0,0c-0.3,1.7-0.1,3.5,0.2,4.2c0,0-0.8-0.6-1.2-1
		c0.5,3,3.2,4.9,3.2,4.9c-0.4,0.1-1,0.1-1,0.1c0,0,1.6,1.2,2.9,1.7c-0.4,0.2-2.1,2-3,4.4c-0.9,2.3-0.5,5-0.5,5l0.7-1.1
		c0,0-0.5,2.5,0.5,4.9c0.3-0.7,1-2,1-2s-0.1,2.7,1.2,4.8c0-0.5,0.2-1.8,0.2-1.8s0.7,2.3,2.4,3.9
		C168.5,330.6,176.9,331.1,183.3,326.1z"/>
	<path class="st9" d="M136.1,308.3c0,0-2.5-1.8-2.8-2.4c-2-3.5,1.5-10.6,4.1-14.6c6.3-10,16.7-17.9,21.4-16.7l4.9,2.5
		c-1.9,1.1-3.7,2.5-4.8,3.4l-1,0.9c0,0-3,2-4.5,3.3c-6,5.1-12,13.1-14.2,20.8C139.1,305.5,137.3,306.4,136.1,308.3z"/>
	<path class="st10" d="M158.8,274.6L158.8,274.6c-4.7-1.1-15.2,6.8-21.4,16.7c0,0,0,0,0,0l0,0l5,3.9c5.5-8.7,12.4-13.2,12.6-13.3
		l-0.8-5.3l1.5-0.7l3,1l-0.2-1L158.8,274.6L158.8,274.6z"/>
	<path class="st11" d="M163.7,277.1l-4.8,3.4l-0.3,0.3l-4.3-3.5l-0.1-0.7l1.5-0.7c0.1,0,2.9,0.9,3,1l0-1.8l0.1-0.4l1.3-0.5
		C160.1,274.1,163.7,277.1,163.7,277.1z"/>
	<g>
		<path class="st12" d="M173.2,273.8c-3.2,0-6.8,1.7-9.5,3.3c-0.4,0.2-0.8,0.5-1.1,0.7l-1.4-1.2l0.5,1.8c-0.2,0.1-0.4,0.3-0.6,0.4
			l-3-0.9l2,1.6c-0.4,0.3-0.8,0.7-1.2,0.9l-4.7-3.9l0.2,1.7l3.4,3c0,0-3,2-4.5,3.3c-6,5.1-12,13.1-14.2,20.8l0.1-0.1c0,0,0,0,0.1,0
			c0.1,0,0.1-0.1,0.2-0.1c0,0,0.1,0,0.1-0.1c0.1,0,0.1-0.1,0.2-0.1c0,0,0.1,0,0.1,0c0.1,0,0.1-0.1,0.2-0.1c0,0,0.1,0,0.1,0
			c0.1,0,0.2-0.1,0.3-0.1c1.5-0.4,3.5-0.7,5.9,0.3c1.2-3,2.6-6.1,4.9-9c1.8-2.4,3.6-4.5,5.7-5.7c4-3.8,14.8-7.7,18.2-4.3
			c0.8-1.3,1.5-2.6,2.1-4.2C178.8,278.1,178.8,273.8,173.2,273.8z"/>
		<polygon class="st12" points="159.5,277.1 158.8,274.6 158.4,275.8 158.7,276.8 		"/>
	</g>
	<path class="st2" d="M187.7,314.3c0,0,0-2.2-1-3.9c-0.8,0.9-2.9,2.6-5.8,4c-2.7,1.3-6.2,2.4-10.6,2.5h0c-1.2,0.1-2-0.1-2.4,1.3
		c0,0.1-0.1,0.3-0.1,0.4l0,0c0,0,0,0,0,0c0,0,0,0.1,0,0.1c0,0.1,0,0.2,0,0.3c0,0,0,0,0,0c0,0,0,0,0,0c0,0.1,0,0.1,0,0.2c0,0,0,0,0,0
		c0,0,0,0,0,0c0,0.2,0.1,0.3,0.1,0.3c0,0,0,0,0,0l0,0c0.4,1.2,1.3,1.7,2.4,2c0.9,0.2,1.9,0.2,1.9,0.2c7.3,0.2,13.4-4.4,15.4-6.1
		C187.7,315.3,187.7,314.9,187.7,314.3z M166.8,275.4c1.7-0.8,3.6-1.4,5.4-1.6c-1.8,0.4-3.9,1.3-6.5,2.9c-0.1,0-6.1,4.1-9.7,7.7
		c-2,2-10,11.6-10,11.6c1.5-2.8,2.4-4.1,4.8-7.1c1.3-1.7,2.7-3.3,4.1-4.7c0.5-0.5,1-1,1.5-1.5l0,0l0,0
		C156.5,282.6,160.7,278.3,166.8,275.4z"/>
	<path class="st13" d="M183.3,326.1c-0.9,0.7-1.8,1.3-2.7,1.8c-2.1-0.8-3.5-2.5-3.5-2.5s1.8-0.4,4.3-1.7c3-1.5,5.8-3.7,7.9-6.5
		C189.3,317.3,188.4,322.1,183.3,326.1z M177.5,303c-1-0.7-2.8-0.2-3.1,1.1c0.6,0,1.2,0.5,1.2,1.1c0.4-0.4,1-0.6,1.6-0.6
		C176.9,304,177,303.2,177.5,303z M166.6,317.8c0.3-1.2,1.2-2.2,2.7-2.2c0,0,0.6,0,0.9,0c6.8-0.2,12.9-2.7,17.2-7.9
		c0.6-0.7-0.1-1.8-1.4-1.8c0,0,0,0,0,0c-0.2,0.2-0.3,0.7-0.6,1.3c-1.3,2.3-3.2,3.4-5.6,4.6c-7.5,3.7-11.4,2-13,4.3
		C166.4,316.7,166.4,317.5,166.6,317.8C166.6,317.8,166.6,317.8,166.6,317.8z M180.2,302.2c-0.7-0.5-0.7-1.4-1.1-5.6
		c-0.1-1.3-0.3-3-1.2-4.1c-0.2-0.1-0.4-0.3-0.7-0.3c-0.5,0-1.1,0.5-1.4,0.9c-0.9,1.3-1.8,2.2-3.4,3c-1.6,0.7-3.1,1-4.7,0.9
		c-1.2,0-2.2-0.2-3.1-0.2c-1.8,0-3.4,0.6-4.6,2c-0.8,1-1.1,2.1-1.2,3.3c0,0.2,0,0.3,0,0.4c0,0.2,0,0.4,0.1,0.6c0.1,0.6,0.2,1,0.2,1
		c0,0,0,0,0,0c0,0,0,0.1,0,0.1c0,0-0.8-0.6-1.2-1c0.4,2.5,2.4,4.3,3,4.8c0,0,0.1,0.1,0.1,0.1c0,0,0,0,0,0c0.1,0,0.1,0.1,0.1,0.1
		c-0.4,0.1-1,0.1-1,0.1c0,0,1.6,1.2,2.9,1.7c1.8-1.5,3.8-2.1,5.5-2.3c1-0.6,2.1-1.2,3.3-1.8c-0.4-2.2,1.6-4.4,4-4.6
		c1.9-0.1,2.8,0.7,3.4,1.6C179.4,302.5,179.8,302.4,180.2,302.2C180.2,302.2,180.2,302.2,180.2,302.2z M181.1,317
		C181,317,181,317,181.1,317c-0.8,0.2-8.4,3.1-13.3,1.6c0,0.3,0,0.8,0.1,1.1c0,0,0,0,0,0c0.7,0.1,1.7,0.2,2.7,0.2
		C177,319.9,181.5,317,181.1,317z M145.6,316.4C145.6,316.4,145.6,316.4,145.6,316.4c0.4-0.4,0.6-1,0.5-1.6c-0.1-0.8-1-1-1.6-1.6
		c0,0,0,0,0,0c0,0,0,0,0,0c0,0,0,0,0,0c-0.3-0.3-0.4-0.7-0.3-1c0-0.8,0.8-1,1.1-0.9c0,0,0.4,0.1,0.8,0.6c0,0,0,0,0,0
		c-0.1-0.2,0-0.4-0.3-0.8c-0.4-0.6-1.5-1.3-2.9-1h0c-0.3,0.1-0.1,0-0.4,0.1c0,0-0.1,0-0.1,0c-0.1,0-0.2,0.1-0.2,0.1l0,0
		c0,0-0.3,0.1-0.5,0.3C139.8,312.8,142.6,316.6,145.6,316.4z"/>
	<path class="st14" d="M169.6,303.5c0.1,0.2,0.2,0.4,0.1,0.4c-0.1,0.1-0.5,0-1.1-0.3c-1.5-0.6-2.6-0.6-4.5,0.1
		c-0.5,0.2-0.8,0.3-1,0.3c-0.3,0,0-0.5,0.6-1c1.2-1,2.9-1.3,4.3-0.7C168.5,302.5,169.2,302.9,169.6,303.5z M169.3,305
		c-0.4-0.3-1.2-0.5-1.9-0.4c-0.2,0-0.3,0.1-0.5,0.1c-0.1,0-0.1,0-0.2,0.1c-0.3,0.1-0.6,0.3-0.9,0.5c-0.3,0.3-0.4,0.6-0.3,0.7
		c0.1,0.1,0.3,0,0.6-0.2c1.1-0.5,1.9-0.5,2.7-0.4c0.4,0,0.6,0,0.7-0.1C169.5,305.2,169.4,305.1,169.3,305z M145.2,310.7L145.2,310.7
		L145.2,310.7c0.2,0.1,0.3,0.3,0.4,0.5c0.3,0.5,0.2,0.8,0.4,0.9c0.1,0,0.1,0.1,0.2,0c0.2-0.1,0.3-0.4,0.3-0.6l0,0l0,0l0,0
		c0-0.5-0.2-1.1-0.6-1.5l0,0l0,0l0,0c-0.2-0.3-0.5-0.5-0.9-0.7c-0.3-0.2-0.8-0.3-1.2-0.4c-0.8-0.1-1.5,0-1.7,0.1l0,0
		c-0.1,0-0.2,0.1-0.4,0.1c-1.3,0.5-2.1,1.4-2.5,2.6l0,0l0,0c-0.1,0.5-0.2,0.9-0.2,1.3c0,0.3,0,0.7,0.1,1v0l0,0l0,0
		c0.1,0.5,0.3,1,0.7,1.4l0,0l0,0l0,0c0.4,0.5,0.9,0.4,0.7-0.1c0-0.1-0.3-0.6-0.3-1.5c0-0.6,0.1-1.2,0.3-1.7c0.1-0.3,0.3-0.6,0.5-0.8
		c0.4-0.5,1-0.8,1-0.8l0,0c0.1,0,0.2-0.1,0.2-0.1c0,0,0.1,0,0.1,0c0.3-0.1,0.1,0,0.4-0.1h0C143.7,310,144.6,310.2,145.2,310.7z
		 M145,312.7c-0.1-0.1-0.2-0.2-0.2-0.3c-0.1-0.3,0-0.4,0.2-0.6c0.2-0.1,0.3-0.2,0.3-0.3c0-0.1-0.6-0.3-1,0.1
		c-0.3,0.4-0.4,1.1,0.1,1.7c0.6,0.6,1.5,0.8,1.7,1.6c0,0.1,0,0.2,0,0.4c0,0.1,0,0.4,0,0.4c-0.2,0.8-0.9,1.5-2.2,1.3
		c-0.2,0-0.4-0.1-0.4,0c-0.1,0.1,0.4,0.7,1.4,0.7c0.9,0,1.9-0.7,2.2-1.8c0,0,0.1-0.3,0.1-0.6c0-0.2,0-0.4,0-0.6
		C146.8,313.3,145.5,313.1,145,312.7z M177.8,303c-0.4-0.1-0.7,0.3-0.8,0.8c-0.1,0.5,0.2,1,0.5,1c0.4,0.1,0.7-0.3,0.8-0.8
		C178.4,303.5,178.2,303,177.8,303z M173.7,304.4c-0.2,0.4,0,0.9,0.6,1.2c0.5,0.3,1.1,0.2,1.3-0.2c0.2-0.4,0-0.9-0.6-1.2
		C174.5,304,173.9,304.1,173.7,304.4z M158.7,289.3c7-4.6,14.1-5.1,16.5-3.2c0,0,0,0,0,0c0,0,0-0.1-0.1-0.1l0,0
		c-0.6-1.3-2-2.2-3.3-2.6c0.2,0.2,0.5,0.7,0.7,0.9c-1-0.7-2.2-1.2-3.6-1.5c0,0,0.2,0.1,0.2,0.1c0.3,0.2,0.6,0.6,0.8,1
		c-1.3-0.5-2.9-0.8-4.3-0.5c0,0-0.2,0-0.2,0s0.2,0,0.2,0.1c0.5,0.1,1.1,0.4,1.4,0.8c-2.3-0.4-4.8,0-6.2,0.8c0.2,0,0.2,0,0.3,0
		c0.5,0,1.5,0.1,1.9,0.3c-1.4,0.3-3.5,0.9-4.7,1.9c0.2,0,1.3-0.2,1.8-0.1c-6.2,3.5-9,8.9-9,8.9l0,0
		C153.1,293.7,155.5,291.4,158.7,289.3z"/>
	<path class="st7" d="M175.3,299.3c0-0.5,0.1-1.3,0.5-1.4l0,0c0,0,0,0,0,0l0,0c0.8-0.3,1.8,1.7,1.9,3.5c-0.6-0.3-1.3-0.4-2.1-0.4
		C175.5,300.4,175.4,299.9,175.3,299.3z"/>
</g>
<g>
	<path class="st15" d="M59.9,233.6c-2.5,0-4.6,2-4.6,4.6c0,2.5,2,4.6,4.6,4.6c2.5,0,4.6-2,4.6-4.6C64.4,235.6,62.4,233.6,59.9,233.6
		 M89.8,233.6c-2.5,0-4.6,2-4.6,4.6c0,2.5,2,4.6,4.6,4.6c2.5,0,4.6-2,4.6-4.6C94.3,235.6,92.3,233.6,89.8,233.6 M74.8,229.4
		c-2.5,0-4.6,2-4.6,4.6c0,2.5,2,4.6,4.6,4.6c2.5,0,4.6-2,4.6-4.6C79.4,231.4,77.3,229.4,74.8,229.4 M100.5,246.3
		c-0.2-0.2-0.6-0.3-0.9-0.3c-0.2,0-0.3,0-0.5,0.1c-3.1,1.2-6.2,2.1-9.1,2.7c-0.6,0.1-1.1,0.6-1.2,1.1c-2.1,5.7-7.4,11.1-13,16.8
		c-0.2,0.2-0.5,0.5-1,0.5c-0.5,0-0.8-0.3-1-0.5c-5.6-5.7-10.9-11.1-13-16.8c-0.2-0.5-0.7-1-1.2-1.1c-2.9-0.7-6-1.6-9.1-2.8
		c-0.2-0.1-0.3-0.1-0.5-0.1c-0.3,0-0.6,0.1-0.9,0.3c-0.4,0.3-0.6,0.8-0.6,1.3c0.5,4.7,2.3,9.4,5.7,14.2c3.2,4.6,7.3,8.8,11.3,12.9
		c7.4,7.5,14.4,14.6,15,22.9c0.1,0.7,0.7,1.3,1.4,1.3h8.7c0.8,0,1.4-0.6,1.4-1.4c0,0,0,0,0-0.1c-0.3-5.5-2.3-11-6.3-16.9
		c-0.8-1.2-1.7-2.4-2.7-3.6c-0.4-0.5-0.2-1.1,0.1-1.4c0.3-0.3,0.6-0.6,0.9-0.9c4-4.1,8.2-8.3,11.3-12.9c3.4-4.9,5.3-9.5,5.7-14.2
		C101.1,247.1,100.9,246.6,100.5,246.3 M65.5,281c-0.2-0.2-0.5-0.4-1-0.4c-0.6,0-1,0.4-1.2,0.7c-3.6,5.6-5.5,10.8-5.8,16.1
		c0,0.4,0.1,0.8,0.4,1.1c0.3,0.3,0.6,0.4,1,0.4h8.7c0.7,0,1.4-0.6,1.4-1.3c0.2-2.5,1-5.1,2.4-7.8c0.5-0.9,0.1-1.8-0.2-2.2
		C69.8,285.7,68.1,283.8,65.5,281"/>
	<path class="st15" d="M74.8,250.5c2.7,0,4.3-0.2,4.9-0.2c0.7,0,1.3,0.6,1.3,1.3c0,0.2-0.1,0.4-0.1,0.5c-0.4,1-2,4.4-5.1,7.4
		c-0.3,0.3-0.7,0.4-1,0.4h0c-0.3,0-0.7-0.1-1-0.4c-3.1-3-4.7-6.4-5.1-7.4c-0.1-0.1-0.1-0.3-0.1-0.5c0-0.8,0.6-1.3,1.3-1.3
		C70.5,250.4,72.1,250.5,74.8,250.5L74.8,250.5"/>
</g>
<g>
	<path class="st16" d="M227.7,151.1h-17.2v-17.2c0-1-0.8-1.9-1.9-1.9c-1,0-1.9,0.8-1.9,1.9V151h-17.1c-1,0-1.9,0.8-1.9,1.9
		c0,1,0.8,1.9,1.9,1.9h17.2v17.2c0,1,0.8,1.9,1.9,1.9c1,0,1.9-0.8,1.9-1.9v-17.1h17.1c1,0,1.9-0.8,1.9-1.9
		C229.6,151.9,228.7,151.1,227.7,151.1z"/>
	<path class="st16" d="M208.1,123.3c-14.8,0-27,11-29,25.3l-14-7.2c-0.4-0.2-0.8-0.2-1.2,0l-36,18.5c-0.2,0.1-0.4,0.3-0.5,0.5
		c-0.3,0.3-0.5,0.6-0.5,1l0.1,42.8l36.4,18.2c0.2,0.1,0.4,0.1,0.6,0.1c0.2,0.1,0.4,0.1,0.5,0.1c0.2,0,0.4,0,0.6-0.1l36-17.5
		c0.5-0.2,0.8-0.7,0.8-1.2l-0.1-22.5c2,0.4,4,0.7,6.1,0.7c16.2,0,29.3-13.1,29.3-29.3C237.5,136.4,224.3,123.3,208.1,123.3z
		 M164.6,144.2l9.6,4.9l-32.2,17.3l-10.4-5.3L164.6,144.2z M129.8,202.5l-0.1-39.3l9.4,4.8v16.4l12.7,6v-15.9l11.5,5.9l0.1,38.8
		L129.8,202.5z M164.6,178l-10.7-5.5l25.5-13.9c0.7,3.5,2.1,6.8,4,9.7L164.6,178z M166,219.1l-0.1-38.7l19.1-9.8
		c3.6,4.6,8.5,8.1,14.2,9.9l0.1,22.4L166,219.1z M227,171.5c-5,5-11.7,7.8-18.9,7.8c-7.1,0-13.8-2.8-18.9-7.8
		c-5-5-7.8-11.7-7.8-18.9c0-7.1,2.8-13.8,7.8-18.9c5-5,11.7-7.8,18.9-7.8c7.1,0,13.8,2.8,18.9,7.8c5,5,7.8,11.7,7.8,18.9
		C234.8,159.7,232.1,166.4,227,171.5z"/>
</g>
<g>
	<path class="st17" d="M335.7,176.1c0-0.3-0.3-0.5-0.6-0.5c-0.2,0-5.3-0.4-5.3-0.4s-3.5-3.5-3.9-3.9c-0.4-0.4-1.1-0.3-1.4-0.2
		c0,0-0.8,0.2-2,0.6c-1.2-3.4-3.2-6.5-6.9-6.5c-0.1,0-0.2,0-0.3,0c-1-1.4-2.3-2-3.4-2c-8.5,0-12.6,10.6-13.8,16
		c-3.3,1-5.6,1.7-5.9,1.8c-1.8,0.6-1.9,0.6-2.1,2.4c-0.2,1.3-5,38.6-5,38.6l37.6,7l20.4-4.4C342.9,224.7,335.7,176.4,335.7,176.1
		L335.7,176.1z M320.4,172.3c-0.9,0.3-2,0.6-3.2,1c0-0.2,0-0.4,0-0.7c0-2.1-0.3-3.8-0.8-5.1C318.4,167.7,319.6,169.9,320.4,172.3
		L320.4,172.3z M314.1,167.9c0.5,1.3,0.9,3.2,0.9,5.7c0,0.1,0,0.2,0,0.4c-2.1,0.6-4.3,1.3-6.6,2
		C309.7,171.2,312.1,168.8,314.1,167.9L314.1,167.9z M311.6,165.5c0.4,0,0.7,0.1,1.1,0.4c-2.7,1.3-5.6,4.5-6.9,11
		c-1.8,0.6-3.6,1.1-5.2,1.6C302.1,173.5,305.5,165.5,311.6,165.5L311.6,165.5z"/>
	<path class="st18" d="M335.1,175.5c-0.2,0-5.3-0.4-5.3-0.4s-3.5-3.5-3.9-3.9c-0.1-0.1-0.3-0.2-0.5-0.2l-2.8,58.1l20.4-4.4
		c0,0-7.1-48.3-7.2-48.6C335.6,175.7,335.3,175.6,335.1,175.5"/>
	<path class="st2" d="M315.6,186.8l-2.5,7.5c0,0-2.2-1.2-4.9-1.2c-4,0-4.2,2.5-4.2,3.1c0,3.4,8.9,4.7,8.9,12.7
		c0,6.3-4,10.3-9.4,10.3c-6.4,0-9.7-4-9.7-4l1.7-5.7c0,0,3.4,2.9,6.3,2.9c1.9,0,2.6-1.5,2.6-2.5c0-4.4-7.3-4.6-7.3-12
		c0-6.2,4.4-12.1,13.3-12.1C313.9,185.8,315.6,186.8,315.6,186.8"/>
</g>
<g>
	<path class="st19" d="M119.8,15.2c4.1-0.4,8.2,0.1,12,1.5c5.8,2,11,5.9,14.5,11c1.8,2.6,3.2,5.6,4.1,8.7c1.6,5.7,1.4,12-0.5,17.6
		c-1.5,4.4-4.1,8.4-7.5,11.6c-3.7,3.5-8.3,6-13.2,7.2c-6.4,1.6-13.4,0.9-19.4-2c-5.5-2.6-10.1-7-13.1-12.3c-1.7-3.1-2.8-6.4-3.3-9.9
		c-0.6-4-0.3-8.2,0.8-12.2c1.5-5.2,4.4-10,8.4-13.7C107.4,18.4,113.5,15.7,119.8,15.2L119.8,15.2z"/>
	<g>
		<path class="st2" d="M112,49c-1.6-1.6-3.2-3.2-4.8-4.8c1.6-1.7,3.3-3.3,5-5c0.3-0.3,0.4-0.8,0.1-1.1c-0.3-0.5-1-0.6-1.4-0.2
			c-1.7,1.7-3.3,3.3-5,5c-1.7-1.6-3.3-3.3-4.9-4.9c-0.2-0.2-0.5-0.4-0.9-0.3c-0.5,0.1-0.8,0.5-0.7,1c0,0.4,0.4,0.6,0.6,0.9
			c1.5,1.5,3,3,4.6,4.6c0,0,0,0.1,0,0.1c-1.6,1.7-3.3,3.3-5,5c-0.2,0.2-0.3,0.6-0.2,0.9c0.1,0.4,0.6,0.7,1,0.6
			c0.4,0,0.6-0.4,0.8-0.6c1.6-1.5,3.1-3.1,4.7-4.6c1.7,1.6,3.3,3.3,4.9,4.9c0.2,0.2,0.6,0.4,0.9,0.3c0.4-0.1,0.7-0.5,0.7-0.9
			C112.4,49.5,112.2,49.2,112,49z"/>
		<path class="st2" d="M123.5,39.6c-1-1-2.3-1.6-3.7-1.8c-1.7-0.2-3.5,0.2-4.8,1.2c-2.2,1.6-3.2,4.5-2.4,7.1
			c0.4,1.5,1.4,2.8,2.6,3.6c1.2,0.8,2.7,1.3,4.2,1.1c1-0.1,2.1-0.4,3-1c0.7-0.4,1.3-1,1.8-1.7c0.2-0.3,0.3-0.6,0.2-1
			c-0.2-0.5-0.8-0.8-1.3-0.5c-0.3,0.2-0.4,0.5-0.6,0.7c-0.6,0.7-1.4,1.2-2.2,1.4c-1.5,0.4-3.1,0.1-4.3-0.9c-0.9-0.7-1.5-1.8-1.7-2.9
			c3,0,6,0,9.1,0c0.5,0,1,0,1.4-0.3c0.5-0.3,0.8-1,0.7-1.6C125,41.7,124.4,40.5,123.5,39.6z M114.2,43.1c0.3-1.2,1-2.2,2-2.8
			c1.2-0.8,2.8-1,4.1-0.5c1.5,0.5,2.7,1.8,3,3.3C120.4,43.1,117.3,43.1,114.2,43.1z"/>
		<path class="st2" d="M144.5,41.9c-0.5-1.4-1.6-2.6-2.9-3.3c-1.2-0.7-2.7-1-4.1-0.8c-2.1,0.3-4.1,1.7-5,3.6c-0.8,1.5-0.9,3.4-0.3,5
			c0.4,1.3,1.2,2.4,2.3,3.2c1.1,0.9,2.6,1.3,4,1.3c1.4,0,2.8-0.5,4-1.4c1.1-0.9,2-2.1,2.3-3.5C145.1,44.6,145,43.1,144.5,41.9z
			 M142.2,46.9c-0.7,1-1.7,1.7-2.9,1.9c-1,0.2-2.1,0.1-3.1-0.4c-1.3-0.6-2.2-1.9-2.5-3.3c-0.3-1.3,0-2.7,0.8-3.7
			c0.7-0.9,1.8-1.6,2.9-1.8c1-0.2,2-0.1,2.8,0.4c1.3,0.6,2.3,1.8,2.6,3.2C143.3,44.5,143,45.9,142.2,46.9z"/>
		<path class="st2" d="M132.3,39c0.2-0.5-0.2-1-0.6-1.1c-1-0.1-2,0.1-2.8,0.7c-0.1-0.5-0.7-0.8-1.1-0.6c-0.4,0.1-0.7,0.5-0.7,0.9
			c0,3.6,0,7.3,0,10.9c0,0.5,0.4,1,0.9,1c0.5,0,0.9-0.4,0.9-0.9c0-2.1,0-4.2,0-6.3c0-0.8,0-1.6,0.1-2.4c0.1-0.5,0.4-0.9,0.8-1.1
			c0.5-0.3,1.1-0.4,1.6-0.4C131.8,39.6,132.2,39.3,132.3,39z"/>
		<path class="st2" d="M138,42.7c-0.5,0.1-1,0.5-1.1,1.1c-0.2,0.5-0.1,1.1,0.3,1.6c0.4,0.5,1.1,0.7,1.8,0.5c0.7-0.2,1.2-0.9,1.1-1.7
			C140,43.1,138.9,42.4,138,42.7z"/>
	</g>
</g>
<g id="XMLID_2_">
	<rect id="XMLID_6_" x="67" y="60.1" class="st20" width="5.2" height="53.4"/>
	<path id="XMLID_5_" class="st21" d="M38.6,72.3h6.6V60.1h8.7v12.2h7.9V79h-7.9v21.7c0,0.9,0,1.8,0.1,2.4c0.1,0.7,0.3,1.3,0.5,1.7
		c0.3,0.5,0.7,0.8,1.3,1.1c0.6,0.2,1.3,0.4,2.3,0.4c0.6,0,1.2,0,1.8,0c0.6,0,1.2-0.1,1.8-0.3v6.9c-1,0.1-1.9,0.2-2.8,0.3
		c-0.9,0.1-1.9,0.2-2.8,0.2c-2.3,0-4.1-0.2-5.5-0.7c-1.4-0.4-2.5-1.1-3.3-2c-0.8-0.9-1.3-2-1.6-3.3c-0.3-1.3-0.4-2.8-0.5-4.5V79
		h-6.6V72.3"/>
</g>
<g>
	<path class="st22" d="M221.2,12.8c-1-3.2-4.5-4.9-7.6-3.9c-3.2,1-4.9,4.5-3.9,7.6l15.7,48.2c1.1,3,4.3,4.6,7.4,3.8
		c3.2-0.9,5.2-4.3,4.1-7.5L221.2,12.8"/>
	<path class="st23" d="M197,20.7c-1-3.2-4.5-4.9-7.6-3.9c-3.2,1-4.9,4.5-3.9,7.6l15.7,48.2c1.1,3,4.3,4.6,7.4,3.8
		c3.2-0.9,5.2-4.3,4.1-7.5L197,20.7"/>
	<path class="st24" d="M241,52.7c3.2-1,4.9-4.5,3.9-7.6c-1-3.2-4.5-4.9-7.6-3.9L189,56.9c-3,1.1-4.6,4.3-3.8,7.4
		c0.9,3.2,4.3,5.2,7.5,4.1L241,52.7"/>
	<path class="st25" d="M199.1,66.3l11.5-3.7l-3.7-11.5l-11.5,3.7L199.1,66.3"/>
	<path class="st26" d="M223.3,58.5c4.4-1.4,8.4-2.7,11.5-3.7l-3.7-11.5l-11.5,3.7L223.3,58.5"/>
	<path class="st27" d="M233.1,28.5c3.2-1,4.9-4.5,3.9-7.6c-1-3.2-4.5-4.9-7.6-3.9l-48.2,15.7c-3,1.1-4.6,4.3-3.8,7.4
		c0.9,3.2,4.3,5.2,7.5,4.1L233.1,28.5"/>
	<path class="st28" d="M191.2,42.1c3.1-1,7.2-2.3,11.5-3.7c-1.4-4.4-2.7-8.4-3.7-11.5l-11.5,3.7L191.2,42.1"/>
	<path class="st29" d="M215.5,34.2l11.5-3.7c-1.2-3.8-2.5-7.7-3.7-11.5l-11.5,3.7L215.5,34.2"/>
</g>
</svg>
