<svg id="Layer_1" data-name="Layer 1" xmlns="http://www.w3.org/2000/svg" viewBox="0 0 600 600"><defs><style>.st0{fill:#748798;}</style></defs><title>app_icons</title><path class="st0" d="M27.8,4C14.1,4,3,15.1,3,28.8v542.3C3,584.9,14.1,596,27.8,596h542.3c13.7,0,24.8-11.1,24.8-24.8V302
	c0-13.7-11.1-24.8-24.8-24.8s-24.8,11.1-24.8,24.8v244.3H52.7V53.7h244.3c13.7,0,24.8-11.1,24.8-24.8c0-13.7-11.1-24.8-24.8-24.8
	H27.8z M423,4.1c-13.7,0-24.8,11.1-24.8,24.8c0,13.7,11.1,24.8,24.8,24.8h87.2L319.5,244.5c-9.7,9.7-9.7,25.4,0,35.1
	c4.8,4.8,11.2,7.3,17.6,7.3c6.4,0,12.7-2.4,17.6-7.3L545.3,88.9v87.2c0,13.7,11.2,24.8,24.8,24.8c13.7,0,24.8-11.1,24.8-24.8V28.9
	c0-13.7-11.1-24.8-24.8-24.8L423,4.1L423,4.1z"/></svg>