<svg id="Layer_1" data-name="Layer 1" xmlns="http://www.w3.org/2000/svg" viewBox="0 0 600 600"><defs><style>.cls-1{fill:#6e8393;}</style></defs><title>app_icons</title><path class="cls-1" d="M298.05,2.88C133.59,2.88.31,136.16.31,300.62S133.59,598.36,298.05,598.36,595.79,465.08,595.79,300.62,462.51,2.88,298.05,2.88Zm191.76,489.5A271.19,271.19,0,0,1,106.29,108.86,271.19,271.19,0,0,1,489.81,492.38Z"/><path class="cls-1" d="M315.55,318.12H474.19a17.22,17.22,0,1,0,0-34.43H315V124.48a17.22,17.22,0,1,0-34.43,0V283.12H121.91a17.22,17.22,0,1,0,0,34.43H281.12V476.76a17.22,17.22,0,1,0,34.43,0Z"/></svg>