<svg id="Layer_1" data-name="Layer 1" xmlns="http://www.w3.org/2000/svg" viewBox="0 0 600 600"><defs><style>.cls-1{fill:#afc0cc;}</style></defs><title>app_icons</title><path class="cls-1" d="M538.47,217.36,487.8,235l8.82,25.32c38.65,110.9-20.13,232.58-131,271.22a213,213,0,0,1-271.21-131C55.75,289.64,114.51,168,225.39,129.33A212.65,212.65,0,0,1,365,129.16l-53.28,20.71,19.43,50,143.22-55.67L407.68,4.45,359.25,27.54l24.48,51.37a266.37,266.37,0,0,0-176-.25C68.91,127.07-4.66,279.36,43.72,418.18a266.16,266.16,0,0,0,339.52,164c138.83-48.39,212.42-200.71,164-339.55Z"/></svg>