<svg id="Layer_1" data-name="Layer 1" xmlns="http://www.w3.org/2000/svg" viewBox="0 0 600 600"><defs><style>.cls-1{fill:#b0c0cc;}</style></defs><title>app_icons</title><path class="cls-1" d="M342.26,5.63C203.05,5.63,89.77,118.9,89.77,258.13a251.53,251.53,0,0,0,59.41,162.08L8.38,555.32a22.53,22.53,0,1,0,31.2,32.52L181.13,452a251.6,251.6,0,0,0,161.13,58.6c139.23,0,252.5-113.28,252.5-252.49S481.49,5.63,342.26,5.63ZM549.7,258.13c0,114.36-93.05,207.41-207.44,207.41S134.85,372.49,134.85,258.13,227.9,50.71,342.26,50.71,549.7,143.75,549.7,258.13Z"/></svg>