<svg id="Layer_1" data-name="Layer 1" xmlns="http://www.w3.org/2000/svg" viewBox="0 0 600 600"><defs><style>.cls-1{fill:#ed6e7e}</style></defs><path class="cls-1" d="M473.28 593.52H127.84A54.63 54.63 0 0 1 73.28 539V61.81a54.62 54.62 0 0 1 54.56-54.56h345.44a54.61 54.61 0 0 1 54.56 54.56V539a54.62 54.62 0 0 1-54.56 54.52zM127.84 58.17a3.73 3.73 0 0 0-3.63 3.64V539a3.73 3.73 0 0 0 3.63 3.64h345.44a3.73 3.73 0 0 0 3.64-3.64V61.81a3.73 3.73 0 0 0-3.64-3.64z"/><path class="cls-1" d="M181.61 123.07H422.9v50.92H181.61zm0 101.35H422.9v50.92H181.61z"/><path class="cls-1" transform="rotate(-.7 265.505 352.772)" d="M181.6 325.75h164.93v50.92H181.6z"/></svg>