<svg id="Layer_1" data-name="Layer 1" xmlns="http://www.w3.org/2000/svg" viewBox="0 0 600 600"><defs><style>.cls-1{fill:#6e8393}</style></defs><path class="cls-1" d="M471.16 593.52H125.72A54.62 54.62 0 0 1 71.16 539V61.81a54.61 54.61 0 0 1 54.56-54.56h345.44a54.62 54.62 0 0 1 54.56 54.56V539a54.63 54.63 0 0 1-54.56 54.52zM125.72 58.17a3.73 3.73 0 0 0-3.64 3.64V539a3.73 3.73 0 0 0 3.64 3.64h345.44a3.73 3.73 0 0 0 3.63-3.64V61.81a3.73 3.73 0 0 0-3.63-3.64z"/><path class="cls-1" d="M179.49 123.07h241.29v50.92H179.49zm0 101.35h241.29v50.92H179.49z"/><path class="cls-1" transform="rotate(-.7 263.05 352.757)" d="M179.48 325.75h164.93v50.92H179.48z"/></svg>