<svg data-name="Layer 1" xmlns="http://www.w3.org/2000/svg" viewBox="0 0 600 600"><path d="M557.81 102.47a40.58 40.58 0 0 0-29.5-12.42H486.4V58.23A51 51 0 0 0 470.88 21a51 51 0 0 0-37.25-15.54h-21A51 51 0 0 0 375.42 21a51 51 0 0 0-15.53 37.25v31.8h-126.5V58.23A51 51 0 0 0 217.86 21a51 51 0 0 0-37.25-15.54h-21A51 51 0 0 0 122.4 21a51 51 0 0 0-15.52 37.25v31.8H65c-11.65 0-21 3.89-29.5 12.42S23.06 120.32 23.06 132v422.18c0 11.64 3.88 21 12.41 29.49S53.32 596.09 65 596.09h464.09c11.64 0 20.95-3.88 29.49-12.42A40.53 40.53 0 0 0 571 554.18V132c-.78-10.9-4.66-21-13.19-29.53zM401.8 59h41.92v74.51H401.8zm-253-.78h41.9v74.51h-41.91zm10.09 495.95h-94.7v-94.68h94.69zm0-115.64h-94.7V333h94.69zm0-126.51h-94.7v-94.68h94.69zm126.5 242.16H179.83v-94.69h105.56zm0-115.64H179.83V333h105.56zm0-126.51H179.83v-94.69h105.56zm126.5 242.15H306.34v-94.69h105.55zm0-115.64H306.34V333h105.55zm0-126.51H306.34v-94.69h105.55zm116.42 242.15h-94.68v-94.69h94.68zm0-115.64h-94.68V333h94.68zm0-126.51h-94.68v-94.69h94.68z" fill="#b8c4cf"/></svg>