<svg data-name="Layer 1" xmlns="http://www.w3.org/2000/svg" viewBox="0 0 600 600"><path d="M558.83 102.48a40.35 40.35 0 0 0-29.36-12.37h-41.73V58.43a50.76 50.76 0 0 0-15.45-37.09 50.75 50.75 0 0 0-37.1-15.46h-20.86a50.73 50.73 0 0 0-37.09 15.46 50.73 50.73 0 0 0-15.46 37.09v31.68H235.83V58.43a50.73 50.73 0 0 0-15.46-37.09 50.73 50.73 0 0 0-37.09-15.46h-20.86a50.75 50.75 0 0 0-37.1 15.46 50.76 50.76 0 0 0-15.45 37.09v31.68H68.14c-11.59 0-20.86 3.87-29.36 12.37s-12.37 17.77-12.37 29.36v420.37c0 11.59 3.87 20.87 12.37 29.37s17.77 12.36 29.36 12.36h462.1c11.59 0 20.87-3.86 29.37-12.36A40.36 40.36 0 0 0 572 552.21V131.84a44.57 44.57 0 0 0-13.17-29.36zM403.51 59.2h41.73v74.19h-41.73zm-251.91-.77h41.72v74.18H151.6zm10 493.78H67.37v-94.27h94.27zm0-115.14H67.37V332h94.27zm0-125.95H67.37v-94.28h94.27zm126 241.09H182.51v-94.27H287.6zm0-115.14H182.51V332H287.6zm0-125.95H182.51v-94.28H287.6zm126 241.09H308.46v-94.27h105.1zm0-115.14H308.46V332h105.1zm0-125.95H308.46v-94.28h105.1zm115.87 241.09h-94.28v-94.27h94.28zm0-115.14h-94.28V332h94.28zm0-125.95h-94.28v-94.28h94.28z" fill="#ed6e7e"/></svg>