<svg id="Layer_1" data-name="Layer 1" xmlns="http://www.w3.org/2000/svg" viewBox="0 0 600 600"><defs><style>.cls-1{fill:#4f7fc0}</style></defs><path class="cls-1" d="M466.22 593.52H120.78A54.62 54.62 0 0 1 66.22 539V61.81a54.61 54.61 0 0 1 54.56-54.56h345.44a54.62 54.62 0 0 1 54.56 54.56V539a54.63 54.63 0 0 1-54.56 54.52zM120.78 58.17a3.73 3.73 0 0 0-3.64 3.64V539a3.73 3.73 0 0 0 3.64 3.64h345.44a3.73 3.73 0 0 0 3.64-3.64V61.81a3.73 3.73 0 0 0-3.64-3.64z"/><path class="cls-1" d="M174.55 123.07h241.29v50.92H174.55zm0 101.35h241.29v50.92H174.55z"/><path class="cls-1" transform="rotate(-.7 258.138 352.727)" d="M174.54 325.75h164.93v50.92H174.54z"/></svg>