<svg data-name="Layer 1" xmlns="http://www.w3.org/2000/svg" viewBox="0 0 600 600"><path d="M557.66 102.48a40.37 40.37 0 0 0-29.37-12.37h-41.73V58.43a50.76 50.76 0 0 0-15.45-37.09A50.74 50.74 0 0 0 434 5.88h-20.85a50.74 50.74 0 0 0-37.09 15.46 50.76 50.76 0 0 0-15.45 37.09v31.68h-126V58.43a50.73 50.73 0 0 0-15.46-37.09A50.73 50.73 0 0 0 182.1 5.88h-20.86a50.73 50.73 0 0 0-37.09 15.46 50.73 50.73 0 0 0-15.46 37.09v31.68H67c-11.63 0-20.9 3.89-29.4 12.37s-12.37 17.77-12.37 29.36v420.37c0 11.59 3.87 20.87 12.37 29.37s17.77 12.36 29.4 12.36h462.1c11.6 0 20.87-3.86 29.37-12.36a40.36 40.36 0 0 0 12.36-29.37V131.84a44.56 44.56 0 0 0-13.17-29.36zM402.33 59.2h41.73v74.19h-41.73zm-251.91-.77h41.73v74.18h-41.73zm10 493.78H66.19v-94.27h94.27zm0-115.14H66.19V332h94.27zm0-125.95H66.19v-94.28h94.27zm126 241.09H181.33v-94.27h105.09zm0-115.14H181.33V332h105.09zm0-125.95H181.33v-94.28h105.09zm126 241.09H307.29v-94.27h105.09zm0-115.14H307.29V332h105.09zm0-125.95H307.29v-94.28h105.09zm115.87 241.09H434v-94.27h94.27zm0-115.14H434V332h94.27zm0-125.95H434v-94.28h94.27z" fill="#4f7fc0"/></svg>