<svg data-name="Layer 1" xmlns="http://www.w3.org/2000/svg" viewBox="0 0 600 600"><path d="M517.85 597.42c20.41 0 40.82-7.85 54.94-23.55 31.4-31.39 31.4-80.06 0-111.45L411.11 300.74l163.25-163.26c31.4-31.39 31.4-80.06 0-111.45s-80.05-31.4-111.45 0L299.66 189.28 136.41 26C105-5.37 56.35-5.37 25 26s-31.39 80.06 0 111.45l163.21 163.29L25 464c-31.39 31.39-31.39 80.06 0 111.45C40.7 591.15 61.11 599 80 599s40.81-7.85 54.94-23.55l164.72-163.26 163.25 163.25c15.7 14.13 34.54 21.98 54.94 21.98z" fill="#a0b4c5"/></svg>