<svg id="Layer_1" xmlns="http://www.w3.org/2000/svg" viewBox="0 0 16 16"><style>.st0{fill:#3c87f3}</style><path class="st0" d="M15.1 2.1L13.9.9C12.8-.2 11-.2 9.9.9L7.7 3.1c.6 0 1.3.2 1.8.5L11 2.1c.5-.5 1.2-.5 1.6 0l1.2 1.2c.2.2.3.5.3.8s-.1.6-.3.8L9.3 9.5c-.4.5-1.2.5-1.6 0l-.6-.6c-.3-.3-.9-.3-1.2 0-.3.3-.3.9 0 1.2l.6.6c.6.6 1.3.8 2 .8s1.5-.3 2-.8l4.6-4.6c1.1-1.1 1.1-2.9 0-4z"/><path class="st0" d="M4.9 13.9c-.5.5-1.2.5-1.7 0L2 12.7c-.5-.5-.5-1.2 0-1.6l4.6-4.6c.5-.5 1.3-.5 1.7 0l.6.6c.3.3.9.3 1.2 0 .3-.3.3-.9 0-1.2l-.6-.6c-1.1-1.1-2.9-1.1-4 0L.9 9.9c-1.1 1.1-1.1 2.9 0 4l1.2 1.2c.5.5 1.2.8 2 .8s1.5-.3 2-.8l2.2-2.2c-.6 0-1.3-.2-1.8-.5l-1.6 1.5z"/></svg>