<svg data-name="Layer 1" xmlns="http://www.w3.org/2000/svg" viewBox="0 0 600 600"><path d="M459.64 245.25h-11.47v-84.17a161.46 161.46 0 0 0-98.5-148.59 161.16 161.16 0 0 0-176.81 34.56 160.92 160.92 0 0 0-47.23 114v84.17h-11.48a43.7 43.7 0 0 0-43.66 43.66v264.4a43.7 43.7 0 0 0 43.66 43.66h345.49a43.7 43.7 0 0 0 43.65-43.66V288.91a43.7 43.7 0 0 0-43.65-43.66zm-292.55 0v-84.17a119.81 119.81 0 0 1 239.61 0v84.17zm294.74 43.66v264.37a2.19 2.19 0 0 1-2.19 2.2H114.15a2.2 2.2 0 0 1-2.2-2.2V288.91a2.2 2.2 0 0 1 2.2-2.2h345.49a2.19 2.19 0 0 1 2.19 2.2z" fill="#afc0cc"/></svg>