<svg id="Layer_1" xmlns="http://www.w3.org/2000/svg" viewBox="0 0 357.4 345.5"><style>.st2,.st3{fill:#fff}.st3{fill-rule:evenodd;clip-rule:evenodd}.st7{fill:#684c46}.st12{fill:#122030}.st15{fill:#264970}.st16{fill:#2a4c68}</style><circle cx="173.9" cy="173.3" r="137.9" fill="#eceef0"/><path d="M295.3 80.9c2.7-2.8 6.5-4.6 10.6-4.6 5.5 0 10.4 3.1 12.9 7.7 2.2-1 4.7-1.6 7.3-1.6 10 0 18.1 8.2 18.1 18.2 0 10.1-8.1 18.2-18.1 18.2-1.2 0-2.4-.1-3.6-.4-2.3 4-6.6 6.8-11.5 6.8-2.1 0-4-.5-5.8-1.3-2.3 5.4-7.6 9.2-13.9 9.2-6.5 0-12-4.1-14.2-9.9-.9.2-1.9.3-2.9.3-7.7 0-14-6.3-14-14.1 0-5.2 2.8-9.8 7-12.3-.9-2-1.3-4.2-1.3-6.5 0-9 7.3-16.3 16.3-16.3 5.4.2 10.1 2.7 13.1 6.6z" fill="#00a1e0"/><path class="st2" d="M272.5 105c-.1.1 0 .2 0 .2.2.1.3.2.5.3.9.5 1.7.6 2.5.6 1.7 0 2.8-.9 2.8-2.4 0-1.4-1.2-1.9-2.3-2.2h-.1c-.9-.3-1.6-.5-1.6-1.1 0-.5.4-.8 1.1-.8.7 0 1.6.2 2.2.6 0 0 .2.1.2-.1 0-.1.3-.9.3-.9 0-.1 0-.2-.1-.2-.6-.4-1.5-.7-2.5-.7h-.2c-1.6 0-2.7 1-2.7 2.3 0 1.4 1.2 1.9 2.3 2.2l.2.1c.8.3 1.5.5 1.5 1.1 0 .5-.5.9-1.2.9-.3 0-1.2 0-2.2-.6-.1-.1-.2-.1-.3-.2 0 0-.2-.1-.2.1l-.2.8zm25.2 0c-.1.1 0 .2 0 .2.2.1.3.2.5.3.9.5 1.7.6 2.5.6 1.7 0 2.8-.9 2.8-2.4 0-1.4-1.2-1.9-2.3-2.2h-.1c-.9-.3-1.6-.5-1.6-1.1 0-.5.4-.8 1.1-.8.7 0 1.6.2 2.2.6 0 0 .2.1.2-.1 0-.1.3-.9.3-.9 0-.1 0-.2-.1-.2-.6-.4-1.5-.7-2.5-.7h-.2c-1.6 0-2.7 1-2.7 2.3 0 1.4 1.2 1.9 2.3 2.2l.2.1c.8.3 1.5.5 1.5 1.1 0 .5-.5.9-1.2.9-.3 0-1.2 0-2.2-.6-.1-.1-.2-.1-.3-.2 0 0-.2-.1-.2.1l-.2.8zm18.6-4.4c-.1-.5-.4-.9-.7-1.2-.3-.4-.7-.6-1.1-.8-.4-.2-1-.3-1.5-.3s-1.1.1-1.5.3c-.4.2-.8.5-1.1.8-.3.4-.5.8-.7 1.2-.1.5-.2 1-.2 1.5 0 .6.1 1.1.2 1.5.1.5.4.9.7 1.2.3.4.7.6 1.1.8.4.2 1 .3 1.5.3s1.1-.1 1.5-.3c.4-.2.8-.5 1.1-.8.3-.4.5-.8.7-1.2.1-.5.2-1 .2-1.5 0-.6 0-1.1-.2-1.5m-1.4 1.5c0 .8-.2 1.5-.5 2s-.8.7-1.4.7c-.6 0-1.1-.2-1.4-.7-.3-.5-.5-1.1-.5-2 0-.8.2-1.5.5-1.9.3-.5.8-.7 1.4-.7.6 0 1.1.2 1.4.7.3.4.5 1.1.5 1.9"/><path class="st3" d="M328.1 104.5c0-.1-.2-.1-.2-.1-.2.1-.4.2-.7.2-.2 0-.5.1-.8.1-.7 0-1.2-.2-1.6-.6-.4-.4-.6-1.1-.6-2 0-.8.2-1.4.6-1.9.3-.5.9-.7 1.6-.7.6 0 1 .1 1.5.2 0 0 .1 0 .2-.1.1-.3.2-.6.4-1 0-.1-.1-.2-.1-.2-.2-.1-.6-.2-1-.2-.3 0-.7-.1-1.1-.1-.6 0-1.1.1-1.6.3-.5.2-.8.5-1.2.8-.3.4-.5.8-.7 1.2-.2.5-.2 1-.2 1.5 0 1.2.3 2.2 1 2.9.6.7 1.6 1.1 2.8 1.1.7 0 1.5-.1 2-.4 0 0 .1 0 .1-.2l-.4-.8zm7.4-4.2c-.1-.5-.4-.9-.6-1.1-.3-.3-.6-.6-.9-.7-.4-.2-.9-.3-1.4-.3-.6 0-1.2.1-1.6.3-.4.2-.8.5-1.1.9-.3.4-.5.8-.7 1.3-.1.5-.2 1-.2 1.6 0 .6.1 1.1.2 1.6s.4.9.7 1.2c.3.3.7.6 1.2.8.5.2 1.1.3 1.8.3 1.4 0 2.1-.3 2.4-.5.1 0 .1-.1 0-.2l-.3-.9c0-.1-.2-.1-.2-.1-.3.1-.8.4-2 .4-.8 0-1.3-.2-1.7-.6-.4-.4-.5-.9-.6-1.6h4.9s.1 0 .1-.1c.1-.3.3-1.2 0-2.3zm-4.9 1c.1-.5.2-.8.4-1.1.3-.5.8-.7 1.4-.7.6 0 1.1.3 1.4.7.2.3.3.7.3 1.1h-3.5zm-34.1-1c-.1-.5-.4-.9-.6-1.1-.3-.3-.6-.6-.9-.7-.4-.2-.9-.3-1.4-.3-.6 0-1.2.1-1.6.3-.4.2-.8.5-1.1.9-.3.4-.5.8-.7 1.3-.1.5-.2 1-.2 1.6 0 .6.1 1.1.2 1.6s.4.9.7 1.2c.3.3.7.6 1.2.8.5.2 1.1.3 1.8.3 1.4 0 2.1-.3 2.4-.5.1 0 .1-.1 0-.2l-.3-.9c0-.1-.2-.1-.2-.1-.3.1-.8.4-2 .4-.8 0-1.3-.2-1.7-.6-.4-.4-.5-.9-.6-1.6h4.9s.1 0 .1-.1c.2-.3.4-1.2 0-2.3zm-4.8 1c.1-.5.2-.8.4-1.1.3-.5.8-.7 1.4-.7.6 0 1.1.3 1.4.7.2.3.3.7.3 1.1h-3.5z"/><path class="st2" d="M283.1 101.1h-.8c-.4 0-.8.1-1.2.2-.4.1-.7.3-1 .5-.3.2-.5.5-.7.8-.2.3-.3.7-.3 1.1 0 .4.1.8.2 1.1.1.3.4.6.6.8.3.2.6.3 1 .4.4.1.8.1 1.3.1s1 0 1.5-.1 1.1-.2 1.2-.2c.2 0 .3-.1.3-.1.1 0 .1-.2.1-.2v-4.4c0-1-.3-1.7-.8-2.1-.5-.4-1.3-.7-2.2-.7-.4 0-1 0-1.3.1 0 0-1.1.2-1.5.5 0 0-.1.1 0 .2l.3.9c0 .1.2.1.2.1h.1c.9-.5 2.1-.5 2.1-.5.5 0 .9.1 1.2.3.3.2.4.5.4 1.2v.2c-.3-.2-.7-.2-.7-.2zm-1.9 3.4l-.3-.3c-.1-.1-.1-.4-.1-.6 0-.4.1-.7.4-.9 0 0 .4-.4 1.4-.4.7 0 1.3.1 1.3.1v2.2s-.6.1-1.3.2c-1 0-1.4-.3-1.4-.3z"/><path class="st3" d="M322.3 98.6c0-.1 0-.2-.1-.2s-.5-.1-.8-.1c-.6 0-1 .1-1.3.2-.3.1-.6.4-.8.6v-.6c0-.1-.1-.1-.1-.1H318c-.1 0-.1.1-.1.1v7.3c0 .1.1.1.1.1h1.3c.1 0 .1-.1.1-.1v-3.6c0-.5.1-1 .2-1.3.1-.3.2-.5.4-.7.2-.2.4-.3.6-.4.2-.1.5-.1.7-.1.3 0 .5.1.5.1.1 0 .1 0 .2-.1.1-.3.3-1 .3-1.1zm-11.9-3.4c-.2 0-.3-.1-.5-.1s-.4-.1-.7-.1c-.9 0-1.6.2-2.1.7-.5.5-.8 1.2-1 2.2l-.1.3h-1s-.1 0-.2.1l-.2 1c0 .1 0 .2.2.2h1.1l-1.1 6.1c-.1.5-.2.9-.3 1.2-.1.3-.2.5-.3.7-.1.2-.2.3-.4.3-.2.1-.4.1-.6.1h-.4c-.1 0-.2 0-.3-.1 0 0-.1 0-.2.1 0 .1-.3.9-.4 1 0 .1 0 .2.1.2.1.1.2.1.4.1.3.1.5.1.7.1.4 0 .9-.1 1.2-.2.3-.1.6-.3.9-.6.3-.3.5-.6.6-1.1.2-.4.3-1 .4-1.6l1.1-6.2h1.6s.1 0 .2-.1l.2-1c0-.1 0-.2-.2-.2h-1.6s.1-.6.3-1.1c.1-.2.2-.4.3-.5.1-.1.3-.2.4-.3.2-.1.3-.1.5-.1h.4c.2 0 .2 0 .2.1.2 0 .2 0 .2-.1l.4-1c.3 0 .2-.1.2-.1zm-21.8 10.5c0 .1-.1.1-.1.1h-1.3c-.1 0-.1-.1-.1-.1V95.3c0-.1.1-.1.1-.1h1.3c.1 0 .1.1.1.1v10.4z"/><linearGradient id="SVGID_1_" gradientUnits="userSpaceOnUse" x1="363.575" y1="489.097" x2="363.575" y2="488.861" gradientTransform="matrix(256 0 0 -256 -92820 125463.234)"><stop offset="0" stop-color="#0091e6"/><stop offset="1" stop-color="#0079bf"/></linearGradient><path d="M230.8 254.5h48.6c3.3 0 5.9 2.6 5.9 5.9V309c0 3.3-2.6 5.9-5.9 5.9h-48.6c-3.3 0-5.9-2.6-5.9-5.9v-48.6c0-3.3 2.7-5.9 5.9-5.9z" fill="url(#SVGID_1_)"/><path class="st2" d="M261.9 262.3h12.8c1.6 0 2.8 1.3 2.8 2.8v20.8c0 1.6-1.3 2.8-2.8 2.8h-12.8c-1.6 0-2.8-1.3-2.8-2.8v-20.8c-.1-1.5 1.2-2.8 2.8-2.8zm-26.3 0h12.8c1.6 0 2.8 1.3 2.8 2.8V301c0 1.6-1.3 2.8-2.8 2.8h-12.8c-1.6 0-2.8-1.3-2.8-2.8v-35.8c0-1.6 1.2-2.9 2.8-2.9z"/><path d="M25.2 162.4c9.8-8.9 20.6-18.9 21-19.2.5-.5 1-1 1.6-1.4 4.1-3 9.8-2.8 13.6.6 3.8 3.4 4.7 9 2.2 13.5-.5.8-1 1.6-1.7 2.2-2.2 2.2-10.5 11-10.5 11s10.9 10.5 11.1 10.6c2.7 2.2 3.4 6 1.6 9-1.1 1.8-2.8 3-4.9 3.3-.6.1-8.5-7.5-17.3-13.7-5.5 6.2-16.5 18.6-16.6 18.6-4.7 3.3-10.4 1.5-13 0-3.6-2.1-6-5.8-6.4-9.9-.4-4.1 1.1-8.2 4.2-11 1.6-1.3 8.1-7.2 15.1-13.6z" fill="#0cb0f2"/><linearGradient id="SVGID_2_" gradientUnits="userSpaceOnUse" x1="362.024" y1="489.747" x2="361.876" y2="489.888" gradientTransform="matrix(168.25 0 0 -154.8884 -60878.996 76019.68)"><stop offset="0" stop-color="#905cfb"/><stop offset=".07" stop-color="#a554e6"/><stop offset=".25" stop-color="#d641b5"/><stop offset=".39" stop-color="#f43597"/><stop offset=".47" stop-color="#ff318c"/></linearGradient><path d="M44.6 165.6c-.3-2.2-1.5-4.1-3.2-5.5l-17-17.2c-2.9-2.9-7.1-3.9-11-2.7s-6.7 4.6-7.4 8.6 1 8.1 4.3 10.5l20.6 14.4c2.8 2.2 6.6 2.4 9.6.6 3.1-1.8 4.7-5.2 4.1-8.7z" fill="url(#SVGID_2_)"/><path d="M16.9 151h36.8v36.8H16.9z"/><path class="st2" d="M20.7 180.3h13.5v2.4H20.7v-2.4zm4.9-14.7l-6.2-9.8h4.1l3.9 6.5 3.9-6.5h4l-6.2 9.7v6.4h-3.5v-6.3zm15.2-6.5h-4.9v-3.3h13.3v3.3h-4.9v12.8h-3.5v-12.8z"/><path class="st7" d="M191.2 318c-.1.2-4.8 18.5-23.5 18.5-16.2 0-23.8-14.1-23.8-14.1-1.2.1-2.3-.1-3.4-.5-4.7-1.7-7-7.2-5.4-11.7l-2.6-2c-10.1-7.7 18.5-42.9 28.6-34.9.1 0 2.4 1.9 2.4 1.9 3.6-2.2 7.2-3.4 10.2-3.4 2.1 0 3.8.6 5 1.9 2.6 2.8 1.7 8.3-1.9 13.8.8.7 1.4 1.7 1.9 2.7 1.1.9 1.9 2.2 2.2 4.1.4 2.1.5 5 .8 6.2 1 .4.6.2 1.6.7 1.1.5 2.4 1.2 3.8 2.6 2.6.6 3.6 3.4 2 5.2 0 .1-.2.3-.4.5 0 .1.5.9.9 2.5 1.1.3 1.9.9 2.4 1.9.7 1.9-.8 4.1-.8 4.1zm-7.4 13.9v.8h.3v-.8h.3v-.2h-.9v.2h.3zm.7-.3v1h.3v-.7l.2.7h.2l.2-.7v.7h.3v-1h-.4l-.2.6-.2-.6h-.4z"/><path d="M147.7 311.2c.4-1 .6-1.9.6-1.9.5 1.4.7 2.9.6 4.4.4-.5.8-1.5.8-1.5.7 4.2-2.4 8.1-6.4 8.1-3.6 0-6.5-3.1-6.5-6.9 0-3.8 2.9-6.9 6.5-6.9.9 0 1.8.2 2.6.6 0 .1 1.4.8 1.8 4.1zm35.6 14.9c5.1-4 6-8.8 6-8.9 1.2-1.5.9-3-.7-3-.5 0-.9.1-.9.1s0-2.2-1-3.9c-.8.9-2.9 2.6-5.8 4-2.7 1.3-6.2 2.4-10.6 2.5-1.2.1-2-.1-2.4 1.3-.1.5-.1 1.3 0 1.5.3 1.2 1.3 1.7 2.4 2 .9.2 1.9.2 1.9.2 8.9.3 16.1-6.7 16.2-6.8.1-.1.2-.1.2-.1l-.1.2c-1.3 2.9-8.7 8.2-16.2 8-1.7 0-3.8-.4-4.9-1.8-1.7-2.1-.8-5.7 1.9-5.8h.9c6.8-.2 12.9-2.7 17.2-7.9.6-.7-.1-1.8-1.4-1.8-1.5-1.7-2.9-2.2-4.1-2.8-2.5-1.3-2.3-.2-2.9-6.4-.2-1.7-.5-4-2-4.9-.4-.2-.8-.3-1.3-.3-.4 0-.6.1-.7.1-.8.2-1.3.6-1.8 1.2-2.7 2.5-4.9 1.8-8.2 1.8-3.1 0-5.8 2.1-6.3 5.4-.3 1.7-.1 3.5.2 4.2 0 0-.8-.6-1.2-1 .5 3 3.2 4.9 3.2 4.9-.4.1-1 .1-1 .1s1.6 1.2 2.9 1.7c-.4.2-2.1 2-3 4.4-.9 2.3-.5 5-.5 5l.7-1.1s-.5 2.5.5 4.9c.3-.7 1-2 1-2s-.1 2.7 1.2 4.8c0-.5.2-1.8.2-1.8s.7 2.3 2.4 3.9c3.2 2.6 11.6 3.1 18-1.9z" fill="#f5dcba"/><path d="M136.1 308.3s-2.5-1.8-2.8-2.4c-2-3.5 1.5-10.6 4.1-14.6 6.3-10 16.7-17.9 21.4-16.7l4.9 2.5c-1.9 1.1-3.7 2.5-4.8 3.4l-1 .9s-3 2-4.5 3.3c-6 5.1-12 13.1-14.2 20.8-.1 0-1.9.9-3.1 2.8z" fill="#0788bf"/><path d="M158.8 274.6c-4.7-1.1-15.2 6.8-21.4 16.7l5 3.9c5.5-8.7 12.4-13.2 12.6-13.3l-.8-5.3 1.5-.7 3 1-.2-1 .3-1.3z" fill="#46b8e3"/><path d="M163.7 277.1l-4.8 3.4-.3.3-4.3-3.5-.1-.7 1.5-.7c.1 0 2.9.9 3 1v-1.8l.1-.4 1.3-.5c0-.1 3.6 2.9 3.6 2.9z" fill="#ffd14f"/><path class="st12" d="M173.2 273.8c-3.2 0-6.8 1.7-9.5 3.3-.4.2-.8.5-1.1.7l-1.4-1.2.5 1.8c-.2.1-.4.3-.6.4l-3-.9 2 1.6c-.4.3-.8.7-1.2.9l-4.7-3.9.2 1.7 3.4 3s-3 2-4.5 3.3c-6 5.1-12 13.1-14.2 20.8l.1-.1h.1c.1 0 .1-.1.2-.1 0 0 .1 0 .1-.1.1 0 .1-.1.2-.1h.1c.1 0 .1-.1.2-.1h.1c.1 0 .2-.1.3-.1 1.5-.4 3.5-.7 5.9.3 1.2-3 2.6-6.1 4.9-9 1.8-2.4 3.6-4.5 5.7-5.7 4-3.8 14.8-7.7 18.2-4.3.8-1.3 1.5-2.6 2.1-4.2 1.5-3.7 1.5-8-4.1-8z"/><path class="st12" d="M159.5 277.1l-.7-2.5-.4 1.2.3 1z"/><path class="st2" d="M187.7 314.3s0-2.2-1-3.9c-.8.9-2.9 2.6-5.8 4-2.7 1.3-6.2 2.4-10.6 2.5-1.2.1-2-.1-2.4 1.3 0 .1-.1.3-.1.4v.6c0 .2.1.3.1.3.4 1.2 1.3 1.7 2.4 2 .9.2 1.9.2 1.9.2 7.3.2 13.4-4.4 15.4-6.1.1-.3.1-.7.1-1.3zm-20.9-38.9c1.7-.8 3.6-1.4 5.4-1.6-1.8.4-3.9 1.3-6.5 2.9-.1 0-6.1 4.1-9.7 7.7-2 2-10 11.6-10 11.6 1.5-2.8 2.4-4.1 4.8-7.1 1.3-1.7 2.7-3.3 4.1-4.7l1.5-1.5c.1-.1 4.3-4.4 10.4-7.3z"/><path d="M183.3 326.1c-.9.7-1.8 1.3-2.7 1.8-2.1-.8-3.5-2.5-3.5-2.5s1.8-.4 4.3-1.7c3-1.5 5.8-3.7 7.9-6.5 0 .1-.9 4.9-6 8.9zm-5.8-23.1c-1-.7-2.8-.2-3.1 1.1.6 0 1.2.5 1.2 1.1.4-.4 1-.6 1.6-.6-.3-.6-.2-1.4.3-1.6zm-10.9 14.8c.3-1.2 1.2-2.2 2.7-2.2h.9c6.8-.2 12.9-2.7 17.2-7.9.6-.7-.1-1.8-1.4-1.8-.2.2-.3.7-.6 1.3-1.3 2.3-3.2 3.4-5.6 4.6-7.5 3.7-11.4 2-13 4.3-.4.6-.4 1.4-.2 1.7zm13.6-15.6c-.7-.5-.7-1.4-1.1-5.6-.1-1.3-.3-3-1.2-4.1-.2-.1-.4-.3-.7-.3-.5 0-1.1.5-1.4.9-.9 1.3-1.8 2.2-3.4 3-1.6.7-3.1 1-4.7.9-1.2 0-2.2-.2-3.1-.2-1.8 0-3.4.6-4.6 2-.8 1-1.1 2.1-1.2 3.3v.4c0 .2 0 .4.1.6.1.6.2 1 .2 1v.1s-.8-.6-1.2-1c.4 2.5 2.4 4.3 3 4.8l.1.1c.1 0 .1.1.1.1-.4.1-1 .1-1 .1s1.6 1.2 2.9 1.7c1.8-1.5 3.8-2.1 5.5-2.3 1-.6 2.1-1.2 3.3-1.8-.4-2.2 1.6-4.4 4-4.6 1.9-.1 2.8.7 3.4 1.6.2-.4.6-.5 1-.7zm.9 14.8c-.1 0-.1 0 0 0-.8.2-8.4 3.1-13.3 1.6 0 .3 0 .8.1 1.1.7.1 1.7.2 2.7.2 6.4 0 10.9-2.9 10.5-2.9zm-35.5-.6c.4-.4.6-1 .5-1.6-.1-.8-1-1-1.6-1.6-.3-.3-.4-.7-.3-1 0-.8.8-1 1.1-.9 0 0 .4.1.8.6-.1-.2 0-.4-.3-.8-.4-.6-1.5-1.3-2.9-1-.3.1-.1 0-.4.1h-.1c-.1 0-.2.1-.2.1s-.3.1-.5.3c-1.9 2.2.9 6 3.9 5.8z" fill="#eabe8d"/><path d="M169.6 303.5c.1.2.2.4.1.4-.1.1-.5 0-1.1-.3-1.5-.6-2.6-.6-4.5.1-.5.2-.8.3-1 .3-.3 0 0-.5.6-1 1.2-1 2.9-1.3 4.3-.7.5.2 1.2.6 1.6 1.2zm-.3 1.5c-.4-.3-1.2-.5-1.9-.4-.2 0-.3.1-.5.1-.1 0-.1 0-.2.1-.3.1-.6.3-.9.5-.3.3-.4.6-.3.7.1.1.3 0 .6-.2 1.1-.5 1.9-.5 2.7-.4.4 0 .6 0 .7-.1 0-.1-.1-.2-.2-.3zm-24.1 5.7c.2.1.3.3.4.5.3.5.2.8.4.9.1 0 .1.1.2 0 .2-.1.3-.4.3-.6 0-.5-.2-1.1-.6-1.5-.2-.3-.5-.5-.9-.7-.3-.2-.8-.3-1.2-.4-.8-.1-1.5 0-1.7.1-.1 0-.2.1-.4.1-1.3.5-2.1 1.4-2.5 2.6-.1.5-.2.9-.2 1.3 0 .3 0 .7.1 1 .1.5.3 1 .7 1.4.4.5.9.4.7-.1 0-.1-.3-.6-.3-1.5 0-.6.1-1.2.3-1.7.1-.3.3-.6.5-.8.4-.5 1-.8 1-.8.1 0 .2-.1.2-.1h.1c.3-.1.1 0 .4-.1 1-.3 1.9-.1 2.5.4zm-.2 2c-.1-.1-.2-.2-.2-.3-.1-.3 0-.4.2-.6.2-.1.3-.2.3-.3 0-.1-.6-.3-1 .1-.3.4-.4 1.1.1 1.7.6.6 1.5.8 1.7 1.6v.8c-.2.8-.9 1.5-2.2 1.3-.2 0-.4-.1-.4 0-.1.1.4.7 1.4.7.9 0 1.9-.7 2.2-1.8 0 0 .1-.3.1-.6v-.6c-.4-1.4-1.7-1.6-2.2-2zm32.8-9.7c-.4-.1-.7.3-.8.8-.1.5.2 1 .5 1 .4.1.7-.3.8-.8.1-.5-.1-1-.5-1zm-4.1 1.4c-.2.4 0 .9.6 1.2.5.3 1.1.2 1.3-.2.2-.4 0-.9-.6-1.2-.5-.2-1.1-.1-1.3.2zm-15-15.1c7-4.6 14.1-5.1 16.5-3.2 0 0 0-.1-.1-.1-.6-1.3-2-2.2-3.3-2.6.2.2.5.7.7.9-1-.7-2.2-1.2-3.6-1.5l.2.1c.3.2.6.6.8 1-1.3-.5-2.9-.8-4.3-.5h-.2s.2 0 .2.1c.5.1 1.1.4 1.4.8-2.3-.4-4.8 0-6.2.8h.3c.5 0 1.5.1 1.9.3-1.4.3-3.5.9-4.7 1.9.2 0 1.3-.2 1.8-.1-6.2 3.5-9 8.9-9 8.9 2-2.4 4.4-4.7 7.6-6.8z" fill="#9c7356"/><path class="st7" d="M175.3 299.3c0-.5.1-1.3.5-1.4.8-.3 1.8 1.7 1.9 3.5-.6-.3-1.3-.4-2.1-.4-.1-.6-.2-1.1-.3-1.7z"/><path class="st15" d="M59.9 233.6c-2.5 0-4.6 2-4.6 4.6 0 2.5 2 4.6 4.6 4.6 2.5 0 4.6-2 4.6-4.6-.1-2.6-2.1-4.6-4.6-4.6m29.9 0c-2.5 0-4.6 2-4.6 4.6 0 2.5 2 4.6 4.6 4.6 2.5 0 4.6-2 4.6-4.6-.1-2.6-2.1-4.6-4.6-4.6m-15-4.2c-2.5 0-4.6 2-4.6 4.6 0 2.5 2 4.6 4.6 4.6 2.5 0 4.6-2 4.6-4.6 0-2.6-2.1-4.6-4.6-4.6m25.7 16.9c-.2-.2-.6-.3-.9-.3-.2 0-.3 0-.5.1-3.1 1.2-6.2 2.1-9.1 2.7-.6.1-1.1.6-1.2 1.1-2.1 5.7-7.4 11.1-13 16.8-.2.2-.5.5-1 .5s-.8-.3-1-.5c-5.6-5.7-10.9-11.1-13-16.8-.2-.5-.7-1-1.2-1.1-2.9-.7-6-1.6-9.1-2.8-.2-.1-.3-.1-.5-.1-.3 0-.6.1-.9.3-.4.3-.6.8-.6 1.3.5 4.7 2.3 9.4 5.7 14.2 3.2 4.6 7.3 8.8 11.3 12.9 7.4 7.5 14.4 14.6 15 22.9.1.7.7 1.3 1.4 1.3h8.7c.8 0 1.4-.6 1.4-1.4v-.1c-.3-5.5-2.3-11-6.3-16.9-.8-1.2-1.7-2.4-2.7-3.6-.4-.5-.2-1.1.1-1.4l.9-.9c4-4.1 8.2-8.3 11.3-12.9 3.4-4.9 5.3-9.5 5.7-14.2.1-.3-.1-.8-.5-1.1m-35 34.7c-.2-.2-.5-.4-1-.4-.6 0-1 .4-1.2.7-3.6 5.6-5.5 10.8-5.8 16.1 0 .4.1.8.4 1.1.3.3.6.4 1 .4h8.7c.7 0 1.4-.6 1.4-1.3.2-2.5 1-5.1 2.4-7.8.5-.9.1-1.8-.2-2.2-1.4-1.9-3.1-3.8-5.7-6.6"/><path class="st15" d="M74.8 250.5c2.7 0 4.3-.2 4.9-.2.7 0 1.3.6 1.3 1.3 0 .2-.1.4-.1.5-.4 1-2 4.4-5.1 7.4-.3.3-.7.4-1 .4-.3 0-.7-.1-1-.4-3.1-3-4.7-6.4-5.1-7.4-.1-.1-.1-.3-.1-.5 0-.8.6-1.3 1.3-1.3.6.1 2.2.2 4.9.2"/><path class="st16" d="M227.7 151.1h-17.2v-17.2c0-1-.8-1.9-1.9-1.9-1 0-1.9.8-1.9 1.9V151h-17.1c-1 0-1.9.8-1.9 1.9 0 1 .8 1.9 1.9 1.9h17.2V172c0 1 .8 1.9 1.9 1.9 1 0 1.9-.8 1.9-1.9v-17.1h17.1c1 0 1.9-.8 1.9-1.9 0-1.1-.9-1.9-1.9-1.9z"/><path class="st16" d="M208.1 123.3c-14.8 0-27 11-29 25.3l-14-7.2c-.4-.2-.8-.2-1.2 0l-36 18.5c-.2.1-.4.3-.5.5-.3.3-.5.6-.5 1l.1 42.8 36.4 18.2c.2.1.4.1.6.1.2.1.4.1.5.1.2 0 .4 0 .6-.1l36-17.5c.5-.2.8-.7.8-1.2l-.1-22.5c2 .4 4 .7 6.1.7 16.2 0 29.3-13.1 29.3-29.3.3-16.3-12.9-29.4-29.1-29.4zm-43.5 20.9l9.6 4.9-32.2 17.3-10.4-5.3 33-16.9zm-34.8 58.3l-.1-39.3 9.4 4.8v16.4l12.7 6v-15.9l11.5 5.9.1 38.8-33.6-16.7zm34.8-24.5l-10.7-5.5 25.5-13.9c.7 3.5 2.1 6.8 4 9.7l-18.8 9.7zm1.4 41.1l-.1-38.7 19.1-9.8c3.6 4.6 8.5 8.1 14.2 9.9l.1 22.4-33.3 16.2zm61-47.6c-5 5-11.7 7.8-18.9 7.8-7.1 0-13.8-2.8-18.9-7.8-5-5-7.8-11.7-7.8-18.9 0-7.1 2.8-13.8 7.8-18.9 5-5 11.7-7.8 18.9-7.8 7.1 0 13.8 2.8 18.9 7.8 5 5 7.8 11.7 7.8 18.9 0 7.1-2.7 13.8-7.8 18.9z"/><path d="M335.7 176.1c0-.3-.3-.5-.6-.5-.2 0-5.3-.4-5.3-.4l-3.9-3.9c-.4-.4-1.1-.3-1.4-.2 0 0-.8.2-2 .6-1.2-3.4-3.2-6.5-6.9-6.5h-.3c-1-1.4-2.3-2-3.4-2-8.5 0-12.6 10.6-13.8 16-3.3 1-5.6 1.7-5.9 1.8-1.8.6-1.9.6-2.1 2.4-.2 1.3-5 38.6-5 38.6l37.6 7 20.4-4.4c-.2.1-7.4-48.2-7.4-48.5zm-15.3-3.8c-.9.3-2 .6-3.2 1v-.7c0-2.1-.3-3.8-.8-5.1 2 .2 3.2 2.4 4 4.8zm-6.3-4.4c.5 1.3.9 3.2.9 5.7v.4c-2.1.6-4.3 1.3-6.6 2 1.3-4.8 3.7-7.2 5.7-8.1zm-2.5-2.4c.4 0 .7.1 1.1.4-2.7 1.3-5.6 4.5-6.9 11-1.8.6-3.6 1.1-5.2 1.6 1.5-5 4.9-13 11-13z" fill="#95bf46"/><path d="M335.1 175.5c-.2 0-5.3-.4-5.3-.4l-3.9-3.9c-.1-.1-.3-.2-.5-.2l-2.8 58.1 20.4-4.4s-7.1-48.3-7.2-48.6c-.2-.4-.5-.5-.7-.6" fill="#5e8e3e"/><path class="st2" d="M315.6 186.8l-2.5 7.5s-2.2-1.2-4.9-1.2c-4 0-4.2 2.5-4.2 3.1 0 3.4 8.9 4.7 8.9 12.7 0 6.3-4 10.3-9.4 10.3-6.4 0-9.7-4-9.7-4l1.7-5.7s3.4 2.9 6.3 2.9c1.9 0 2.6-1.5 2.6-2.5 0-4.4-7.3-4.6-7.3-12 0-6.2 4.4-12.1 13.3-12.1 3.5 0 5.2 1 5.2 1"/><path d="M119.8 15.2c4.1-.4 8.2.1 12 1.5 5.8 2 11 5.9 14.5 11 1.8 2.6 3.2 5.6 4.1 8.7 1.6 5.7 1.4 12-.5 17.6-1.5 4.4-4.1 8.4-7.5 11.6-3.7 3.5-8.3 6-13.2 7.2-6.4 1.6-13.4.9-19.4-2-5.5-2.6-10.1-7-13.1-12.3-1.7-3.1-2.8-6.4-3.3-9.9-.6-4-.3-8.2.8-12.2 1.5-5.2 4.4-10 8.4-13.7 4.8-4.3 10.9-7 17.2-7.5z" fill="#02b7e3"/><path class="st2" d="M112 49l-4.8-4.8c1.6-1.7 3.3-3.3 5-5 .3-.3.4-.8.1-1.1-.3-.5-1-.6-1.4-.2l-5 5c-1.7-1.6-3.3-3.3-4.9-4.9-.2-.2-.5-.4-.9-.3-.5.1-.8.5-.7 1 0 .4.4.6.6.9l4.6 4.6v.1c-1.6 1.7-3.3 3.3-5 5-.2.2-.3.6-.2.9.1.4.6.7 1 .6.4 0 .6-.4.8-.6 1.6-1.5 3.1-3.1 4.7-4.6 1.7 1.6 3.3 3.3 4.9 4.9.2.2.6.4.9.3.4-.1.7-.5.7-.9s-.2-.7-.4-.9z"/><path class="st2" d="M123.5 39.6c-1-1-2.3-1.6-3.7-1.8-1.7-.2-3.5.2-4.8 1.2-2.2 1.6-3.2 4.5-2.4 7.1.4 1.5 1.4 2.8 2.6 3.6 1.2.8 2.7 1.3 4.2 1.1 1-.1 2.1-.4 3-1 .7-.4 1.3-1 1.8-1.7.2-.3.3-.6.2-1-.2-.5-.8-.8-1.3-.5-.3.2-.4.5-.6.7-.6.7-1.4 1.2-2.2 1.4-1.5.4-3.1.1-4.3-.9-.9-.7-1.5-1.8-1.7-2.9h9.1c.5 0 1 0 1.4-.3.5-.3.8-1 .7-1.6-.5-1.3-1.1-2.5-2-3.4zm-9.3 3.5c.3-1.2 1-2.2 2-2.8 1.2-.8 2.8-1 4.1-.5 1.5.5 2.7 1.8 3 3.3h-9.1zm30.3-1.2c-.5-1.4-1.6-2.6-2.9-3.3-1.2-.7-2.7-1-4.1-.8-2.1.3-4.1 1.7-5 3.6-.8 1.5-.9 3.4-.3 5 .4 1.3 1.2 2.4 2.3 3.2 1.1.9 2.6 1.3 4 1.3s2.8-.5 4-1.4c1.1-.9 2-2.1 2.3-3.5.3-1.4.2-2.9-.3-4.1zm-2.3 5c-.7 1-1.7 1.7-2.9 1.9-1 .2-2.1.1-3.1-.4-1.3-.6-2.2-1.9-2.5-3.3-.3-1.3 0-2.7.8-3.7.7-.9 1.8-1.6 2.9-1.8 1-.2 2-.1 2.8.4 1.3.6 2.3 1.8 2.6 3.2.5 1.3.2 2.7-.6 3.7zm-9.9-7.9c.2-.5-.2-1-.6-1.1-1-.1-2 .1-2.8.7-.1-.5-.7-.8-1.1-.6-.4.1-.7.5-.7.9v10.9c0 .5.4 1 .9 1s.9-.4.9-.9v-6.3c0-.8 0-1.6.1-2.4.1-.5.4-.9.8-1.1.5-.3 1.1-.4 1.6-.4.4-.1.8-.4.9-.7z"/><path class="st2" d="M138 42.7c-.5.1-1 .5-1.1 1.1-.2.5-.1 1.1.3 1.6s1.1.7 1.8.5c.7-.2 1.2-.9 1.1-1.7-.1-1.1-1.2-1.8-2.1-1.5z"/><g id="XMLID_2_"><path id="XMLID_6_" fill="#89c6be" d="M67 60.1h5.2v53.4H67z"/><path id="XMLID_5_" d="M38.6 72.3h6.6V60.1h8.7v12.2h7.9V79h-7.9v21.7c0 .9 0 1.8.1 2.4.1.7.3 1.3.5 1.7.3.5.7.8 1.3 1.1.6.2 1.3.4 2.3.4h1.8c.6 0 1.2-.1 1.8-.3v6.9c-1 .1-1.9.2-2.8.3-.9.1-1.9.2-2.8.2-2.3 0-4.1-.2-5.5-.7-1.4-.4-2.5-1.1-3.3-2-.8-.9-1.3-2-1.6-3.3-.3-1.3-.4-2.8-.5-4.5V79h-6.6v-6.7" fill="#33393f"/></g><path d="M221.2 12.8c-1-3.2-4.5-4.9-7.6-3.9-3.2 1-4.9 4.5-3.9 7.6l15.7 48.2c1.1 3 4.3 4.6 7.4 3.8 3.2-.9 5.2-4.3 4.1-7.5l-15.7-48.2" fill="#dfa22f"/><path d="M197 20.7c-1-3.2-4.5-4.9-7.6-3.9-3.2 1-4.9 4.5-3.9 7.6l15.7 48.2c1.1 3 4.3 4.6 7.4 3.8 3.2-.9 5.2-4.3 4.1-7.5L197 20.7" fill="#3cb187"/><path d="M241 52.7c3.2-1 4.9-4.5 3.9-7.6-1-3.2-4.5-4.9-7.6-3.9L189 56.9c-3 1.1-4.6 4.3-3.8 7.4.9 3.2 4.3 5.2 7.5 4.1L241 52.7" fill="#ce1e5b"/><path d="M199.1 66.3l11.5-3.7-3.7-11.5-11.5 3.7 3.7 11.5" fill="#392538"/><path d="M223.3 58.5c4.4-1.4 8.4-2.7 11.5-3.7l-3.7-11.5-11.5 3.7 3.7 11.5" fill="#bb242a"/><path d="M233.1 28.5c3.2-1 4.9-4.5 3.9-7.6-1-3.2-4.5-4.9-7.6-3.9l-48.2 15.7c-3 1.1-4.6 4.3-3.8 7.4.9 3.2 4.3 5.2 7.5 4.1l48.2-15.7" fill="#72c5cd"/><path d="M191.2 42.1c3.1-1 7.2-2.3 11.5-3.7-1.4-4.4-2.7-8.4-3.7-11.5l-11.5 3.7 3.7 11.5" fill="#248c73"/><path d="M215.5 34.2l11.5-3.7c-1.2-3.8-2.5-7.7-3.7-11.5l-11.5 3.7 3.7 11.5" fill="#62803a"/></svg>