<svg id="Layer_1" data-name="Layer 1" xmlns="http://www.w3.org/2000/svg" viewBox="0 0 600 600"><defs><style>.cls-1{fill:#6e8393}</style></defs><path class="cls-1" d="M298.05 2.88C133.59 2.88.31 136.16.31 300.62s133.28 297.74 297.74 297.74 297.74-133.28 297.74-297.74S462.51 2.88 298.05 2.88zm191.76 489.5a271.19 271.19 0 0 1-383.52-383.52 271.19 271.19 0 0 1 383.52 383.52z"/><path class="cls-1" d="M315.55 318.12h158.64a17.22 17.22 0 1 0 0-34.43H315V124.48a17.22 17.22 0 1 0-34.43 0v158.64H121.91a17.22 17.22 0 1 0 0 34.43h159.21v159.21a17.22 17.22 0 1 0 34.43 0z"/></svg>