<svg id="Layer_1" xmlns="http://www.w3.org/2000/svg" viewBox="0 0 600 600"><style>.st0{fill:#3e88f3}</style><path class="st0" d="M303.8 185.3c-63.3 0-114.7 51.5-114.7 114.7s51.5 114.7 114.7 114.7S418.6 363.3 418.6 300s-51.5-114.7-114.8-114.7zm0 192.5c-43 0-77.8-34.8-77.8-77.8s34.8-77.8 77.8-77.8 77.8 34.8 77.8 77.8-34.8 77.8-77.8 77.8z"/><path class="st0" d="M564.6 167.6l-15.7-27.2c-11.8-20.5-33.8-33.2-57.5-33.2-11.6 0-23.1 3.1-33.1 8.9l-9.8 5.7c-18.9-15.3-39.9-27.5-62.6-36.1V74.4c0-36.6-29.8-66.4-66.4-66.4h-31.4c-36.6 0-66.4 29.8-66.4 66.4v11.3c-22.7 8.7-43.8 20.9-62.6 36.2l-9.7-5.7c-10.1-5.8-21.5-8.9-33.1-8.9-23.7 0-45.7 12.7-57.5 33.2l-15.7 27.2c-18.3 31.7-7.4 72.3 24.3 90.6l9.7 5.6c-1.9 12-2.9 24.1-2.9 36.2 0 12.1 1 24.2 2.9 36.2l-9.7 5.6c-31.7 18.3-42.6 59-24.3 90.6l15.7 27.2c11.8 20.5 33.8 33.2 57.5 33.2 11.6 0 23.1-3.1 33.1-8.9l9.8-5.7c18.9 15.3 39.9 27.5 62.6 36.1v11.3c0 36.6 29.8 66.4 66.4 66.4h31.4c36.6 0 66.4-29.8 66.4-66.4v-11.3c22.7-8.7 43.8-20.9 62.6-36.2l9.7 5.7c10.1 5.8 21.5 8.9 33.1 8.9 23.6 0 45.7-12.7 57.5-33.2l15.7-27.2c18.3-31.7 7.4-72.3-24.3-90.6l-9.7-5.6c1.9-12 2.9-24.1 2.9-36.2s-1-24.2-2.9-36.2l9.7-5.6c31.7-18.3 42.5-58.9 24.3-90.6zm-42.8 58.6l-10.2 5.9c-12.9 7.4-20 22-17.6 36.7 1.7 10.1 2.6 20.5 2.6 31.2 0 10.6-.9 21-2.6 31.2-2.4 14.7 4.7 29.2 17.6 36.7l10.2 5.9c14.1 8.1 18.9 26.1 10.8 40.2l-15.7 27.2c-5.4 9.4-15.3 14.7-25.5 14.7-5 0-10-1.3-14.7-3.9l-10.4-6c-5.6-3.2-11.9-4.9-18.1-4.9-8 0-15.9 2.7-22.4 8-16.1 13.2-34.3 23.7-54 31.2-13.9 5.2-22.9 18.7-22.9 33.5v11.9c0 16.2-13.2 29.4-29.4 29.4h-31.4c-16.2 0-29.4-13.2-29.4-29.4v-12c0-14.8-9-28.3-22.9-33.5-19.8-7.4-38-18-54-31.2-6.5-5.3-14.4-8-22.4-8-6.2 0-12.5 1.6-18.1 4.9l-10.4 6c-4.6 2.7-9.7 3.9-14.7 3.9-10.2 0-20-5.3-25.5-14.7L75 413.9c-8.1-14.1-3.3-32 10.8-40.2l10.2-5.9c12.9-7.4 20-22 17.6-36.7a188.56 188.56 0 0 1 0-62.4C116 254 108.9 239.5 96 232l-10.2-5.9c-14-8-18.8-26-10.7-40.1l15.7-27.2c5.4-9.4 15.3-14.7 25.5-14.7 5 0 10 1.3 14.7 3.9l10.4 6c5.6 3.2 11.9 4.9 18.1 4.9 8 0 15.9-2.7 22.4-8 16.1-13.1 34.3-23.7 54-31.2 13.9-5.2 22.9-18.7 22.9-33.5V74.3c0-16.2 13.2-29.4 29.4-29.4h31.4c16.2 0 29.4 13.2 29.4 29.4v11.9c0 14.8 9 28.3 22.9 33.5 19.8 7.4 38 18 54 31.2 6.5 5.3 14.4 8 22.4 8 6.2 0 12.5-1.6 18.1-4.9l10.4-6c4.6-2.7 9.7-3.9 14.7-3.9 10.2 0 20 5.3 25.5 14.7l15.7 27.2c8 14.1 3.2 32.1-10.9 40.2z"/></svg>