<svg id="Layer_1" xmlns="http://www.w3.org/2000/svg" viewBox="0 0 600 600"><style>.st0{fill:#3c87f3}</style><path class="st0" d="M31.5 428.7c0 26.8 10.4 51.9 29.3 70.8l42.8 42.9c19.5 19.5 45.2 29.2 70.8 29.2 25.6 0 51.3-9.7 70.8-29.2l90.3-90.3-37.5-37.5-90.3 90.3c-18.4 18.4-48.3 18.4-66.6 0L98.2 462c-8.9-8.9-13.8-20.7-13.8-33.3 0-12.6 4.9-24.4 13.8-33.3l91.3-91.3-37.4-37.5L60.8 358c-18.9 18.9-29.3 44-29.3 70.7zm377.1-124.8l37.4 37.4 97.8-97.8c39-39 39-102.5 0-141.5L501 59.2c-18.9-18.9-44-29.4-70.8-29.4-26.7 0-51.8 10.4-70.7 29.4L257.3 161.4l37.4 37.4L397 96.7c8.9-8.9 20.7-13.8 33.3-13.8 12.6 0 24.4 4.9 33.3 13.8l42.8 42.8c18.3 18.3 18.3 48.2 0 66.6l-97.8 97.8z"/><path transform="rotate(-44.984 118.178 118.713)" class="st0" d="M100.5 60.3h35.3v116.8h-35.3z"/><path transform="rotate(-1.403 66.949 238.142)" class="st0" d="M9.7 220.5h114.5v35.3H9.7z"/><path transform="rotate(-89.02 238.002 67.13)" class="st0" d="M181.2 49.5h113.7v35.3H181.2z"/><path transform="rotate(-45.001 482.24 482.783)" class="st0" d="M464.6 424.4h35.3v116.8h-35.3z"/><path transform="rotate(-88.608 362.829 533.96)" class="st0" d="M305.6 516.3h114.5v35.3H305.6z"/><path transform="rotate(-.991 533.854 363)" class="st0" d="M477.1 345.3h113.6v35.3H477.1z"/></svg>