<svg xmlns="http://www.w3.org/2000/svg" xmlns:xlink="http://www.w3.org/1999/xlink" viewBox="0 0 143 190" width="143" height="190"><defs><path d="M468.91 51.38a3.599 3.599 0 0 0-3.43-2.51h-33.52c-1.56 0-2.95 1.02-3.42 2.51-4.23 13.42-38.06 120.72-42.29 134.13a3.6 3.6 0 0 0 .53 3.21 3.59 3.59 0 0 0 2.9 1.47h23.07c1.59 0 3-1.05 3.45-2.58 2.91-9.86 26.21-88.78 29.12-98.65 0 0 .76-2.46 3.4-2.46 2.68 0 3.33 2.56 3.33 2.56.9 3.12 5.41 18.72 13.51 46.78H447c-1.61 0-3.02 1.07-3.46 2.62l-5.21 18.52a3.6 3.6 0 0 0 .6 3.14c.68.9 1.74 1.42 2.86 1.42h31.33c4.88 15.68 7.59 24.38 8.14 26.12.46 1.5 1.85 2.53 3.43 2.53h23.08c1.15 0 2.22-.55 2.9-1.47a3.6 3.6 0 0 0 .53-3.21c-2.82-8.94-16.92-53.65-42.29-134.13" id="a"/><path d="M255.27 48.87h-22.05c-1.98 0-3.59 1.61-3.59 3.59v134.13c0 1.99 1.61 3.6 3.59 3.6h22.05c1.98 0 3.59-1.61 3.59-3.6V52.46c0-1.98-1.61-3.59-3.59-3.59" id="b"/><path d="M203.64 48.87h-22.31c-1.89 0-3.43 1.54-3.43 3.42v104.96c0 13.19-10.06 17.53-16.86 17.87-.91.05-1.98.62-2.57 1.48-.59.86-.75 1.94-.44 2.93.54 1.77 4.88 15.89 5.42 17.65.44 1.45 2 2.37 4.53 2.37 21.35 0 39.08-16.76 39.08-39.23V52.29c0-.9-.36-1.77-1-2.42-.64-.64-1.51-1-2.42-1" id="c"/><path d="M30.85 12.28c-6.86 0-12.41 5.55-12.41 12.42 0 6.85 5.55 12.42 12.41 12.42s12.4-5.57 12.4-12.42c0-6.87-5.54-12.42-12.4-12.42" id="d"/><path d="M112.36 12.28c-6.86 0-12.41 5.55-12.41 12.42 0 6.85 5.55 12.42 12.41 12.42 6.84 0 12.4-5.57 12.4-12.42 0-6.87-5.56-12.41-12.4-12.42" id="e"/><path d="M71.6.95c-6.85 0-12.41 5.54-12.41 12.42 0 6.85 5.56 12.42 12.41 12.42 6.86 0 12.41-5.57 12.41-12.42C84.01 6.49 78.46.95 71.6.95" id="f"/><path d="M141.69 46.88c-.7-.52-1.52-.8-2.37-.8-.46 0-.94.09-1.38.26-8.4 3.21-16.93 5.65-24.72 7.47-1.59.37-2.87 1.55-3.4 2.96-5.68 15.54-20.16 30.34-35.36 45.84-.61.58-1.46 1.34-2.85 1.34-1.39 0-2.24-.74-2.86-1.34-15.2-15.5-29.68-30.25-35.36-45.79-.53-1.41-1.81-2.59-3.4-2.96-7.79-1.82-16.34-4.33-24.73-7.54-.45-.17-.92-.26-1.39-.26-.84 0-1.66.27-2.34.79a3.863 3.863 0 0 0-1.51 3.43c1.28 12.93 6.39 25.56 15.61 38.8 8.66 12.44 19.96 23.96 30.88 35.1 20.13 20.53 39.14 39.92 40.81 62.4.15 2.03 1.84 3.6 3.87 3.6h23.65c1.06 0 2.08-.44 2.82-1.21a3.85 3.85 0 0 0 1.06-2.87c-.74-15.03-6.4-30.08-17.29-46.01-2.28-3.34-4.73-6.59-7.28-9.77-1.04-1.3-.61-2.91.19-3.72l2.36-2.42c10.93-11.14 22.22-22.66 30.89-35.1 9.21-13.24 14.32-25.8 15.6-38.72.13-1.3-.46-2.68-1.5-3.48" id="g"/><path d="M46.23 141.67c-.56-.58-1.38-1.18-2.76-1.18-1.76 0-2.81 1.22-3.21 1.82-9.94 15.14-15.08 29.42-15.79 43.78-.05 1.06.34 2.11 1.07 2.88.74.77 1.77 1.21 2.83 1.21h23.61a3.92 3.92 0 0 0 3.89-3.61c.51-6.92 2.66-13.86 6.59-21.14 1.36-2.53.3-4.89-.48-5.91-3.89-5.06-8.66-10.45-15.75-17.85" id="h"/><path d="M71.63 58.47c7.41 0 11.71-.45 13.22-.45 1.83 0 3.57 1.5 3.57 3.6 0 .61-.14 1.05-.29 1.43-.98 2.63-5.46 12.09-13.8 20.19-.93.91-1.99 1.08-2.72 1.08h-.01c-.73 0-1.79-.17-2.72-1.08-8.34-8.1-12.82-17.56-13.8-20.19-.15-.38-.29-.82-.29-1.43 0-2.1 1.75-3.6 3.58-3.6 1.51 0 5.8.45 13.21.45h.05" id="i"/></defs><use xlink:href="#a" fill="#264970"/><use xlink:href="#a" fill-opacity="0" stroke="#000" stroke-opacity="0"/><use xlink:href="#b" fill="#264970"/><use xlink:href="#b" fill-opacity="0" stroke="#000" stroke-opacity="0"/><use xlink:href="#c" fill="#264970"/><use xlink:href="#c" fill-opacity="0" stroke="#000" stroke-opacity="0"/><use xlink:href="#d" fill="#264970"/><use xlink:href="#d" fill-opacity="0" stroke="#000" stroke-opacity="0"/><use xlink:href="#e" fill="#264970"/><use xlink:href="#e" fill-opacity="0" stroke="#000" stroke-opacity="0"/><use xlink:href="#f" fill="#264970"/><use xlink:href="#f" fill-opacity="0" stroke="#000" stroke-opacity="0"/><use xlink:href="#g" fill="#264970"/><use xlink:href="#g" fill-opacity="0" stroke="#000" stroke-opacity="0"/><use xlink:href="#h" fill="#264970"/><use xlink:href="#h" fill-opacity="0" stroke="#000" stroke-opacity="0"/><use xlink:href="#i" fill="#264970"/><use xlink:href="#i" fill-opacity="0" stroke="#000" stroke-opacity="0"/></svg>