<svg id="Layer_1" data-name="Layer 1" xmlns="http://www.w3.org/2000/svg" viewBox="0 0 600 600"><defs><style>.cls-1{fill:#aec0cc}</style></defs><path class="cls-1" d="M268.09 238.62h34.76V405.1h-34.76zm280.81 0h-47.56l-44.56 150.17-29.1-41.08C441 342.77 449.2 328 449.2 312.87v-42.4c0-19.11-12.75-31.85-31.85-31.85h-90.72v166.47h34.76v-54.88h33.07l35.43 54.88h56.81l38.42-129.48 19.42 65.46h-19.42l-13.5 29.27h41.6l10.32 34.75h34.75zm-130.8 61.46c0 9.66-5.57 20.86-15.77 20.86h-40.94v-51.22h40.94c10.2 0 15.77 5.65 15.77 15.32zm-175.62-61.46h-34.76v123.07c0 19.46-9 20.88-11.32 21.79a63.88 63.88 0 0 1-11.46 2.65l8.41 29.57c55-1.46 49.13-46.28 49.13-46.28zm-120.94 84.84c50.31-49.4 48.71-84.38 48.71-84.38 0-8.3-7.2-3.71-7.2-3.71-13.37 10.75-32.59 11-32.59 11-5.54 24-35.85 53.83-43.59 61.14-5.17-4.7-38.87-36.21-44.71-61.65 0 0-19.22 0-32.59-10.76 0 0-7.21-4.32-7.2 4 0 0-1.6 33.92 48.71 83.32s56 69.45 53.28 83.32H141s2.19-38.09-27.71-74c2.58-2.66 5.33-5.42 8.25-8.28zm-68.39 17.65c-23.35 33.57-21.48 66.74-21.48 66.74h36.59c-1.62-8.53-.28-19.33 11.5-36.82a349.15 349.15 0 0 0-26.61-29.92z"/><path class="cls-1" d="M86.5 281.53s19.57-18.07 21.22-27c1.15-6.27-3.59-5.6-3.59-5.6H67.88c-4.63 0-2.06 6.83-2.06 6.83 6.38 12.49 20.68 25.77 20.68 25.77zm47.56-54.24a15.84 15.84 0 1 0-15.84-15.84 15.84 15.84 0 0 0 15.84 15.84zm-93.3 0a15.84 15.84 0 1 0-15.84-15.84 15.84 15.84 0 0 0 15.84 15.84zm47.57-12.81a15.84 15.84 0 1 0-15.84-15.84 15.84 15.84 0 0 0 15.84 15.84z"/></svg>