<svg id="Layer_1" data-name="Layer 1" xmlns="http://www.w3.org/2000/svg" viewBox="0 0 600 600"><defs><style>.cls-2,.cls-3{fill:#fff}.cls-3{fill-rule:evenodd}</style></defs><path d="M251.13 152.81a104.74 104.74 0 0 1 75.78-32.53c39.45 0 73.86 22 92.19 54.65a127.37 127.37 0 0 1 52.11-11.08c71.14 0 128.83 58.19 128.83 130s-57.69 130-128.83 130a128.84 128.84 0 0 1-25.39-2.53A94.18 94.18 0 0 1 322.43 460a107.45 107.45 0 0 1-199.74-4.86 98.87 98.87 0 0 1-20.5 2.13c-55.08 0-99.73-45.11-99.73-100.77a100.93 100.93 0 0 1 49.86-87.3 116.06 116.06 0 0 1 198.81-116.39" fill="#aec0cc"/><path class="cls-2" d="M89 324.1c-.38 1 .13 1.19.25 1.35a34.84 34.84 0 0 0 3.41 2.07 36.41 36.41 0 0 0 17.87 4.17c12.26 0 19.88-6.52 19.88-17v-.2c0-9.71-8.6-13.24-16.66-15.79l-1.05-.33c-6.08-2-11.32-3.68-11.32-7.69v-.2c0-3.42 3.06-5.94 7.82-5.94a35.32 35.32 0 0 1 15.57 4s1.19.77 1.62-.38c.24-.63 2.28-6.12 2.5-6.71a1.15 1.15 0 0 0-.6-1.38 34.81 34.81 0 0 0-17.57-4.72h-1.22c-11.22 0-19.06 6.78-19.06 16.49v.16c0 10.23 8.65 13.56 16.74 15.87l1.3.4c5.91 1.81 11 3.37 11 7.52v.21c0 3.79-3.31 6.62-8.63 6.62a28.88 28.88 0 0 1-15.79-4.54c-.86-.51-1.36-.87-2-1.27a1 1 0 0 0-1.62.55zm179.46 0c-.38 1 .13 1.19.25 1.35a36.07 36.07 0 0 0 3.41 2.07 36.46 36.46 0 0 0 17.88 4.17c12.26 0 19.88-6.52 19.88-17v-.2c0-9.71-8.6-13.24-16.65-15.79l-1.06-.33c-6.07-2-11.32-3.68-11.32-7.69v-.2c0-3.42 3.07-5.94 7.82-5.94a35.28 35.28 0 0 1 15.57 4s1.19.77 1.62-.38c.24-.63 2.28-6.12 2.5-6.71a1.14 1.14 0 0 0-.6-1.38 34.77 34.77 0 0 0-17.56-4.72H289c-11.23 0-19.06 6.78-19.06 16.49v.16c0 10.23 8.65 13.56 16.74 15.87l1.3.4c5.9 1.81 11 3.37 11 7.52v.21c0 3.79-3.31 6.62-8.64 6.62a28.9 28.9 0 0 1-15.79-4.54c-.86-.51-1.37-.85-2-1.27a1 1 0 0 0-1.61.55zm132.74-31.56a24.55 24.55 0 0 0-4.66-8.88 22.28 22.28 0 0 0-7.86-6 28.45 28.45 0 0 0-21.94 0 22.42 22.42 0 0 0-7.85 6 24.54 24.54 0 0 0-4.65 8.88 40.82 40.82 0 0 0 0 22 24.54 24.54 0 0 0 4.65 8.88 21.87 21.87 0 0 0 7.86 5.93 29 29 0 0 0 21.93 0 21.87 21.87 0 0 0 7.86-5.93 24.64 24.64 0 0 0 4.66-8.88 40.82 40.82 0 0 0 0-22m-10.23 11c0 5.93-1.11 10.61-3.29 13.91s-5.42 4.87-10 4.87-7.79-1.6-9.91-4.87-3.24-8-3.24-13.91 1.08-10.59 3.23-13.86 5.37-4.8 9.92-4.8 7.8 1.57 10 4.8 3.29 7.94 3.29 13.86"/><path class="cls-3" d="M485.22 320.73a1 1 0 0 0-1.31-.62 22.84 22.84 0 0 1-4.76 1.35 34.73 34.73 0 0 1-5.6.41c-4.94 0-8.89-1.48-11.71-4.38s-4.4-7.63-4.39-14c0-5.78 1.42-10.14 3.93-13.47s6.3-5 11.35-5a34.52 34.52 0 0 1 10.82 1.55s.8.35 1.18-.7c.91-2.5 1.56-4.26 2.52-7a.93.93 0 0 0-.64-1.21 39.82 39.82 0 0 0-6.82-1.73 52.71 52.71 0 0 0-7.68-.51 27.9 27.9 0 0 0-11.4 2.2 23.73 23.73 0 0 0-8.25 6 25.45 25.45 0 0 0-5 8.89 35.3 35.3 0 0 0-1.67 11c0 8.49 2.29 15.35 6.81 20.36s11.33 7.61 20.2 7.61a42 42 0 0 0 14.49-2.58 1 1 0 0 0 .42-1.23zm52.35-30.11a21.6 21.6 0 0 0-4.42-8.11 20.29 20.29 0 0 0-6.58-5 25.28 25.28 0 0 0-9.93-2 27.17 27.17 0 0 0-11.43 2.22 22.7 22.7 0 0 0-8 6.09 25 25 0 0 0-4.69 9 38.88 38.88 0 0 0-1.52 11 36.83 36.83 0 0 0 1.58 11.05 22.16 22.16 0 0 0 13.72 14.58 34.6 34.6 0 0 0 12.58 2c10 0 15.27-2.25 17.44-3.46.39-.22.75-.59.3-1.66l-2.25-6.33a1 1 0 0 0-1.3-.6c-2.49.93-6 2.58-14.22 2.56-5.38 0-9.36-1.59-11.85-4.08s-3.82-6.25-4-11.51h34.63a1 1 0 0 0 1-.91 37.32 37.32 0 0 0-1-14.91m-34.44 7.24a20 20 0 0 1 2.8-8.17c2.12-3.24 5.35-5 9.9-5a10.74 10.74 0 0 1 9.7 5 17 17 0 0 1 2.3 8.17zm-243.02-7.17a21.46 21.46 0 0 0-4.42-8.11 20.19 20.19 0 0 0-6.58-5 25.3 25.3 0 0 0-9.92-2 27.19 27.19 0 0 0-11.44 2.22 22.57 22.57 0 0 0-8 6.09 25 25 0 0 0-4.69 9 38.88 38.88 0 0 0-1.52 11 36.84 36.84 0 0 0 1.57 11.05 22.15 22.15 0 0 0 13.73 14.58 34.55 34.55 0 0 0 12.57 2c10 0 15.28-2.25 17.44-3.46.39-.22.75-.59.3-1.66L257 320a1 1 0 0 0-1.3-.6c-2.49.93-6 2.58-14.22 2.56-5.37 0-9.35-1.59-11.85-4.08s-3.82-6.25-4-11.51h34.63a1 1 0 0 0 1-.91 36.9 36.9 0 0 0-1-14.91m-34.44 7.24a20.33 20.33 0 0 1 2.79-8.17c2.14-3.24 5.36-5 9.91-5a10.75 10.75 0 0 1 9.71 5 17 17 0 0 1 2.29 8.17z"/><path class="cls-2" d="M164.64 296.2c-1.4-.11-3.22-.16-5.4-.16a32.72 32.72 0 0 0-8.54 1.1 22.28 22.28 0 0 0-7.22 3.35 16.15 16.15 0 0 0-6.88 13.69 18 18 0 0 0 1.59 7.91 14.16 14.16 0 0 0 4.51 5.42 19.11 19.11 0 0 0 7.06 3.06 41.5 41.5 0 0 0 9.17.94 63.2 63.2 0 0 0 10.52-.88c3.4-.58 7.57-1.42 8.73-1.7s2.42-.61 2.42-.61a1.09 1.09 0 0 0 .79-1.13v-31.68c0-6.95-1.85-12.1-5.5-15.29s-9-4.79-15.91-4.79a57.29 57.29 0 0 0-9.28.85s-7.56 1.47-10.67 3.91a1.08 1.08 0 0 0-.32 1.38l2.45 6.59a.88.88 0 0 0 1.14.56 4.66 4.66 0 0 0 .57-.29c6.66-3.62 15.09-3.52 15.09-3.52 3.74 0 6.62.77 8.57 2.24s2.84 3.64 2.84 8.26v1.47c-3-.43-5.71-.68-5.71-.68m-13.78 24.34a6.69 6.69 0 0 1-2-2.06 8.16 8.16 0 0 1-1.05-4.5c0-3 1-5.24 3.09-6.7 0 0 3-2.6 10.05-2.51a69.85 69.85 0 0 1 9.41.8v15.75a71 71 0 0 1-9.36 1.24c-7 .43-10.17-2-10.15-2"/><path class="cls-3" d="M444 278.35a.93.93 0 0 0-.52-1.24 31.39 31.39 0 0 0-5.8-1 17.31 17.31 0 0 0-8.94 1.44 15.61 15.61 0 0 0-5.85 4.32v-4.22a1 1 0 0 0-1-1H413a1 1 0 0 0-1 1v51.67a1 1 0 0 0 1.06 1h9.09a1 1 0 0 0 1.05-1v-25.81a30.39 30.39 0 0 1 1.15-9.09 13 13 0 0 1 3-5.1 10.4 10.4 0 0 1 4.29-2.57 16.79 16.79 0 0 1 4.63-.66 19.35 19.35 0 0 1 3.81.47c.67.07 1-.34 1.27-.94.59-1.58 2.28-6.33 2.6-7.27m-85.36-23.94a27.8 27.8 0 0 0-3.42-.81 26.09 26.09 0 0 0-4.71-.37c-6.26 0-11.2 1.78-14.67 5.27s-5.78 8.76-7 15.7l-.42 2.35h-7.86a1.16 1.16 0 0 0-1.16 1l-1.29 7.2c-.1.69.2 1.12 1.12 1.12h7.66l-7.77 43.35a53.53 53.53 0 0 1-2.08 8.53 17.24 17.24 0 0 1-2.41 4.93 6.41 6.41 0 0 1-3.17 2.45 13 13 0 0 1-4.08.58 15.26 15.26 0 0 1-2.77-.31 7.93 7.93 0 0 1-1.87-.59 1 1 0 0 0-1.26.55c-.28.74-2.32 6.35-2.56 7a1 1 0 0 0 .53 1.38 25.84 25.84 0 0 0 3.16.92 20.78 20.78 0 0 0 5.08.49 25.25 25.25 0 0 0 8.5-1.32 16.08 16.08 0 0 0 6.4-4.46 22.88 22.88 0 0 0 4.5-7.76 67.05 67.05 0 0 0 3.09-11.61l7.8-44.15h11.41a1.17 1.17 0 0 0 1.16-1l1.29-7.21c.08-.68-.21-1.11-1.13-1.11h-11.07a46 46 0 0 1 1.82-7.81 10.11 10.11 0 0 1 2.44-3.7 7.28 7.28 0 0 1 2.9-1.81 12.18 12.18 0 0 1 3.71-.52 14.78 14.78 0 0 1 2.85.28c1.07.23 1.49.35 1.77.43 1.12.35 1.27 0 1.5-.53l2.65-7.27a.92.92 0 0 0-.64-1.21m-154.74 74.93a1 1 0 0 1-1 1.05h-9.19a1 1 0 0 1-1-1.05v-73.93a1 1 0 0 1 1-1h9.19a1 1 0 0 1 1 1z"/></svg>