<svg data-name="Layer 1" xmlns="http://www.w3.org/2000/svg" viewBox="0 0 600 600"><path d="M498.91 117.26a5.78 5.78 0 0 0-5.22-4.85c-2.17-.18-48.09-3.58-48.09-3.58s-31.9-31.67-35.4-35.17-10.34-2.44-13-1.66l-17.85 5.51c-10.65-30.66-29.46-58.83-62.54-58.83-.91 0-1.85 0-2.79.09C304.61 6.33 293 .92 282.89.92 205.83.92 169 97.25 157.47 146.21c-29.94 9.28-51.22 15.87-53.93 16.73-16.72 5.24-17.25 5.77-19.44 21.52-1.65 11.92-45.39 350.13-45.39 350.13l340.78 63.85 184.65-40s-64.82-438.23-65.23-441.23zM360.52 83.34l-28.84 8.92v-6.22c0-19.05-2.64-34.39-6.89-46.55 17.07 2.13 28.42 21.51 35.73 43.85zm-56.85-40.08c4.74 11.88 7.82 28.92 7.82 51.92v3.34L251.92 117c11.46-44.26 33-65.63 51.75-73.7zm-22.9-21.67a17.41 17.41 0 0 1 9.89 3.34c-24.7 11.62-51.17 40.89-62.35 99.34l-47.07 14.58c13.09-44.59 44.18-117.26 99.53-117.26z" fill="#96bf47"/><path d="M493.69 112.41c-2.17-.18-48.09-3.58-48.09-3.58s-31.9-31.67-35.4-35.17a8.66 8.66 0 0 0-4.92-2.26l-25.77 527 184.63-39.94s-64.82-438.23-65.23-441.23a5.78 5.78 0 0 0-5.22-4.85" fill="#5f8f3e"/><path d="M316.81 214.44L294 282.16s-19.94-10.65-44.4-10.65c-35.8 0-37.6 22.49-37.6 28.17 0 30.93 80.63 42.78 80.63 115.23 0 57-36.15 93.71-84.9 93.71-58.5 0-88.41-36.41-88.41-36.41L135 420.46s30.75 26.4 56.7 26.4c17 0 23.85-13.35 23.85-23.1 0-40.35-66.15-42.15-66.15-108.45 0-55.8 40-109.8 120.9-109.8 31.15 0 46.54 8.93 46.54 8.93" fill="#fff"/></svg>