<svg id="Layer_1" data-name="Layer 1" xmlns="http://www.w3.org/2000/svg" viewBox="0 0 600 600"><defs><style>.cls-1{fill:#aec0cc}</style></defs><path class="cls-1" d="M388.14 38.78A53.17 53.17 0 1 0 287 71.53l137.32 422.34a53 53 0 0 0 64.52 32.75c28.35-8.31 45.46-38.12 36.17-65.5-.01-.98-136.87-422.34-136.87-422.34zM175.5 107.7a53.17 53.17 0 0 0-101.18 32.75L211.68 562.8a53 53 0 0 0 64.52 32.75c28.35-8.31 45.46-38.13 36.17-65.5 0-.98-136.87-422.35-136.87-422.35z"/><path class="cls-1" d="M561.19 388.29a53.18 53.18 0 0 0-32.76-101.19L105.6 425a53 53 0 0 0-32.75 64.52c8.31 28.36 38.13 45.46 65.5 36.18.98-.05 422.84-137.41 422.84-137.41z"/><path class="cls-1" d="M193.59 508.05c27.37-8.8 63.06-20.53 101.19-32.75-8.78-27.38-20.53-63.06-32.78-101.19l-101.16 32.75zm213.13-69.41c38.13-12.22 73.81-24 101.18-32.75-8.79-27.38-20.53-63.06-32.75-101.19L374 337.45zm85.05-262.99A53.18 53.18 0 1 0 459 74.46L36.68 211.82a53 53 0 0 0-32.75 64.53c8.31 28.35 38.13 45.46 65.5 36.17.98 0 422.34-136.87 422.34-136.87z"/><path class="cls-1" d="M124.67 294.92c27.37-8.8 63.05-20.53 101.18-32.75C213.63 224 201.9 188.36 193.1 161L91.92 193.74zM337.3 226c38.13-12.22 73.82-23.95 101.19-32.75-12.22-38.13-23.95-73.82-32.75-101.19l-101.19 32.75z"/></svg>