<svg data-name="Layer 1" xmlns="http://www.w3.org/2000/svg" viewBox="0 0 600 600"><path d="M388.53 38.78a53.17 53.17 0 1 0-101.18 32.75l137.36 422.34a53 53 0 0 0 64.52 32.75c28.35-8.31 45.46-38.12 36.17-65.5 0-.98-136.87-422.34-136.87-422.34z" fill="#ebb32d"/><path d="M175.9 107.7a53.18 53.18 0 0 0-101.19 32.75L212.07 562.8a53 53 0 0 0 64.52 32.75c28.36-8.31 45.46-38.13 36.18-65.5 0-.98-136.87-422.35-136.87-422.35z" fill="#66bd9f"/><path d="M561.58 388.29a53.18 53.18 0 1 0-32.75-101.19L106 425a53 53 0 0 0-32.75 64.52c8.31 28.36 38.13 45.46 65.51 36.18.96-.05 422.82-137.41 422.82-137.41z" fill="#e11d5b"/><path d="M194 508.05c27.38-8.8 63.06-20.53 101.19-32.75-8.8-27.38-20.53-63.06-32.75-101.19l-101.21 32.75z" fill="#331332"/><path d="M407.11 438.64c38.13-12.22 73.81-24 101.19-32.75-8.8-27.38-20.53-63.06-32.76-101.19l-101.18 32.75z" fill="#d62228"/><path d="M492.16 175.65a53.18 53.18 0 1 0-32.75-101.19L37.07 211.82a53 53 0 0 0-32.75 64.53c8.31 28.35 38.13 45.46 65.5 36.17.98 0 422.34-136.87 422.34-136.87z" fill="#8dd0dc"/><path d="M125.06 294.92c27.37-8.8 63.06-20.53 101.19-32.75C214 224 202.29 188.36 193.49 161L92.31 193.74z" fill="#278b75"/><path d="M337.7 226c38.12-12.22 73.81-23.95 101.18-32.75-12.22-38.13-23.95-73.82-32.75-101.19L305 124.81z" fill="#819c3c"/></svg>