<svg id="Layer_1" data-name="Layer 1" xmlns="http://www.w3.org/2000/svg" viewBox="0 0 600 600"><defs><style>.cls-1{fill:#aec0cc}</style></defs><g id="_Group_" data-name="&lt;Group&gt;"><path id="_Path_" data-name="&lt;Path&gt;" class="cls-1" d="M409.02 2.51h58.29v594.22h-58.29z"/><path id="_Path_2" data-name="&lt;Path&gt;" class="cls-1" d="M92.8 137.85h73.05V1.86h96.81v136h87.48v74.57h-87.48v242.15a246.71 246.71 0 0 0 1.28 27.2q1.26 11.42 5.93 19.31a28.67 28.67 0 0 0 14 11.84q9.33 3.95 25.47 3.94c6.79 0 13.59-.13 20.38-.44a97.74 97.74 0 0 0 20.39-3.06v77.21q-16.15 1.74-31.43 3.51a280.07 280.07 0 0 1-31.42 1.75q-38.22 0-61.57-7.45t-36.51-21.94Q176 552 171.36 530t-5.51-50V212.42h-73v-74.57"/></g></svg>