<svg data-name="Layer 1" xmlns="http://www.w3.org/2000/svg" viewBox="0 0 600 600"><g data-name="&lt;Group&gt;"><path data-name="&lt;Path&gt;" fill="#8ac6be" d="M401.57 4.86h58.29v594.22h-58.29z"/><path data-name="&lt;Path&gt;" d="M85.35 140.2h73.05V4.21h96.81v136h87.47v74.58h-87.47v242.14a246.71 246.71 0 0 0 1.28 27.2q1.26 11.42 5.93 19.31a28.62 28.62 0 0 0 14 11.84q9.33 3.94 25.47 4 10.18 0 20.38-.45a97.55 97.55 0 0 0 20.38-3.06v77.21q-16.14 1.74-31.42 3.52a280.1 280.1 0 0 1-31.42 1.74q-38.22 0-61.58-7.45t-36.5-21.94q-13.2-14.47-17.85-36.42t-5.51-50V214.78H85.35V140.2" fill="#34393f"/></g></svg>