<svg data-name="Layer 1" xmlns="http://www.w3.org/2000/svg" xmlns:xlink="http://www.w3.org/1999/xlink" viewBox="0 0 600 600"><defs><linearGradient id="a" x1="62.34" y1="1475.95" x2="546.74" y2="1255.14" gradientTransform="translate(0 -1008.95)" gradientUnits="userSpaceOnUse"><stop offset="0" stop-color="#6d5da5"/><stop offset=".16" stop-color="#5e6fb3"/><stop offset=".38" stop-color="#4d8dcb"/><stop offset=".54" stop-color="#3ba4dc"/><stop offset=".63" stop-color="#33ace3"/></linearGradient><linearGradient id="b" x1="259.68" y1="1250.1" x2="11.27" y2="1030.7" gradientTransform="translate(0 -1008.95)" gradientUnits="userSpaceOnUse"><stop offset="0" stop-color="#6d5da5"/><stop offset=".07" stop-color="#7c5ba2"/><stop offset=".25" stop-color="#b75098"/><stop offset=".39" stop-color="#e93f8f"/><stop offset=".47" stop-color="#e93c8b"/></linearGradient><linearGradient id="c" x1="44.59" y1="1509.55" x2="631.06" y2="1140.01" xlink:href="#a"/></defs><path d="M570.57 405.6c-1.7-1.69-111.28-107-111.28-107s83.25-88.34 105.33-110.43c6.8-6.8 12.75-13.59 17-22.09C612.2 114.23 594.36 48 542.54 17.4c-38.23-22.09-85.8-18.69-119.78 6.79a125.6 125.6 0 0 0-16.14 13.59c-2.55 3.4-118.07 108.73-218.31 200.48L376 357.18 179 578.9a93 93 0 0 1-36.56 16.1 18.69 18.69 0 0 0 6.79-.85c39.08-6 372.92-62 389.06-65.41a71.75 71.75 0 0 0 48.42-33.13c18.69-30.54 10.19-68.77-16.14-90.01z" fill="url(#a)"/><path d="M392.18 261.19c-3.4-22.93-15.29-41.62-32.28-55.21-17.84-13.59-155.45-156.31-170.74-172.44C165.37 10.6 131.39-2.14 96.56 3.8 37.1 12.3-4.52 68.36 4.82 127.83c4.25 29.73 21.24 55.17 43.32 71.35 22.09 17 195.38 135.92 206.43 144.41 17.84 13.59 41.62 21.24 65.41 17 46.72-8.5 79.85-52.68 72.2-99.4z" fill="url(#b)"/><path d="M197.65 578.05c.85 0 197.93-221.72 197.93-221.72L196.8 230.61C126.3 295.17 60.89 353.79 45.6 368.23a133.15 133.15 0 0 0-25.49 31.43A130.78 130.78 0 0 0 67.68 578.9c25.49 14.44 83.25 32.28 129.97-.85z" fill="url(#c)"/><path fill="#010101" d="M116.1 115.93h366.97V482.9H116.1z"/><path d="M150.08 414.1h137.61v22.94H150.08zm54.37-158l-57.77-91.75h39.08l35.68 60.32 37.37-60.32h38.23l-58.61 90.9v61.16h-33.98V256.1zm151.2-61.16h-46.72v-30.59H435.5v30.59h-46.72v121.47h-33.13V194.94z" fill="#fff"/></svg>