<svg id="Layer_1" data-name="Layer 1" xmlns="http://www.w3.org/2000/svg" viewBox="0 0 600 600"><defs><style>.cls-1{fill:#aec0cc;}</style></defs><title>app_icons</title><rect class="cls-1" x="268.09" y="238.62" width="34.76" height="166.48"/><path class="cls-1" d="M548.9,238.62H501.34L456.78,388.79l-29.1-41.08C441,342.77,449.2,328,449.2,312.87v-42.4c0-19.11-12.75-31.85-31.85-31.85H326.63V405.09h34.76V350.21h33.07l35.43,54.88H486.7l38.42-129.48,19.42,65.46H525.12l-13.5,29.27h41.6l10.32,34.75h34.75ZM418.1,300.08c0,9.66-5.57,20.86-15.77,20.86H361.39V269.72h40.94c10.2,0,15.77,5.65,15.77,15.32Z"/><path class="cls-1" d="M242.48,238.62H207.72V361.69c0,19.46-9,20.88-11.32,21.79a63.88,63.88,0,0,1-11.46,2.65l8.41,29.57c55-1.46,49.13-46.28,49.13-46.28Z"/><path class="cls-1" d="M121.54,323.46c50.31-49.4,48.71-84.38,48.71-84.38,0-8.3-7.2-3.71-7.2-3.71-13.37,10.75-32.59,11-32.59,11-5.54,24-35.85,53.83-43.59,61.14C81.7,302.81,48,271.3,42.16,245.86c0,0-19.22,0-32.59-10.76,0,0-7.21-4.32-7.2,4,0,0-1.6,33.92,48.71,83.32s56,69.45,53.28,83.32H141s2.19-38.09-27.71-74C115.87,329.08,118.62,326.32,121.54,323.46Z"/><path class="cls-1" d="M53.15,341.11c-23.35,33.57-21.48,66.74-21.48,66.74H68.26c-1.62-8.53-.28-19.33,11.5-36.82A349.15,349.15,0,0,0,53.15,341.11Z"/><path class="cls-1" d="M86.5,281.53s19.57-18.07,21.22-27c1.15-6.27-3.59-5.6-3.59-5.6H67.88c-4.63,0-2.06,6.83-2.06,6.83C72.2,268.25,86.5,281.53,86.5,281.53Z"/><path class="cls-1" d="M134.06,227.29a15.84,15.84,0,1,0-15.84-15.84A15.84,15.84,0,0,0,134.06,227.29Z"/><path class="cls-1" d="M40.76,227.29a15.84,15.84,0,1,0-15.84-15.84A15.84,15.84,0,0,0,40.76,227.29Z"/><path class="cls-1" d="M88.33,214.48a15.84,15.84,0,1,0-15.84-15.84A15.84,15.84,0,0,0,88.33,214.48Z"/></svg>