<svg id="Layer_1" data-name="Layer 1" xmlns="http://www.w3.org/2000/svg" viewBox="0 0 600 600"><defs><style>.cls-1{fill:#1c3761;}</style></defs><title>app_icons</title><rect class="cls-1" x="268.48" y="238.62" width="34.76" height="166.48"/><path class="cls-1" d="M549.29,238.62H501.73L457.17,388.79l-29.1-41.08c13.28-4.94,21.52-19.71,21.52-34.84v-42.4c0-19.11-12.74-31.85-31.85-31.85H327V405.09h34.76V350.21h33.07l35.43,54.88h56.81l38.42-129.48,19.42,65.46H525.51L512,370.34h41.59l10.32,34.75h34.76Zm-130.8,61.46c0,9.66-5.57,20.86-15.77,20.86H361.78V269.72h40.94c10.2,0,15.77,5.65,15.77,15.32Z"/><path class="cls-1" d="M242.87,238.62H208.11V361.69c0,19.46-9,20.88-11.32,21.79a63.88,63.88,0,0,1-11.46,2.65l8.41,29.57c55-1.46,49.13-46.28,49.13-46.28Z"/><path class="cls-1" d="M121.93,323.46c50.31-49.4,48.71-84.38,48.71-84.38,0-8.3-7.2-3.71-7.2-3.71-13.37,10.75-32.59,11-32.59,11-5.54,24-35.84,53.83-43.59,61.14-5.17-4.72-38.84-36.23-44.71-61.67,0,0-19.22,0-32.59-10.76,0,0-7.21-4.32-7.2,4,0,0-1.6,33.92,48.71,83.32s56,69.45,53.28,83.32h36.59s2.2-38.09-27.7-74C116.26,329.08,119,326.32,121.93,323.46Z"/><path class="cls-1" d="M53.55,341.11c-23.36,33.57-21.49,66.74-21.49,66.74H68.65c-1.62-8.53-.28-19.33,11.5-36.82A350.52,350.52,0,0,0,53.55,341.11Z"/><path class="cls-1" d="M86.9,281.53s19.56-18.07,21.21-27c1.15-6.27-3.58-5.6-3.58-5.6H68.27c-4.63,0-2.06,6.83-2.06,6.83C72.59,268.25,86.9,281.53,86.9,281.53Z"/><path class="cls-1" d="M134.45,227.29a15.84,15.84,0,1,0-15.84-15.84A15.85,15.85,0,0,0,134.45,227.29Z"/><path class="cls-1" d="M41.16,227.29a15.84,15.84,0,1,0-15.85-15.84A15.84,15.84,0,0,0,41.16,227.29Z"/><path class="cls-1" d="M88.72,214.48a15.84,15.84,0,1,0-15.84-15.84A15.84,15.84,0,0,0,88.72,214.48Z"/></svg>