<svg id="Layer_1" data-name="Layer 1" xmlns="http://www.w3.org/2000/svg" viewBox="0 0 600 600"><defs><style>.cls-1{fill:#209bd8;}.cls-2,.cls-3{fill:#fff;}.cls-3{fill-rule:evenodd;}</style></defs><title>app_icons</title><path class="cls-1" d="M249.56,152.81a104.74,104.74,0,0,1,75.78-32.53c39.45,0,73.86,22,92.19,54.65a127.37,127.37,0,0,1,52.11-11.08c71.15,0,128.83,58.19,128.83,130s-57.68,130-128.83,130a128.84,128.84,0,0,1-25.39-2.53A94.18,94.18,0,0,1,320.86,460a107.45,107.45,0,0,1-199.74-4.86,98.87,98.87,0,0,1-20.5,2.13C45.54,457.27.89,412.16.89,356.5a100.92,100.92,0,0,1,49.87-87.3,116.05,116.05,0,0,1,198.8-116.39"/><path class="cls-2" d="M87.44,324.1c-.38,1,.13,1.19.25,1.35a36.07,36.07,0,0,0,3.41,2.07A36.44,36.44,0,0,0,109,331.69c12.26,0,19.88-6.52,19.88-17v-.2c0-9.71-8.6-13.24-16.65-15.79l-1.06-.33c-6.08-2-11.32-3.68-11.32-7.69v-.2c0-3.42,3.07-5.94,7.82-5.94a35.28,35.28,0,0,1,15.57,4s1.19.77,1.62-.38c.24-.63,2.28-6.12,2.5-6.71a1.14,1.14,0,0,0-.6-1.38,34.8,34.8,0,0,0-17.56-4.72h-1.23c-11.22,0-19,6.78-19,16.49V292c0,10.23,8.64,13.56,16.74,15.87l1.3.4c5.9,1.81,11,3.37,11,7.52V316c0,3.79-3.31,6.62-8.63,6.62a28.88,28.88,0,0,1-15.79-4.54c-.86-.51-1.35-.87-2-1.27a1,1,0,0,0-1.62.55Z"/><path class="cls-2" d="M266.89,324.1c-.38,1,.13,1.19.25,1.35a36.07,36.07,0,0,0,3.41,2.07,36.46,36.46,0,0,0,17.87,4.17c12.27,0,19.88-6.52,19.88-17v-.2c0-9.71-8.6-13.24-16.65-15.79l-1.06-.33c-6.07-2-11.32-3.68-11.32-7.69v-.2c0-3.42,3.07-5.94,7.82-5.94a35.28,35.28,0,0,1,15.57,4s1.2.77,1.63-.38c.23-.63,2.27-6.12,2.49-6.71a1.14,1.14,0,0,0-.6-1.38,34.77,34.77,0,0,0-17.56-4.72H287.4c-11.23,0-19.06,6.78-19.06,16.49V292c0,10.23,8.65,13.56,16.74,15.87l1.3.4c5.9,1.81,11,3.37,11,7.52V316c0,3.79-3.31,6.62-8.64,6.62a28.9,28.9,0,0,1-15.79-4.54c-.86-.51-1.37-.85-2-1.27a1,1,0,0,0-1.61.55Z"/><path class="cls-2" d="M399.63,292.54a24.4,24.4,0,0,0-4.66-8.88,22.28,22.28,0,0,0-7.86-6,28.45,28.45,0,0,0-21.94,0,22.42,22.42,0,0,0-7.85,6,24.54,24.54,0,0,0-4.65,8.88,40.82,40.82,0,0,0,0,22,24.54,24.54,0,0,0,4.65,8.88,21.87,21.87,0,0,0,7.86,5.93,29,29,0,0,0,21.93,0,21.87,21.87,0,0,0,7.86-5.93,24.48,24.48,0,0,0,4.66-8.88,40.82,40.82,0,0,0,0-22m-10.23,11c0,5.93-1.11,10.61-3.29,13.91s-5.42,4.87-10,4.87-7.79-1.6-9.91-4.87-3.24-8-3.24-13.91,1.09-10.59,3.23-13.86,5.37-4.8,9.92-4.8,7.8,1.57,10,4.8,3.29,7.94,3.29,13.86"/><path class="cls-3" d="M483.65,320.73a1,1,0,0,0-1.3-.62,23.19,23.19,0,0,1-4.76,1.35,35,35,0,0,1-5.61.41c-4.94,0-8.89-1.48-11.7-4.38s-4.41-7.63-4.4-14c0-5.78,1.42-10.14,3.93-13.47s6.3-5,11.36-5A34.5,34.5,0,0,1,482,286.57s.81.35,1.18-.7c.91-2.5,1.57-4.26,2.52-7a.92.92,0,0,0-.64-1.21,39.58,39.58,0,0,0-6.82-1.73,52.71,52.71,0,0,0-7.68-.51,27.9,27.9,0,0,0-11.4,2.2,23.6,23.6,0,0,0-8.24,6,25.31,25.31,0,0,0-5,8.89,35.3,35.3,0,0,0-1.66,11c0,8.49,2.28,15.35,6.8,20.36s11.33,7.61,20.2,7.61a42,42,0,0,0,14.49-2.58,1,1,0,0,0,.42-1.23Z"/><path class="cls-3" d="M536,290.62a21.6,21.6,0,0,0-4.42-8.11,20.29,20.29,0,0,0-6.58-5,25.28,25.28,0,0,0-9.93-2,27.17,27.17,0,0,0-11.43,2.22,22.7,22.7,0,0,0-8,6.09,24.93,24.93,0,0,0-4.68,9,38.88,38.88,0,0,0-1.52,11A36.84,36.84,0,0,0,491,314.89a22.15,22.15,0,0,0,13.73,14.58,34.55,34.55,0,0,0,12.57,2c10,0,15.27-2.25,17.44-3.46.39-.22.75-.59.3-1.66L532.8,320a1,1,0,0,0-1.3-.6c-2.49.93-6,2.58-14.22,2.56-5.38,0-9.35-1.59-11.85-4.08s-3.82-6.25-4-11.51l34.63,0a1,1,0,0,0,1-.91,36.9,36.9,0,0,0-1-14.91m-34.44,7.24a20,20,0,0,1,2.8-8.17c2.12-3.24,5.35-5,9.9-5a10.74,10.74,0,0,1,9.7,5,17,17,0,0,1,2.3,8.17Z"/><path class="cls-3" d="M258.61,290.62a21.6,21.6,0,0,0-4.43-8.11,20.19,20.19,0,0,0-6.58-5,25.29,25.29,0,0,0-9.91-2,27.23,27.23,0,0,0-11.45,2.22,22.57,22.57,0,0,0-8,6.09,25,25,0,0,0-4.69,9,38.88,38.88,0,0,0-1.52,11,36.84,36.84,0,0,0,1.57,11.05,22.15,22.15,0,0,0,13.73,14.58,34.55,34.55,0,0,0,12.57,2c10,0,15.28-2.25,17.45-3.46.38-.22.74-.59.29-1.66L255.4,320a1,1,0,0,0-1.3-.6c-2.49.93-6,2.58-14.22,2.56-5.36,0-9.35-1.59-11.85-4.08s-3.82-6.25-4-11.51l34.63,0a1,1,0,0,0,1-.91,37,37,0,0,0-1-14.91m-34.45,7.24a20.33,20.33,0,0,1,2.79-8.17c2.14-3.24,5.36-5,9.91-5a10.75,10.75,0,0,1,9.71,5c1.43,2.14,2.05,5,2.3,8.17Z"/><path class="cls-2" d="M163.07,296.2c-1.4-.11-3.22-.16-5.4-.16a32.59,32.59,0,0,0-8.53,1.1,22.23,22.23,0,0,0-7.23,3.35A16.15,16.15,0,0,0,135,314.18a18,18,0,0,0,1.59,7.91,14.16,14.16,0,0,0,4.51,5.42,19.11,19.11,0,0,0,7.06,3.06,41.5,41.5,0,0,0,9.17.94,63.41,63.41,0,0,0,10.53-.88c3.4-.58,7.56-1.42,8.72-1.7s2.42-.61,2.42-.61a1.09,1.09,0,0,0,.79-1.13l0-31.68c0-6.95-1.85-12.1-5.49-15.29s-9-4.79-15.92-4.79a57.29,57.29,0,0,0-9.28.85s-7.56,1.47-10.67,3.91a1.08,1.08,0,0,0-.32,1.38l2.45,6.59a.88.88,0,0,0,1.14.56,4.66,4.66,0,0,0,.57-.29c6.66-3.62,15.09-3.52,15.09-3.52,3.74,0,6.63.77,8.57,2.24s2.84,3.64,2.84,8.26v1.47c-3-.43-5.71-.68-5.71-.68m-13.78,24.34a6.69,6.69,0,0,1-2-2.06,8.25,8.25,0,0,1-1.05-4.5c0-3,1-5.24,3.1-6.7,0,0,3-2.6,10-2.51a69.64,69.64,0,0,1,9.41.8v15.75a71,71,0,0,1-9.35,1.24c-7,.43-10.18-2-10.16-2"/><path class="cls-3" d="M442.44,278.35a.93.93,0,0,0-.52-1.24,31.39,31.39,0,0,0-5.8-1,17.34,17.34,0,0,0-8.94,1.44,15.49,15.49,0,0,0-5.84,4.32v-4.22a1,1,0,0,0-1-1h-8.87a1,1,0,0,0-1,1v51.67a1,1,0,0,0,1.06,1h9.1a1,1,0,0,0,1-1V303.51a30.39,30.39,0,0,1,1.15-9.09,13,13,0,0,1,3-5.1,10.53,10.53,0,0,1,4.29-2.57,16.79,16.79,0,0,1,4.63-.66,19.35,19.35,0,0,1,3.81.47c.67.07,1-.34,1.27-.94.59-1.58,2.28-6.33,2.6-7.27"/><path class="cls-3" d="M357,254.41a27.8,27.8,0,0,0-3.42-.81,26.09,26.09,0,0,0-4.71-.37c-6.26,0-11.2,1.78-14.67,5.27s-5.78,8.76-7,15.7l-.42,2.35H319a1.16,1.16,0,0,0-1.16,1l-1.29,7.2c-.1.69.2,1.12,1.12,1.12h7.66l-7.77,43.35a53.53,53.53,0,0,1-2.08,8.53,17.24,17.24,0,0,1-2.41,4.93,6.41,6.41,0,0,1-3.17,2.45,12.93,12.93,0,0,1-4.08.58,15.26,15.26,0,0,1-2.77-.31,7.93,7.93,0,0,1-1.87-.59,1,1,0,0,0-1.26.55c-.28.74-2.32,6.35-2.56,7a1,1,0,0,0,.53,1.38,25.84,25.84,0,0,0,3.16.92,20.78,20.78,0,0,0,5.08.49,25.25,25.25,0,0,0,8.5-1.32,16.18,16.18,0,0,0,6.41-4.46,23,23,0,0,0,4.49-7.76A66.16,66.16,0,0,0,328.56,330l7.8-44.15h11.41a1.17,1.17,0,0,0,1.16-1l1.29-7.21c.09-.68-.2-1.11-1.13-1.11H338a45.42,45.42,0,0,1,1.83-7.81,10,10,0,0,1,2.43-3.7,7.35,7.35,0,0,1,2.9-1.81,12.18,12.18,0,0,1,3.71-.52,14.7,14.7,0,0,1,2.85.28c1.07.23,1.49.35,1.77.43,1.13.35,1.27,0,1.5-.53l2.65-7.27a.92.92,0,0,0-.64-1.21"/><path class="cls-3" d="M202.29,329.32a1,1,0,0,1-1,1.05h-9.18a1,1,0,0,1-1-1.05V255.39a1,1,0,0,1,1-1h9.18a1,1,0,0,1,1,1Z"/></svg>