<svg id="Layer_1" data-name="Layer 1" xmlns="http://www.w3.org/2000/svg" viewBox="0 0 600 600"><defs><style>.cls-1{fill:#aec0cc;}.cls-2{fill:#fff;}</style></defs><title>app_icons</title><path class="cls-1" d="M492.64,117.26a5.8,5.8,0,0,0-5.22-4.85c-2.17-.18-48.1-3.58-48.1-3.58s-31.89-31.67-35.4-35.17-10.34-2.44-13-1.66l-17.85,5.51c-10.66-30.66-29.46-58.83-62.54-58.83-.92,0-1.86,0-2.8.09C298.34,6.33,286.68.92,276.61.92,199.55.92,162.74,97.25,151.2,146.21c-29.95,9.28-51.22,15.87-53.94,16.73-16.71,5.24-17.24,5.77-19.43,21.52-1.66,11.92-45.39,350.13-45.39,350.13l340.78,63.85,184.64-40S493,120.26,492.64,117.26ZM354.24,83.34l-28.83,8.92c0-2,0-4,0-6.22,0-19.05-2.65-34.39-6.89-46.55C335.58,41.62,346.94,61,354.24,83.34ZM297.39,43.26c4.74,11.88,7.82,28.92,7.82,51.92,0,1.17,0,2.25,0,3.34L245.64,117c11.47-44.26,33-65.63,51.75-73.7ZM274.5,21.59a17.38,17.38,0,0,1,9.88,3.34c-24.7,11.62-51.17,40.89-62.35,99.34L175,138.85C188.05,94.26,219.15,21.59,274.5,21.59Z"/><path class="cls-1" d="M487.42,112.41c-2.17-.18-48.1-3.58-48.1-3.58s-31.89-31.67-35.4-35.17A8.63,8.63,0,0,0,399,71.4l-25.77,527,184.63-39.94S493,120.26,492.64,117.26a5.8,5.8,0,0,0-5.22-4.85"/><path class="cls-2" d="M310.54,214.44l-22.77,67.72s-19.95-10.65-44.4-10.65c-35.85,0-37.65,22.5-37.65,28.17,0,30.93,80.63,42.78,80.63,115.23,0,57-36.16,93.71-84.9,93.71-58.5,0-88.42-36.41-88.42-36.41l15.67-51.75s30.75,26.4,56.7,26.4c16.95,0,23.85-13.35,23.85-23.1,0-40.35-66.15-42.15-66.15-108.45,0-55.8,40.05-109.8,120.9-109.8,31.15,0,46.54,8.93,46.54,8.93"/></svg>