<svg id="Layer_1" data-name="Layer 1" xmlns="http://www.w3.org/2000/svg" viewBox="0 0 600 600"><defs><style>.cls-1{fill:#ebb32d;}.cls-2{fill:#66bd9f;}.cls-3{fill:#e11d5b;}.cls-4{fill:#331332;}.cls-5{fill:#d62228;}.cls-6{fill:#8dd0dc;}.cls-7{fill:#278b75;}.cls-8{fill:#819c3c;}</style></defs><title>app_icons</title><path class="cls-1" d="M388.53,38.78A53.17,53.17,0,1,0,287.35,71.53L424.71,493.87a53,53,0,0,0,64.52,32.75c28.35-8.31,45.46-38.12,36.17-65.5C525.4,460.14,388.53,38.78,388.53,38.78Z"/><path class="cls-2" d="M175.9,107.7A53.18,53.18,0,0,0,74.71,140.45L212.07,562.8a53,53,0,0,0,64.52,32.75c28.36-8.31,45.46-38.13,36.18-65.5C312.77,529.07,175.9,107.7,175.9,107.7Z"/><path class="cls-3" d="M561.58,388.29A53.18,53.18,0,1,0,528.83,287.1L106,425a53,53,0,0,0-32.75,64.52c8.31,28.36,38.13,45.46,65.51,36.18C139.72,525.65,561.58,388.29,561.58,388.29Z"/><path class="cls-4" d="M194,508.05c27.38-8.8,63.06-20.53,101.19-32.75-8.8-27.38-20.53-63.06-32.75-101.19L161.23,406.86Z"/><path class="cls-5" d="M407.11,438.64c38.13-12.22,73.81-24,101.19-32.75-8.8-27.38-20.53-63.06-32.76-101.19L374.36,337.45Z"/><path class="cls-6" d="M492.16,175.65A53.18,53.18,0,1,0,459.41,74.46L37.07,211.82A53,53,0,0,0,4.32,276.35c8.31,28.35,38.13,45.46,65.5,36.17C70.8,312.52,492.16,175.65,492.16,175.65Z"/><path class="cls-7" d="M125.06,294.92c27.37-8.8,63.06-20.53,101.19-32.75C214,224,202.29,188.36,193.49,161L92.31,193.74Z"/><path class="cls-8" d="M337.7,226c38.12-12.22,73.81-23.95,101.18-32.75-12.22-38.13-23.95-73.82-32.75-101.19L305,124.81Z"/></svg>