<svg id="Layer_1" data-name="Layer 1" xmlns="http://www.w3.org/2000/svg" viewBox="0 0 600 600"><defs><style>.cls-1{fill:#aec0cc;}</style></defs><title>app_icons</title><path class="cls-1" d="M388.14,38.78A53.17,53.17,0,1,0,287,71.53L424.32,493.87a53,53,0,0,0,64.52,32.75c28.35-8.31,45.46-38.12,36.17-65.5C525,460.14,388.14,38.78,388.14,38.78Z"/><path class="cls-1" d="M175.5,107.7A53.17,53.17,0,0,0,74.32,140.45L211.68,562.8a53,53,0,0,0,64.52,32.75c28.35-8.31,45.46-38.13,36.17-65.5C312.37,529.07,175.5,107.7,175.5,107.7Z"/><path class="cls-1" d="M561.19,388.29A53.18,53.18,0,0,0,528.43,287.1L105.6,425a53,53,0,0,0-32.75,64.52c8.31,28.36,38.13,45.46,65.5,36.18C139.33,525.65,561.19,388.29,561.19,388.29Z"/><path class="cls-1" d="M193.59,508.05c27.37-8.8,63.06-20.53,101.19-32.75C286,447.92,274.25,412.24,262,374.11L160.84,406.86Z"/><path class="cls-1" d="M406.72,438.64c38.13-12.22,73.81-24,101.18-32.75-8.79-27.38-20.53-63.06-32.75-101.19L374,337.45Z"/><path class="cls-1" d="M491.77,175.65A53.18,53.18,0,1,0,459,74.46L36.68,211.82A53,53,0,0,0,3.93,276.35c8.31,28.35,38.13,45.46,65.5,36.17C70.41,312.52,491.77,175.65,491.77,175.65Z"/><path class="cls-1" d="M124.67,294.92c27.37-8.8,63.05-20.53,101.18-32.75C213.63,224,201.9,188.36,193.1,161L91.92,193.74Z"/><path class="cls-1" d="M337.3,226c38.13-12.22,73.82-23.95,101.19-32.75-12.22-38.13-23.95-73.82-32.75-101.19L304.55,124.81Z"/></svg>