<svg id="Layer_1" data-name="Layer 1" xmlns="http://www.w3.org/2000/svg" xmlns:xlink="http://www.w3.org/1999/xlink" viewBox="0 0 600 600"><defs><style>.cls-1{fill:url(#linear-gradient);}.cls-2{fill:url(#linear-gradient-2);}.cls-3{fill:url(#linear-gradient-3);}.cls-4{fill:#010101;}.cls-5{fill:#fff;}</style><linearGradient id="linear-gradient" x1="62.34" y1="1475.95" x2="546.74" y2="1255.14" gradientTransform="translate(0 -1008.95)" gradientUnits="userSpaceOnUse"><stop offset="0" stop-color="#6d5da5"/><stop offset="0.16" stop-color="#5e6fb3"/><stop offset="0.38" stop-color="#4d8dcb"/><stop offset="0.54" stop-color="#3ba4dc"/><stop offset="0.63" stop-color="#33ace3"/></linearGradient><linearGradient id="linear-gradient-2" x1="259.68" y1="1250.1" x2="11.27" y2="1030.7" gradientTransform="translate(0 -1008.95)" gradientUnits="userSpaceOnUse"><stop offset="0" stop-color="#6d5da5"/><stop offset="0.07" stop-color="#7c5ba2"/><stop offset="0.25" stop-color="#b75098"/><stop offset="0.39" stop-color="#e93f8f"/><stop offset="0.47" stop-color="#e93c8b"/></linearGradient><linearGradient id="linear-gradient-3" x1="44.59" y1="1509.55" x2="631.06" y2="1140.01" xlink:href="#linear-gradient"/></defs><title>app_icons</title><path class="cls-1" d="M570.57,405.6c-1.7-1.69-111.28-107-111.28-107s83.25-88.34,105.33-110.43c6.8-6.8,12.75-13.59,17-22.09C612.2,114.23,594.36,48,542.54,17.4c-38.23-22.09-85.8-18.69-119.78,6.79a125.6,125.6,0,0,0-16.14,13.59c-2.55,3.4-118.07,108.73-218.31,200.48L376,357.18,179,578.9A93,93,0,0,1,142.44,595a18.69,18.69,0,0,0,6.79-.85c39.08-6,372.92-62,389.06-65.41a71.75,71.75,0,0,0,48.42-33.13C605.4,465.07,596.9,426.84,570.57,405.6Z"/><path class="cls-2" d="M392.18,261.19c-3.4-22.93-15.29-41.62-32.28-55.21C342.06,192.39,204.45,49.67,189.16,33.54,165.37,10.6,131.39-2.14,96.56,3.8,37.1,12.3-4.52,68.36,4.82,127.83,9.07,157.56,26.06,183,48.14,199.18c22.09,17,195.38,135.92,206.43,144.41,17.84,13.59,41.62,21.24,65.41,17C366.7,352.09,399.83,307.91,392.18,261.19Z"/><path class="cls-3" d="M197.65,578.05c.85,0,197.93-221.72,197.93-221.72L196.8,230.61C126.3,295.17,60.89,353.79,45.6,368.23a133.15,133.15,0,0,0-25.49,31.43A130.78,130.78,0,0,0,67.68,578.9C93.17,593.34,150.93,611.18,197.65,578.05Z"/><rect class="cls-4" x="116.1" y="115.93" width="366.97" height="366.97"/><rect class="cls-5" x="150.08" y="414.1" width="137.61" height="22.94"/><polygon class="cls-5" points="204.45 256.1 146.68 164.35 185.76 164.35 221.44 224.67 258.81 164.35 297.04 164.35 238.43 255.25 238.43 316.41 204.45 316.41 204.45 256.1"/><polygon class="cls-5" points="355.65 194.94 308.93 194.94 308.93 164.35 435.5 164.35 435.5 194.94 388.78 194.94 388.78 316.41 355.65 316.41 355.65 194.94"/></svg>