<?xml version="1.0" encoding="UTF-8" standalone="no"?>
<!DOCTYPE svg PUBLIC "-//W3C//DTD SVG 1.1//EN" "http://www.w3.org/Graphics/SVG/1.1/DTD/svg11.dtd">
<svg version="1.1" xmlns="http://www.w3.org/2000/svg" xmlns:xlink="http://www.w3.org/1999/xlink" preserveAspectRatio="xMidYMid meet" viewBox="0 0 143 190" width="143" height="190"><defs><path d="M468.91 51.38C468.44 49.89 467.05 48.87 465.48 48.87C462.13 48.87 435.32 48.87 431.96 48.87C430.4 48.87 429.01 49.89 428.54 51.38C424.31 64.8 390.48 172.1 386.25 185.51C385.91 186.61 386.1 187.8 386.78 188.72C387.45 189.64 388.53 190.19 389.68 190.19C391.98 190.19 410.44 190.19 412.75 190.19C414.34 190.19 415.75 189.14 416.2 187.61C419.11 177.75 442.41 98.83 445.32 88.96C445.32 88.96 446.08 86.5 448.72 86.5C451.4 86.5 452.05 89.06 452.05 89.06C452.95 92.18 457.46 107.78 465.56 135.84C454.43 135.84 448.24 135.84 447 135.84C445.39 135.84 443.98 136.91 443.54 138.46C443.02 140.31 438.85 155.13 438.33 156.98C438.03 158.06 438.25 159.23 438.93 160.12C439.61 161.02 440.67 161.54 441.79 161.54C443.88 161.54 454.32 161.54 473.12 161.54C478 177.22 480.71 185.92 481.26 187.66C481.72 189.16 483.11 190.19 484.69 190.19C486.99 190.19 505.46 190.19 507.77 190.19C508.92 190.19 509.99 189.64 510.67 188.72C511.35 187.8 511.54 186.61 511.2 185.51C508.38 176.57 494.28 131.86 468.91 51.38" id="ek14gUYmq"></path><path d="M255.27 48.87C242.04 48.87 234.69 48.87 233.22 48.87C231.24 48.87 229.63 50.48 229.63 52.46C229.63 65.88 229.63 173.18 229.63 186.59C229.63 188.58 231.24 190.19 233.22 190.19C235.43 190.19 253.06 190.19 255.27 190.19C257.25 190.19 258.86 188.58 258.86 186.59C258.86 173.18 258.86 65.88 258.86 52.46C258.86 50.48 257.25 48.87 255.27 48.87" id="b2oqiOrHI9"></path><path d="M203.64 48.87C190.25 48.87 182.81 48.87 181.33 48.87C179.44 48.87 177.9 50.41 177.9 52.29C177.9 62.79 177.9 146.75 177.9 157.25C177.9 170.44 167.84 174.78 161.04 175.12C160.13 175.17 159.06 175.74 158.47 176.6C157.88 177.46 157.72 178.54 158.03 179.53C158.57 181.3 162.91 195.42 163.45 197.18C163.89 198.63 165.45 199.55 167.98 199.55C189.33 199.55 207.06 182.79 207.06 160.32C207.06 149.52 207.06 63.1 207.06 52.29C207.06 51.39 206.7 50.52 206.06 49.87C205.42 49.23 204.55 48.87 203.64 48.87" id="g7dDysAaTh"></path><path d="M30.85 12.28C23.99 12.28 18.44 17.83 18.44 24.7C18.44 31.55 23.99 37.12 30.85 37.12C37.71 37.12 43.25 31.55 43.25 24.7C43.25 17.83 37.71 12.28 30.85 12.28" id="e1ygfUIFvo"></path><path d="M112.36 12.28C105.5 12.28 99.95 17.83 99.95 24.7C99.95 31.55 105.5 37.12 112.36 37.12C119.2 37.12 124.76 31.55 124.76 24.7C124.76 17.83 119.2 12.29 112.36 12.28" id="a1N4TRIkHa"></path><path d="M71.6 0.95C64.75 0.95 59.19 6.49 59.19 13.37C59.19 20.22 64.75 25.79 71.6 25.79C78.46 25.79 84.01 20.22 84.01 13.37C84.01 6.49 78.46 0.95 71.6 0.95" id="d1dCdBprbi"></path><path d="M141.69 46.88C140.99 46.36 140.17 46.08 139.32 46.08C138.86 46.08 138.38 46.17 137.94 46.34C129.54 49.55 121.01 51.99 113.22 53.81C111.63 54.18 110.35 55.36 109.82 56.77C104.14 72.31 89.66 87.11 74.46 102.61C73.85 103.19 73 103.95 71.61 103.95C70.22 103.95 69.37 103.21 68.75 102.61C53.55 87.11 39.07 72.36 33.39 56.82C32.86 55.41 31.58 54.23 29.99 53.86C22.2 52.04 13.65 49.53 5.26 46.32C4.81 46.15 4.34 46.06 3.87 46.06C3.03 46.06 2.21 46.33 1.53 46.85C0.45 47.67 -0.11 49 0.02 50.28C1.3 63.21 6.41 75.84 15.63 89.08C24.29 101.52 35.59 113.04 46.51 124.18C66.64 144.71 85.65 164.1 87.32 186.58C87.47 188.61 89.16 190.18 91.19 190.18C93.56 190.18 112.48 190.18 114.84 190.18C115.9 190.18 116.92 189.74 117.66 188.97C118.39 188.2 118.78 187.17 118.72 186.1C117.98 171.07 112.32 156.02 101.43 140.09C99.15 136.75 96.7 133.5 94.15 130.32C93.11 129.02 93.54 127.41 94.34 126.6C95.12 125.8 95.91 124.99 96.7 124.18C107.63 113.04 118.92 101.52 127.59 89.08C136.8 75.84 141.91 63.28 143.19 50.36C143.32 49.06 142.73 47.68 141.69 46.88" id="eQ59bmk7y"></path><path d="M46.23 141.67C45.67 141.09 44.85 140.49 43.47 140.49C41.71 140.49 40.66 141.71 40.26 142.31C30.32 157.45 25.18 171.73 24.47 186.09C24.42 187.15 24.81 188.2 25.54 188.97C26.28 189.74 27.31 190.18 28.37 190.18C30.73 190.18 49.61 190.18 51.98 190.18C54.01 190.18 55.72 188.59 55.87 186.57C56.38 179.65 58.53 172.71 62.46 165.43C63.82 162.9 62.76 160.54 61.98 159.52C58.09 154.46 53.32 149.07 46.23 141.67" id="a14ZpcGbYR"></path><path d="M71.63 58.47C79.04 58.47 83.34 58.02 84.85 58.02C86.68 58.02 88.42 59.52 88.42 61.62C88.42 62.23 88.28 62.67 88.13 63.05C87.15 65.68 82.67 75.14 74.33 83.24C73.4 84.15 72.34 84.32 71.61 84.32C71.61 84.32 71.6 84.32 71.6 84.32C70.87 84.32 69.81 84.15 68.88 83.24C60.54 75.14 56.06 65.68 55.08 63.05C54.93 62.67 54.79 62.23 54.79 61.62C54.79 59.52 56.54 58.02 58.37 58.02C59.88 58.02 64.17 58.47 71.58 58.47C71.58 58.47 71.6 58.47 71.63 58.47" id="h1mv0m3Shf"></path></defs><g><g><g><use xlink:href="#ek14gUYmq" opacity="1" fill="#264970" fill-opacity="1"></use><g><use xlink:href="#ek14gUYmq" opacity="1" fill-opacity="0" stroke="#000000" stroke-width="1" stroke-opacity="0"></use></g></g><path></path><g><use xlink:href="#b2oqiOrHI9" opacity="1" fill="#264970" fill-opacity="1"></use><g><use xlink:href="#b2oqiOrHI9" opacity="1" fill-opacity="0" stroke="#000000" stroke-width="1" stroke-opacity="0"></use></g></g><g><use xlink:href="#g7dDysAaTh" opacity="1" fill="#264970" fill-opacity="1"></use><g><use xlink:href="#g7dDysAaTh" opacity="1" fill-opacity="0" stroke="#000000" stroke-width="1" stroke-opacity="0"></use></g></g><g><use xlink:href="#e1ygfUIFvo" opacity="1" fill="#264970" fill-opacity="1"></use><g><use xlink:href="#e1ygfUIFvo" opacity="1" fill-opacity="0" stroke="#000000" stroke-width="1" stroke-opacity="0"></use></g></g><g><use xlink:href="#a1N4TRIkHa" opacity="1" fill="#264970" fill-opacity="1"></use><g><use xlink:href="#a1N4TRIkHa" opacity="1" fill-opacity="0" stroke="#000000" stroke-width="1" stroke-opacity="0"></use></g></g><g><use xlink:href="#d1dCdBprbi" opacity="1" fill="#264970" fill-opacity="1"></use><g><use xlink:href="#d1dCdBprbi" opacity="1" fill-opacity="0" stroke="#000000" stroke-width="1" stroke-opacity="0"></use></g></g><g><use xlink:href="#eQ59bmk7y" opacity="1" fill="#264970" fill-opacity="1"></use><g><use xlink:href="#eQ59bmk7y" opacity="1" fill-opacity="0" stroke="#000000" stroke-width="1" stroke-opacity="0"></use></g></g><g><use xlink:href="#a14ZpcGbYR" opacity="1" fill="#264970" fill-opacity="1"></use><g><use xlink:href="#a14ZpcGbYR" opacity="1" fill-opacity="0" stroke="#000000" stroke-width="1" stroke-opacity="0"></use></g></g><g><use xlink:href="#h1mv0m3Shf" opacity="1" fill="#264970" fill-opacity="1"></use><g><use xlink:href="#h1mv0m3Shf" opacity="1" fill-opacity="0" stroke="#000000" stroke-width="1" stroke-opacity="0"></use></g></g></g></g></svg>